<?xml version="1.0" encoding="UTF-8"?>
<svg width="445px" height="9px" viewBox="0 0 445 9" version="1.1" xmlns="http://www.w3.org/2000/svg" xmlns:xlink="http://www.w3.org/1999/xlink">
    <!-- Generator: Sketch 43.2 (39069) - http://www.bohemiancoding.com/sketch -->
    <title>Group 9</title>
    <desc>Created with Sketch.</desc>
    <defs></defs>
    <g id="Vector" stroke="none" stroke-width="1" fill="none" fill-rule="evenodd">
        <g id="Artboard" transform="translate(-551.000000, -646.000000)" fill="#C7C7C7">
            <g id="Group-9" transform="translate(551.000000, 646.000000)">
                <path d="M212.26742,1.09580926 C212.317892,1.0268653 212.311053,0.932964265 212.250813,0.871507439 C212.190573,0.809426686 212.093211,0.796948143 212.017992,0.840935008 L206.781306,3.89537044 L0,3.89537044 L0,5.45518836 L206.781306,5.45518836 L212.054136,8.53083732 C212.126099,8.57264044 212.218902,8.56047386 212.276212,8.50151274 C212.333521,8.44255162 212.339708,8.35270611 212.290865,8.28719376 C211.533463,7.2683207 211.087684,6.02171422 211.087684,4.6752794 C211.087684,3.34288294 211.52402,2.10875501 212.26742,1.09580926 Z" id="Fill-1" transform="translate(106.161864, 4.685185) scale(1, -1) translate(-106.161864, -4.685185) "></path>
                <path d="M225.39661,4.51851852 C225.39661,6.07268723 224.124881,7.33333333 222.55561,7.33333333 C220.986983,7.33333333 219.715254,6.07268723 219.715254,4.51851852 C219.715254,2.9643498 220.986983,1.7037037 222.55561,1.7037037 C224.124881,1.7037037 225.39661,2.9643498 225.39661,4.51851852" id="Fill-3" transform="translate(222.555932, 4.518519) scale(1, -1) translate(-222.555932, -4.518519) "></path>
                <path d="M444.943691,1.09580926 C444.994163,1.0268653 444.987325,0.932964265 444.927084,0.871507439 C444.866844,0.809426686 444.769482,0.796948143 444.694263,0.840935008 L439.457578,3.89537044 L232.676271,3.89537044 L232.676271,5.45518836 L439.457578,5.45518836 L444.730407,8.53083732 C444.80237,8.57264044 444.895173,8.56047386 444.952483,8.50151274 C445.009793,8.44255162 445.01598,8.35270611 444.967136,8.28719376 C444.209734,7.2683207 443.763955,6.02171422 443.763955,4.6752794 C443.763955,3.34288294 444.200291,2.10875501 444.943691,1.09580926 Z" id="Fill-1" transform="translate(338.838136, 4.685185) scale(-1, -1) translate(-338.838136, -4.685185) "></path>
            </g>
        </g>
    </g>
</svg>