<?xml version="1.0" encoding="UTF-8"?>
<svg width="377px" height="120px" viewBox="0 0 377 120" version="1.1" xmlns="http://www.w3.org/2000/svg" xmlns:xlink="http://www.w3.org/1999/xlink">
    <!-- Generator: Sketch 43.2 (39069) - http://www.bohemiancoding.com/sketch -->
    <title>Group 7</title>
    <desc>Created with Sketch.</desc>
    <defs></defs>
    <g id="Vector" stroke="none" stroke-width="1" fill="none" fill-rule="evenodd">
        <g id="Artboard" transform="translate(-636.000000, -92.000000)">
            <g id="Group-7" transform="translate(636.000000, 92.000000)">
                <polygon id="Path" fill="#FDCE1E" points="60.7914338 27.6 60.7914338 30.1220339 23.3021578 30.1220339 23.3021578 27.6 60.7914338 27.6"></polygon>
                <path d="M34.5489406,59.1254237 L27.3467982,59.1254237 C24.2792743,59.1254237 21.6971811,58.117763 19.8788417,56.2127747 C17.9777729,54.2185037 16.9750707,51.3434551 17.0587951,48.1188248 C17.1894278,43.3059783 19.9624239,37.6881356 27.3467982,37.6881356 L34.5489406,37.6881356 L34.5489406,59.1254237 Z M27.3616849,40.3012882 C21.8094382,40.3012882 19.719883,44.3841941 19.6164003,48.2028812 C19.5522922,50.7205086 20.297709,52.9274612 21.7169008,54.4146354 C23.0623184,55.8263185 24.9619658,56.5423223 27.3616849,56.5423223 L32.0198293,56.5423223 L32.0198293,40.3012882 L27.3616849,40.3012882 Z" id="Combined-Shape" fill="#FDCE1E"></path>
                <path d="M40.172332,64.8 L27.093112,64.8 C22.2768369,64.8 18.1985752,63.2614993 15.2998064,60.3501961 C12.3664986,57.4047914 10.730323,53.0663273 10.8084048,48.4473277 C10.9465609,40.5811108 16.0353105,32.6440678 27.093112,32.6440678 L27.093112,35.2522469 C17.1942866,35.2522469 13.5573569,42.3846994 13.4500498,48.4913389 C13.3836286,52.4157763 14.7433443,56.0723568 17.1829212,58.52125 C19.6083283,60.9576102 22.9434106,62.1918209 27.093112,62.1918209 L37.530687,62.1918209 L37.530687,35.2522469 L28.9518724,35.2522469 L28.9518724,32.6440678 L40.172332,32.6440678 L40.172332,64.8 Z" id="Path" fill="#FDCE1E"></path>
                <path d="M55.4979015,59.1254237 L48.2950084,59.1254237 L48.2950084,37.6881356 L55.4979015,37.6881356 C62.8814497,37.6881356 65.6545266,43.3059783 65.7852919,48.1162116 C65.8677309,51.3434551 64.8660972,54.2185037 62.964173,56.2127747 C61.1472462,58.117763 58.5652003,59.1254237 55.4979015,59.1254237 Z M50.8534597,56.5423223 L55.5123994,56.5423223 C57.9116582,56.5423223 59.8103133,55.8263185 61.1567693,54.4146354 C62.5758569,52.9274612 63.3212191,50.7205086 63.2571157,48.2017198 C63.1534984,44.3841941 61.0642387,40.3012882 55.5123994,40.3012882 L50.8534597,40.3012882 L50.8534597,56.5423223 Z" id="Combined-Shape" fill="#FDCE1E"></path>
                <path d="M55.7507551,64.8 L42.6716171,64.8 L42.6716171,32.6440678 L53.8918378,32.6440678 L53.8918378,35.2522469 L45.3132753,35.2522469 L45.3132753,62.1918209 L55.7507551,62.1918209 C59.9003297,62.1918209 63.2343955,60.9576102 65.6596671,58.5224159 C68.0992563,56.0723568 69.4616357,52.4170879 69.3938858,48.4913389 C69.2864305,42.3846994 65.6481541,35.2522469 55.7507551,35.2522469 L55.7507551,32.6440678 C66.8074313,32.6440678 71.8962064,40.5811108 72.035544,48.4460161 C72.1136262,53.0676389 70.47759,57.4059573 67.5442675,60.3515077 C64.6441557,63.2614993 60.5670543,64.8 55.7507551,64.8 Z" id="Path" fill="#FDCE1E"></path>
                <path d="M343.591753,61.7302326 L343.591753,33.6 L350.323717,33.6 C351.869327,33.6 353.199151,33.7242828 354.310033,33.9668044 C355.422099,34.2085704 356.385837,34.6180616 357.206375,35.1877228 C358.026913,35.757384 358.642711,36.5333019 359.04943,37.5120765 C359.456149,38.4912289 359.661283,39.6860819 359.661283,41.1004132 C359.661283,42.8649274 359.387508,44.3057018 358.837589,45.4253807 C358.286487,46.5450596 357.380345,47.3606422 356.115217,47.8675953 L360.191083,61.7302326 L354.823264,61.7302326 L351.315069,48.8860347 L348.943003,48.8860347 L348.943003,61.7302326 L343.591753,61.7302326 Z M348.943003,45.6119939 L350.234956,45.6119939 C351.818437,45.6119939 352.943127,45.2912761 353.609025,44.6464408 C354.276107,44.0012277 354.611423,42.8981702 354.611423,41.336135 C354.611423,39.8334081 354.32029,38.756416 353.743152,38.104781 C353.165225,37.4565459 352.102075,37.1294062 350.55331,37.1294062 L348.943003,37.1294062 L348.943003,45.6119939 Z" id="Combined-Shape" fill="#FDCE1E"></path>
                <polygon id="Path" fill="#FDCE1E" points="327.684062 61.7302326 327.684062 33.6 339.358393 33.6 339.358393 37.2144021 332.764988 37.2144021 332.764988 45.2912761 337.978135 45.2912761 337.978135 48.9053004 332.764988 48.9053004 332.764988 58.1842049 339.441921 58.1842049 339.441921 61.7302326"></polygon>
                <polygon id="Path" fill="#FDCE1E" points="304.191926 61.7302326 300.018513 33.6 304.491315 33.6 306.882113 51.7377405 310.000221 33.6 313.572898 33.6 316.754882 51.7539842 319.149598 33.6 323.53423 33.6 319.360032 61.7302326 315.121568 61.7302326 311.830253 42.950301 308.556181 61.7302326"></polygon>
                <path d="M279.960989,61.7302326 L286.09298,33.6 L291.828221,33.6 L297.943596,61.7302326 L292.829619,61.7302326 L291.610597,55.1983945 L286.384767,55.1983945 L285.148319,61.7302326 L279.960989,61.7302326 Z M286.967531,51.8556015 L291.010406,51.8556015 L288.987348,40.301452 L286.967531,51.8556015 Z" id="Combined-Shape" fill="#FDCE1E"></path>
                <path d="M260.595105,61.7302326 L260.595105,33.6 L267.326674,33.6 C268.872284,33.6 270.202108,33.7242828 271.313779,33.9668044 C272.425056,34.2085704 273.388794,34.6180616 274.209332,35.1877228 C275.02987,35.757384 275.645668,36.5333019 276.052387,37.5120765 C276.459106,38.4912289 276.66424,39.6860819 276.66424,41.1004132 C276.66424,42.8649274 276.390859,44.3057018 275.840546,45.4253807 C275.289839,46.5450596 274.383697,47.3606422 273.118569,47.8675953 L277.194434,61.7302326 L271.826221,61.7302326 L268.31842,48.8860347 L265.94596,48.8860347 L265.94596,61.7302326 L260.595105,61.7302326 Z M265.94596,45.6119939 L267.237913,45.6119939 C268.821394,45.6119939 269.946478,45.2912761 270.611982,44.6464408 C271.279459,44.0012277 271.61438,42.8981702 271.61438,41.336135 C271.61438,39.8334081 271.324036,38.756416 270.746109,38.104781 C270.168182,37.4565459 269.105032,37.1294062 267.555478,37.1294062 L265.94596,37.1294062 L265.94596,45.6119939 Z" id="Combined-Shape" fill="#FDCE1E"></path>
                <path d="M239.845942,61.7302326 L239.845942,33.6 L246.585211,33.6 C248.330096,33.6 249.79272,33.7699917 250.968807,34.110353 C252.145283,34.451092 253.085374,34.9882658 253.796081,35.7214969 C254.506787,36.45775 255.009491,37.3583284 255.305748,38.4288986 C255.605505,39.4960689 255.753633,40.8125605 255.753633,42.3738402 L255.753633,52.5170582 C255.753633,54.1244245 255.602395,55.4862472 255.29875,56.6059261 C254.995884,57.7259828 254.496679,58.6752922 253.805801,59.4576319 C253.111812,60.2373274 252.189216,60.8100106 251.036456,61.1798371 C249.883697,61.5462637 248.472004,61.7302326 246.793991,61.7302326 L239.845942,61.7302326 Z M245.118699,58.1350962 L246.618647,58.1350962 C247.144678,58.1350962 247.602672,58.0890096 248.000403,57.9975918 C248.394635,57.906174 248.728216,57.8007791 248.994537,57.6764963 C249.263579,57.5522134 249.486743,57.3459568 249.668308,57.064526 C249.846762,56.7827175 249.984782,56.5209302 250.075759,56.2855861 C250.170235,56.0460866 250.241383,55.689104 250.288426,55.2078385 C250.332748,54.7269508 250.362296,54.3178373 250.375904,53.9770983 C250.385624,53.6367371 250.392622,53.1358281 250.392622,52.4675717 L250.392622,42.187227 C250.392622,41.5197261 250.379014,40.9825522 250.355298,40.5734388 C250.332748,40.1673474 250.278707,39.758234 250.190452,39.3457207 C250.103363,38.9298076 249.975062,38.6121119 249.806328,38.3865895 C249.637594,38.1603117 249.415206,37.954055 249.135667,37.7678196 C248.855739,37.5812065 248.50544,37.4497462 248.087881,37.3745721 C247.667211,37.3027978 247.160619,37.2665329 246.568493,37.2665329 L245.118699,37.2665329 L245.118699,58.1350962 Z" id="Combined-Shape" fill="#FDCE1E"></path>
                <path d="M223.890227,57.0418605 C222.673713,57.0418605 221.801911,56.5948003 221.273641,55.7079337 C220.74262,54.821449 220.480058,53.3458832 220.480058,51.2842907 L220.480058,48.750059 C220.480058,47.991851 220.507179,47.3271783 220.561814,46.7579497 C220.619593,46.1856669 220.721788,45.6492711 220.871543,45.1464716 C221.025229,44.6436721 221.222937,44.2366984 221.468205,43.9186787 C221.716618,43.6014225 222.033422,43.3532679 222.421763,43.1707787 C222.813642,42.9921074 223.273126,42.8997175 223.804933,42.8997175 C224.735694,42.9065895 225.567011,43.3070729 226.299278,44.0942958 L226.299278,37.6186047 L228.088084,37.6186047 L228.088084,56.8196666 L226.299278,56.8196666 L226.299278,55.8472821 C225.583913,56.6348868 224.78011,57.0319343 223.890227,57.0418605 Z M224.24791,55.6621206 C224.939691,55.6621206 225.621253,55.360899 226.299278,54.7584559 L226.299278,45.2392432 C225.583913,44.5906052 224.883091,44.266477 224.20035,44.266477 C223.44332,44.266477 222.933131,44.573807 222.667031,45.1865581 C222.401324,45.8015999 222.268471,46.8041447 222.268471,48.1938108 L222.268471,51.4228755 C222.268471,52.9221114 222.401324,54.0006297 222.673713,54.666066 C222.942958,55.3311204 223.467297,55.6621206 224.24791,55.6621206 Z" id="Combined-Shape" fill="#FDCE1E"></path>
                <path d="M210.105477,56.372093 L210.105477,43.1773383 L211.954957,43.1773383 L211.954957,44.5502687 C213.032704,43.5021096 214.201887,42.9767442 215.469824,42.9767442 C216.191979,42.9767442 216.748733,43.2221596 217.132365,43.7060102 C217.520061,44.1935346 217.713503,44.8871639 217.713503,45.7854286 L217.713503,56.372093 L215.864429,56.372093 L215.864429,46.1421627 C215.864429,45.4731484 215.751859,44.99885 215.522655,44.7155935 C215.297108,44.4319697 214.948426,44.2919947 214.469698,44.2919947 C213.67358,44.2919947 212.835604,44.6961219 211.954957,45.5084177 L211.954957,56.372093 L210.105477,56.372093 Z" id="Path" fill="#FDCE1E"></path>
                <path d="M202.56882,57.0418605 C201.74445,57.0418605 201.063175,56.7456968 200.531678,56.1594446 C199.996644,55.5705346 199.730896,54.8434148 199.730896,53.9780853 C199.730896,53.5239677 199.771387,53.118831 199.850011,52.760397 C199.931779,52.4046209 200.078019,52.0697281 200.299738,51.7534405 C200.517526,51.4375326 200.756149,51.1611132 201.015214,50.9173477 C201.270742,50.6773792 201.639094,50.420704 202.115554,50.1473222 C202.592407,49.87432 203.069653,49.6240997 203.546899,49.3940033 C204.023752,49.1635272 204.647238,48.8802733 205.420503,48.5514557 L205.420503,47.5741156 C205.420503,46.320356 205.298243,45.4576844 205.049399,44.9876195 C204.804092,44.5137577 204.34375,44.2798643 203.666014,44.2798643 C202.364791,44.2798643 201.710248,45.0567244 201.710248,46.6165197 L201.710248,47.1135431 L199.945145,47.0543104 C199.945145,46.8302891 199.948683,46.6920794 199.959298,46.6396812 C200.013548,45.3563053 200.361065,44.4283258 200.994772,43.8454909 C201.632018,43.266453 202.55506,42.9767442 203.761149,42.9767442 C205.011659,42.9767442 205.897749,43.3355579 206.422169,44.0493882 C206.946982,44.7635983 207.209193,45.9057269 207.209193,47.4822289 L207.209193,54.1159153 C207.209193,55.2121006 207.253615,56.113881 207.338922,56.8208768 L205.754653,56.8208768 L205.492443,54.9326436 C205.277407,55.5314258 204.912986,56.0314867 204.401932,56.4362437 C203.88734,56.8375835 203.277613,57.0418605 202.56882,57.0418605 Z M203.15496,55.5542076 C203.631813,55.5542076 204.071712,55.3962536 204.47348,55.0769284 C204.872102,54.757983 205.188956,54.3798047 205.420503,53.9416344 L205.420503,49.6932046 C205.372935,49.7159864 205.298243,49.7524373 205.192494,49.8082528 C204.804092,50.0060749 204.504143,50.1606116 204.299721,50.2692049 C204.091761,50.3747607 203.84331,50.5095531 203.553582,50.6709244 C203.263853,50.8319159 203.046066,50.9667083 202.90297,51.0753017 C202.759875,51.1808574 202.596338,51.3122326 202.40882,51.467149 C202.221303,51.6186481 202.088822,51.7633127 202.003122,51.8981051 C201.921353,52.0332772 201.833294,52.1874342 201.747988,52.3655121 C201.659143,52.539793 201.601354,52.7273634 201.567153,52.9217682 C201.53649,53.118831 201.519586,53.3360177 201.519586,53.5733283 C201.519586,54.2408356 201.67644,54.7382387 201.986218,55.0636391 C202.295995,55.3928364 202.68479,55.5542076 203.15496,55.5542076 Z" id="Combined-Shape" fill="#FDCE1E"></path>
                <polygon id="Path" fill="#FDCE1E" points="177.598456 61.7302326 177.598456 33.6 182.880769 33.6 182.880769 45.8152284 188.584841 33.6 193.620641 33.6 188.075459 46.1884547 194.197786 61.7302326 188.932608 61.7302326 183.930689 48.496187 182.880769 50.3298312 182.880769 61.7302326"></polygon>
                <polygon id="Path" fill="#FDCE1E" points="153.3911 61.7302326 153.3911 33.6 157.054464 33.6 164.203197 49.53087 164.203197 33.6 168.607153 33.6 168.607153 61.7302326 165.11747 61.7302326 157.900519 44.9864243 157.900519 61.7302326"></polygon>
                <path d="M136.808822,62.4 C135.492693,62.4 134.348267,62.2505851 133.382682,61.9525197 C132.413132,61.6548364 131.619251,61.2375448 130.997074,60.701027 C130.371724,60.1614521 129.873268,59.4724624 129.498931,58.6313829 C129.124197,57.7899212 128.862874,56.8827323 128.71536,55.9021734 C128.567449,54.9254359 128.492106,53.7889658 128.492106,52.4973489 L128.492106,33.6 L133.71221,33.6 L133.71221,53.0277526 C133.71221,53.6930499 133.729658,54.2593743 133.763761,54.7263434 C133.801829,55.1967519 133.877569,55.6900884 133.997722,56.2032959 C134.114702,56.7203248 134.282837,57.130738 134.502919,57.4391211 C134.722604,57.7467399 135.025167,58.0054454 135.41378,58.210652 C135.798428,58.4192978 136.262384,58.5220922 136.808822,58.5220922 C137.355656,58.5220922 137.822785,58.4192978 138.207829,58.210652 C138.592477,58.0054454 138.891867,57.7467399 139.097674,57.4391211 C139.307445,57.130738 139.472408,56.7203248 139.596129,56.2032959 C139.72342,55.6900884 139.798763,55.1998089 139.829694,54.736279 C139.857452,54.272749 139.874503,53.7029854 139.874503,53.0277526 L139.874503,33.6 L145.091435,33.6 L145.091435,52.4973489 C145.091435,53.7889658 145.015696,54.9254359 144.868181,55.9021734 C144.72027,56.8827323 144.459344,57.7899212 144.08461,58.6313829 C143.709876,59.4724624 143.214989,60.1614521 142.59995,60.701027 C141.981341,61.2375448 141.18746,61.6548364 140.221876,61.9525197 C139.252326,62.2505851 138.115038,62.4 136.808822,62.4 Z" id="Path" fill="#FDCE1E"></path>
                <path d="M104.28475,61.7302326 L104.28475,33.6 L111.016873,33.6 C112.56252,33.6 113.892376,33.7242828 115.003679,33.9668044 C116.114588,34.2085704 117.079138,34.6180616 117.899301,35.1877228 C118.720253,35.757384 119.335671,36.5333019 119.7424,37.5120765 C120.149523,38.4912289 120.354268,39.6860819 120.354268,41.1004132 C120.354268,42.8649274 120.08088,44.3057018 119.530554,45.4253807 C118.979833,46.5450596 118.074064,47.3606422 116.808906,47.8675953 L120.88408,61.7302326 L115.516528,61.7302326 L112.008249,48.8860347 L109.635733,48.8860347 L109.635733,61.7302326 L104.28475,61.7302326 Z M109.635733,45.6119939 L110.928111,45.6119939 C112.510841,45.6119939 113.635952,45.2912761 114.302655,44.6464408 C114.969358,44.0012277 115.304287,42.8981702 115.304287,41.336135 C115.304287,39.8334081 115.013936,38.756416 114.435995,38.104781 C113.858054,37.4565459 112.79488,37.1294062 111.246077,37.1294062 L109.635733,37.1294062 L109.635733,45.6119939 Z" id="Combined-Shape" fill="#FDCE1E"></path>
                <polygon id="Path" fill="#FDCE1E" points="87.8247058 61.7302326 87.8247058 37.3843938 82.843949 37.3843938 82.843949 33.6 98.0600013 33.6 98.0600013 37.3843938 93.238086 37.3843938 93.238086 61.7302326"></polygon>
                <text id="where-a-gentleman-st" font-family="SnellRoundhand-Black, Snell Roundhand" font-size="20.6795999" font-weight="700" fill-opacity="0.641106205" fill="#3E3202">
                    <tspan x="14.9999873" y="86.2">where a gentleman stores his valuables</tspan>
                </text>
                <path d="M124.964274,109.190786 C124.964274,107.951466 125.353504,106.80355 126.016649,105.861365 C126.061672,105.797237 126.055572,105.709896 126.001835,105.652732 C125.948098,105.594988 125.861247,105.583381 125.794148,105.624296 L121.122798,108.465359 L0,108.465359 L0,109.916213 L121.122798,109.916213 L125.826391,112.777008 C125.890585,112.815891 125.973369,112.804575 126.024492,112.749732 C126.075614,112.69489 126.081133,112.611321 126.037563,112.550385 C125.361928,111.602687 124.964274,110.443164 124.964274,109.190786" id="Fill-1" fill="#A4A4A4"></path>
                <path d="M135.427204,105.941009 C135.427204,105.941009 135.390207,105.926845 135.317089,105.898806 C135.249506,105.874814 135.121913,105.821049 135.00335,105.782315 C134.794191,105.712073 134.4085,105.593559 133.924054,105.525052 C133.439609,105.456834 132.828154,105.435732 132.174459,105.596449 C131.526007,105.757167 130.832403,106.098835 130.317079,106.754133 C130.059563,107.079325 129.837877,107.47447 129.688728,107.942746 C129.539869,108.410156 129.455681,108.943471 129.444612,109.520723 C129.432668,110.098553 129.493551,110.717429 129.618231,111.363767 L129.665714,111.560327 L129.727763,111.778567 C129.77379,111.923097 129.82506,112.067338 129.88303,112.210711 C130.00101,112.49688 130.147246,112.778135 130.322614,113.051585 C131.018549,114.151168 132.202716,115.10044 133.642068,115.82887 C135.082878,116.562792 136.767803,117.094951 138.570999,117.471596 C140.376818,117.846506 142.311103,118.065324 144.317632,118.129784 C144.568448,118.135277 144.820429,118.140191 145.073285,118.145683 C145.329053,118.145394 145.585696,118.145105 145.843212,118.144816 C146.342514,118.135566 146.855216,118.120824 147.373453,118.088738 C148.407596,118.027457 149.457179,117.924263 150.516083,117.769038 C154.76044,117.164325 159.129186,115.799097 163.543667,114.079192 C165.757025,113.22531 167.98524,112.28182 170.28803,111.380821 C171.440735,110.932779 172.612959,110.495431 173.829752,110.121966 C175.046837,109.75515 176.309948,109.42938 177.671522,109.36781 C178.365709,109.339482 179.021734,109.406544 179.68883,109.50916 C180.35476,109.625073 181.038751,109.793884 181.702642,110.16995 C182.031528,110.358995 182.356046,110.612212 182.614727,110.952435 C182.873117,111.291791 183.040911,111.720755 183.081694,112.140759 C183.125099,112.563653 183.064507,112.961399 182.946527,113.325325 C182.940118,113.353653 182.909822,113.425629 182.886809,113.480261 C182.862048,113.537495 182.836704,113.59733 182.809321,113.651095 C182.750185,113.746485 182.700372,113.847945 182.627545,113.934663 C182.494999,114.118504 182.327497,114.269394 182.154752,114.399181 C181.803143,114.654132 181.422403,114.787677 181.059725,114.875552 C180.695007,114.960824 180.339612,114.9958 179.99179,115.008519 C179.296438,115.031644 178.63109,114.962269 177.977395,114.865145 C176.672044,114.664538 175.417672,114.333276 174.181944,113.962701 C171.713982,113.211146 169.326713,112.280085 166.977897,111.302775 C166.393242,111.055918 165.808878,110.80935 165.22568,110.562782 C164.639859,110.308699 164.090452,110.090748 163.49298,109.889852 C162.3126,109.48459 161.116198,109.118352 159.917757,108.784777 C157.520875,108.122541 155.105058,107.574484 152.697689,107.294096 C151.496043,107.161996 150.291193,107.091466 149.124796,107.194371 C148.54218,107.244956 147.971217,107.344682 147.439871,107.519852 C146.915516,107.701092 146.424954,107.96009 146.090241,108.34425 C145.750576,108.722051 145.568508,109.213452 145.544912,109.742431 C145.502673,110.272856 145.631722,110.758765 145.961774,111.121824 C146.287165,111.487773 146.78268,111.723646 147.302665,111.873668 C147.826437,112.024268 148.383126,112.097111 148.940107,112.133243 C150.057856,112.199727 151.18347,112.123704 152.287236,111.998252 C153.392167,111.870488 154.479911,111.686068 155.547263,111.47332 C157.682259,111.044645 159.737729,110.506127 161.70464,109.920781 C162.687805,109.626518 163.649412,109.319826 164.583054,108.994345 C165.048564,108.830159 165.512035,108.664239 165.950454,108.478952 C166.154078,108.388765 166.394699,108.27054 166.616093,108.182377 C166.840982,108.08901 167.065872,108.000847 167.289888,107.914996 C170.884337,106.57694 174.320606,105.758901 177.410801,105.371272 C180.498375,104.989713 183.264053,105.099845 185.422353,105.706581 C186.501941,106.001711 187.41927,106.418824 188.153657,106.878718 C188.886005,107.343237 189.44153,107.835794 189.839748,108.278055 C190.244083,108.716848 190.491112,109.102742 190.662984,109.355959 C190.82029,109.619581 190.901274,109.755439 190.901274,109.755439 C190.901274,109.755439 190.818251,109.620737 190.657449,109.359716 C190.48179,109.109102 190.229518,108.727254 189.82023,108.295688 C189.417351,107.860364 188.857457,107.378502 188.123361,106.927569 C187.387226,106.480972 186.471062,106.080046 185.395844,105.802838 C183.246574,105.231367 180.500996,105.160837 177.438767,105.583731 C174.376246,106.011539 170.965321,106.875827 167.423307,108.25204 C167.203078,108.340203 166.982558,108.430101 166.763786,108.524623 C166.538313,108.618857 166.34605,108.718004 166.106595,108.829003 C165.650698,109.02961 165.189849,109.201312 164.721134,109.374169 C163.784288,109.716127 162.822389,110.03785 161.837768,110.347722 C159.867652,110.964575 157.808687,111.535757 155.658252,111.999698 C154.582743,112.230078 153.483929,112.432709 152.35948,112.578973 C151.235031,112.722347 150.083782,112.818893 148.904276,112.765706 C148.315251,112.735643 147.717487,112.668292 147.122054,112.506997 C146.533903,112.343389 145.918661,112.083525 145.450237,111.579116 C144.971618,111.081355 144.782851,110.340785 144.832082,109.706299 C144.848395,109.063719 145.07882,108.376914 145.532386,107.862677 C145.979835,107.340346 146.586338,107.020646 147.188763,106.802695 C147.797888,106.59226 148.423618,106.476925 149.0476,106.413332 C150.297893,106.285857 151.546439,106.343958 152.78712,106.461894 C155.268482,106.715688 157.726247,107.238019 160.167699,107.874817 C161.388571,108.196251 162.603908,108.548904 163.81604,108.946072 C164.417883,109.138297 165.046525,109.37706 165.624189,109.618714 C166.209135,109.856032 166.794956,110.09335 167.381067,110.331246 C169.724931,111.267799 172.099674,112.153766 174.514326,112.851267 C175.720632,113.195248 176.940048,113.49587 178.153637,113.664392 C178.758392,113.746196 179.365186,113.797359 179.940811,113.768742 C180.509153,113.743305 181.070795,113.625658 181.395312,113.379379 C181.472508,113.317231 181.543588,113.254794 181.592819,113.179639 C181.62428,113.146975 181.63768,113.101304 181.664772,113.065171 L181.683707,113.020078 C181.690698,113.002445 181.69769,113.004758 181.710216,112.955907 C181.785082,112.722636 181.810717,112.483005 181.785665,112.280953 C181.760321,112.076009 181.687494,111.900839 181.56427,111.739833 C181.438425,111.580272 181.259271,111.434586 181.041081,111.313759 C180.602954,111.069504 180.043934,110.923818 179.472388,110.835655 C178.896472,110.75414 178.29463,110.702398 177.73561,110.73564 C176.587274,110.801257 175.411263,111.111417 174.261471,111.478234 C173.108765,111.849965 171.970333,112.292515 170.841224,112.750096 C168.583878,113.670173 166.358868,114.649796 164.132983,115.545881 C159.689663,117.349902 155.212842,118.827574 150.786417,119.523052 C149.682068,119.701401 148.582089,119.825119 147.494345,119.905767 C146.951639,119.946813 146.409515,119.970227 145.862147,119.988149 C145.596183,119.991906 145.331384,119.995953 145.06775,120 C144.801494,119.998266 144.536404,119.996531 144.272479,119.994797 C142.161079,119.956641 140.122214,119.756901 138.182103,119.383147 C136.244031,119.005635 134.396847,118.461047 132.722992,117.640407 C131.887812,117.229653 131.09691,116.747791 130.383789,116.17632 C129.671541,115.606005 129.040567,114.937988 128.5468,114.191347 C128.300354,113.81875 128.088573,113.427074 127.91641,113.025859 C127.831057,112.824385 127.755608,112.621465 127.687733,112.417678 L127.595389,112.110986 C127.567714,112.000565 127.540331,111.890433 127.512948,111.781169 C127.353894,111.016606 127.263297,110.249153 127.267667,109.49384 C127.271454,108.739394 127.37079,107.994199 127.583445,107.293229 C127.795226,106.592549 128.134017,105.942454 128.558161,105.394108 C128.981432,104.843738 129.49326,104.401766 130.024023,104.08091 C130.554204,103.757452 131.097202,103.54615 131.608739,103.412026 C132.121441,103.277613 132.604721,103.217778 133.042265,103.205059 C133.480975,103.188872 133.875989,103.212864 134.22381,103.257957 C134.923532,103.348722 135.419921,103.491807 135.795126,103.614368 C136.094299,103.721609 136.248692,103.777108 136.248692,103.777108 L135.427204,105.941009 Z" id="Fill-2" fill="#A4A4A4"></path>
                <path d="M138.073248,106.8 C138.073248,108.125133 136.998234,109.2 135.671702,109.2 C134.345715,109.2 133.270701,108.125133 133.270701,106.8 C133.270701,105.474867 134.345715,104.4 135.671702,104.4 C136.998234,104.4 138.073248,105.474867 138.073248,106.8" id="Fill-3" fill="#A4A4A4"></path>
                <path d="M252.035834,109.190786 C252.035834,107.951466 251.646607,106.80355 250.983469,105.861365 C250.938447,105.797237 250.944546,105.709896 250.998283,105.652732 C251.052019,105.594988 251.138869,105.583381 251.205967,105.624296 L255.87727,108.465359 L377,108.465359 L377,109.916213 L255.87727,109.916213 L251.173725,112.777008 C251.109532,112.815891 251.026749,112.804575 250.975626,112.749732 C250.924504,112.69489 250.918695,112.611321 250.962555,112.550385 C251.638183,111.602687 252.035834,110.443164 252.035834,109.190786" id="Fill-4" fill="#A4A4A4"></path>
                <path d="M240.751017,103.777079 C240.751017,103.777079 240.90541,103.721868 241.204874,103.614627 C241.580079,103.492066 242.076468,103.348981 242.775898,103.257927 C243.124011,103.213123 243.518734,103.188842 243.957444,103.205029 C244.394988,103.217748 244.878268,103.277294 245.39097,103.411996 C245.902798,103.54612 246.445505,103.757423 246.975686,104.08117 C247.506449,104.401738 248.018568,104.843711 248.441547,105.394081 C248.865692,105.942139 249.204774,106.592235 249.416555,107.292917 C249.62921,107.993888 249.728255,108.739085 249.732333,109.493821 C249.736703,110.249424 249.646106,111.01659 249.487052,111.780865 C249.459669,111.890418 249.431994,112.000261 249.40432,112.110682 L249.312267,112.417953 C249.244101,112.62174 249.168652,112.824661 249.08359,113.025557 C248.911427,113.427062 248.699646,113.818449 248.452908,114.191337 C247.959433,114.937979 247.328459,115.605997 246.616211,116.176313 C245.90309,116.747785 245.11248,117.229648 244.277008,117.640402 C242.602861,118.461044 240.755969,119.005922 238.817897,119.383146 C236.877494,119.7569 234.838921,119.95693 232.727521,119.994797 C232.463596,119.996531 232.198506,119.998266 231.93225,120 C231.668325,119.995953 231.403817,119.992195 231.137853,119.988149 C230.590485,119.970516 230.048653,119.946813 229.505655,119.905766 C228.417911,119.825408 227.318223,119.701401 226.213874,119.52334 C221.786867,118.827572 217.310337,117.349897 212.867017,115.545873 C210.641132,114.650075 208.416122,113.670451 206.158485,112.750083 C205.029667,112.292501 203.891235,111.850239 202.738529,111.478508 C201.588445,111.111401 200.412435,110.801529 199.26439,110.735623 C198.70537,110.702381 198.103528,110.754412 197.527321,110.835638 C196.956066,110.92409 196.397046,111.069777 195.958919,111.313743 C195.740729,111.434571 195.561575,111.580257 195.43573,111.739818 C195.312506,111.900824 195.239971,112.075995 195.214627,112.280649 C195.189283,112.482992 195.214918,112.722622 195.289784,112.955894 C195.302019,113.004745 195.309302,113.002433 195.316293,113.020354 L195.335228,113.065159 C195.362029,113.10158 195.375429,113.146963 195.407181,113.179626 C195.456412,113.254782 195.527492,113.317219 195.604397,113.379656 C195.929205,113.625646 196.490556,113.743583 197.059189,113.768731 C197.634522,113.797348 198.241317,113.746184 198.846072,113.66438 C200.059661,113.495858 201.279076,113.195236 202.485674,112.851543 C204.900617,112.153752 207.275069,111.267783 209.618933,110.331517 C210.205336,110.093621 210.790573,109.856013 211.37552,109.618695 C211.953475,109.377041 212.582117,109.138277 213.183668,108.946341 C214.395801,108.549172 215.611138,108.19623 216.832301,107.875084 C219.273462,107.238285 221.731518,106.715664 224.21288,106.461869 C225.453269,106.343933 226.701815,106.286121 227.952109,106.413307 C228.576382,106.4769 229.20182,106.592235 229.811237,106.80296 C230.413662,107.020912 231.020165,107.340323 231.467614,107.862944 C231.920889,108.376893 232.151605,109.063699 232.167918,109.706569 C232.217149,110.340767 232.028382,111.081628 231.549471,111.579101 C231.081339,112.08351 230.466097,112.343665 229.877946,112.506984 C229.282513,112.668568 228.684749,112.73563 228.095724,112.765981 C226.916218,112.818879 225.764969,112.722333 224.64052,112.57896 C223.51578,112.432695 222.416966,112.230064 221.341748,111.999683 C219.191022,111.536031 217.132057,110.964559 215.162232,110.347704 C214.177611,110.037832 213.215712,109.716108 212.278866,109.37415 C211.810151,109.201292 211.349011,109.029301 210.893405,108.829272 C210.65395,108.718273 210.461395,108.618836 210.236214,108.524891 C210.017442,108.430369 209.796922,108.340182 209.576693,108.252019 C206.034679,106.876092 202.623754,106.011514 199.561233,105.583705 C196.499295,105.16081 193.753135,105.23134 191.603864,105.803101 C190.529229,106.08031 189.612774,106.480947 188.876639,106.927545 C188.142834,107.378479 187.582649,107.860342 187.179479,108.295667 C186.770191,108.727233 186.51821,109.109082 186.342551,109.359697 C186.181749,109.621007 186.098726,109.755709 186.098726,109.755709 C186.098726,109.755709 186.17971,109.619562 186.337016,109.356228 C186.508888,109.103012 186.755917,108.716827 187.160252,108.278034 C187.558179,107.835772 188.113995,107.343214 188.846343,106.878694 C189.58073,106.419088 190.498059,106.001686 191.577647,105.706844 C193.735947,105.099818 196.501917,104.989686 199.589199,105.371534 C202.679394,105.758875 206.115663,106.577204 209.709821,107.914685 C209.934128,108.000536 210.158726,108.0887 210.383907,108.182066 C210.605593,108.270229 210.845922,108.388744 211.049546,108.47922 C211.487965,108.664218 211.951436,108.830139 212.416654,108.994325 C213.350297,109.319807 214.312195,109.626499 215.29536,109.920763 C217.262271,110.506109 219.317741,111.044628 221.452445,111.473305 C222.520089,111.686053 223.607542,111.870473 224.712764,111.998238 C225.81653,112.12369 226.942144,112.200002 228.059893,112.133229 C228.617165,112.097096 229.173563,112.024253 229.697335,111.873942 C230.21732,111.723631 230.712835,111.488047 231.038226,111.121807 C231.368278,110.758748 231.497327,110.273127 231.455088,109.742702 C231.431492,109.213722 231.249424,108.72203 230.909759,108.344518 C230.574755,107.960357 230.084775,107.70107 229.559838,107.519829 C229.028783,107.344948 228.457528,107.244933 227.875204,107.194348 C226.708515,107.091731 225.503957,107.161973 224.302311,107.294073 C221.894942,107.574751 219.479125,108.12252 217.081952,108.784756 C215.884093,109.118621 214.687109,109.484571 213.507312,109.889833 C212.909548,110.091019 212.360141,110.30897 211.77432,110.563054 C211.19083,110.809333 210.606758,111.056191 210.022103,111.302759 C207.672995,112.280071 205.286018,113.211423 202.818056,113.96269 C201.582328,114.333554 200.327664,114.664528 199.022605,114.865136 C198.36891,114.96226 197.703562,115.031924 197.007919,115.00851 C196.660388,114.99608 196.304993,114.960815 195.940275,114.875831 C195.577597,114.787957 195.196857,114.654122 194.845248,114.399171 C194.672211,114.269383 194.504709,114.118494 194.372455,113.934941 C194.299628,113.848223 194.249523,113.746473 194.190679,113.651084 C194.163296,113.597607 194.137661,113.537772 194.113191,113.480249 C194.090178,113.425617 194.059882,113.353641 194.053473,113.325313 C193.935493,112.961386 193.874901,112.563639 193.918015,112.141033 C193.959089,111.720451 194.126883,111.291775 194.385273,110.952418 C194.643954,110.612194 194.968472,110.359267 195.297358,110.169932 C195.961249,109.793865 196.64524,109.625054 197.31117,109.509141 C197.978266,109.406814 198.634291,109.339463 199.328478,109.36808 C200.690052,109.42965 201.952872,109.75542 203.170248,110.121949 C204.387041,110.495414 205.558973,110.932762 206.711679,111.381094 C209.01476,112.281806 211.242975,113.225587 213.456333,114.079471 C217.870814,115.799378 222.23956,117.16432 226.483626,117.769034 C227.542821,117.924259 228.592404,118.027454 229.626547,118.089024 C230.144784,118.12082 230.657486,118.135562 231.156497,118.144812 C231.414304,118.145101 231.670947,118.14539 231.926424,118.145679 C232.179571,118.140187 232.431261,118.135273 232.682368,118.129781 C234.688606,118.06561 236.623182,117.846502 238.429001,117.471591 C240.232197,117.094946 241.916831,116.562786 243.35764,115.828862 C244.797284,115.100431 245.98116,114.151447 246.677386,113.051573 C246.852462,112.778122 246.99899,112.496866 247.11697,112.210986 C247.17494,112.067612 247.225919,111.923371 247.272237,111.778552 L247.334286,111.560601 L247.381478,111.363751 C247.506157,110.717412 247.567041,110.098246 247.555097,109.520703 C247.544027,108.94345 247.459839,108.410134 247.311272,107.942435 C247.161831,107.474447 246.940437,107.079302 246.68263,106.754109 C246.167597,106.09881 245.473993,105.757141 244.82525,105.596423 C244.171846,105.435706 243.560391,105.457096 243.075363,105.525025 C242.591209,105.593533 242.205517,105.712047 241.996358,105.782289 C241.877796,105.821023 241.750494,105.874788 241.682911,105.899069 C241.609793,105.926819 241.572505,105.940983 241.572505,105.940983 L240.751017,103.777079 Z" id="Fill-5" fill="#A4A4A4"></path>
                <path d="M238.926752,106.8 C238.926752,108.125133 240.001705,109.2 241.328162,109.2 C242.654346,109.2 243.729299,108.125133 243.729299,106.8 C243.729299,105.474867 242.654346,104.4 241.328162,104.4 C240.001705,104.4 238.926752,105.474867 238.926752,106.8" id="Fill-6" fill="#A4A4A4"></path>
                <path d="M124.964274,10.7907862 C124.964274,9.55146624 125.353504,8.40355011 126.016649,7.46136516 C126.061672,7.39723739 126.055572,7.30989595 126.001835,7.25273228 C125.948098,7.19498827 125.861247,7.18338143 125.794148,7.22429553 L121.122798,10.0653589 L0,10.0653589 L0,11.5162135 L121.122798,11.5162135 L125.826391,14.3770085 C125.890585,14.4158914 125.973369,14.4045747 126.024492,14.3497324 C126.075614,14.2948901 126.081133,14.2113209 126.037563,14.150385 C125.361928,13.2026868 124.964274,12.0431639 124.964274,10.7907862" id="Fill-1" fill="#A4A4A4" transform="translate(63.033439, 10.800000) scale(1, -1) translate(-63.033439, -10.800000) "></path>
                <path d="M135.427204,2.74100853 C135.427204,2.74100853 135.390207,2.72684461 135.317089,2.69880583 C135.249506,2.67481388 135.121913,2.6210488 135.00335,2.58231481 C134.794191,2.51207333 134.4085,2.3935589 133.924054,2.32505177 C133.439609,2.25683371 132.828154,2.23573236 132.174459,2.39644949 C131.526007,2.55716663 130.832403,2.89883507 130.317079,3.55413317 C130.059563,3.87932521 129.837877,4.27446967 129.688728,4.74274622 C129.539869,5.21015558 129.455681,5.74347053 129.444612,6.32072254 C129.432668,6.89855267 129.493551,7.51742926 129.618231,8.16376651 L129.665714,8.36032704 L129.727763,8.57856703 C129.77379,8.72309683 129.82506,8.86733756 129.88303,9.01071112 C130.00101,9.29688012 130.147246,9.5781351 130.322614,9.85158548 C131.018549,10.9511682 132.202716,11.9004399 133.642068,12.6288701 C135.082878,13.3627924 136.767803,13.8949511 138.570999,14.2715957 C140.376818,14.646506 142.311103,14.8653241 144.317632,14.9297844 C144.568448,14.9352766 144.820429,14.9401906 145.073285,14.9456827 C145.329053,14.9453936 145.585696,14.9451046 145.843212,14.9448155 C146.342514,14.9355656 146.855216,14.9208236 147.373453,14.888738 C148.407596,14.8274573 149.457179,14.7242631 150.516083,14.5690381 C154.76044,13.9643254 159.129186,12.5990969 163.543667,10.8791923 C165.757025,10.0253103 167.98524,9.08181978 170.28803,8.18082103 C171.440735,7.73277866 172.612959,7.29543149 173.829752,6.9219665 C175.046837,6.55514987 176.309948,6.22937971 177.671522,6.16781002 C178.365709,6.13948217 179.021734,6.206544 179.68883,6.30916016 C180.35476,6.42507305 181.038751,6.59388386 181.702642,6.96995039 C182.031528,7.15899536 182.356046,7.41221157 182.614727,7.75243471 C182.873117,8.09179067 183.040911,8.52075511 183.081694,8.9407587 C183.125099,9.36365289 183.064507,9.76139889 182.946527,10.1253249 C182.940118,10.1536528 182.909822,10.2256286 182.886809,10.2802609 C182.862048,10.3374947 182.836704,10.39733 182.809321,10.4510951 C182.750185,10.5464847 182.700372,10.6479447 182.627545,10.7346625 C182.494999,10.9185044 182.327497,11.0693935 182.154752,11.1991813 C181.803143,11.4541319 181.422403,11.5876774 181.059725,11.6755515 C180.695007,11.7608241 180.339612,11.7958003 179.99179,11.8085189 C179.296438,11.8316437 178.63109,11.7622694 177.977395,11.6651454 C176.672044,11.464538 175.417672,11.1332757 174.181944,10.7627013 C171.713982,10.0111464 169.326713,9.08008542 166.977897,8.10277494 C166.393242,7.85591804 165.808878,7.60935021 165.22568,7.36278238 C164.639859,7.10869899 164.090452,6.89074806 163.49298,6.68985164 C162.3126,6.28459009 161.116198,5.91835159 159.917757,5.58477681 C157.520875,4.92254128 155.105058,4.37448429 152.697689,4.09409649 C151.496043,3.96199625 150.291193,3.89146571 149.124796,3.99437093 C148.54218,4.04495636 147.971217,4.14468192 147.439871,4.31985203 C146.915516,4.5010924 146.424954,4.76008979 146.090241,5.14424999 C145.750576,5.52205088 145.568508,6.01345219 145.544912,6.54243125 C145.502673,7.0728556 145.631722,7.55876478 145.961774,7.92182363 C146.287165,8.28777308 146.78268,8.52364571 147.302665,8.67366764 C147.826437,8.82426768 148.383126,8.8971107 148.940107,8.93324315 C150.057856,8.99972686 151.18347,8.92370418 152.287236,8.79825232 C153.392167,8.67048798 154.479911,8.48606796 155.547263,8.2733201 C157.682259,7.84464472 159.737729,7.3061267 161.70464,6.72078102 C162.687805,6.42651835 163.649412,6.11982612 164.583054,5.79434502 C165.048564,5.63015917 165.512035,5.46423896 165.950454,5.27895176 C166.154078,5.18876517 166.394699,5.0705398 166.616093,4.98237662 C166.840982,4.88901037 167.065872,4.8008472 167.289888,4.7149965 C170.884337,3.37693964 174.320606,2.55890098 177.410801,2.17127207 C180.498375,1.78971341 183.264053,1.89984511 185.422353,2.5065812 C186.501941,2.80171104 187.41927,3.21882404 188.153657,3.67871785 C188.886005,4.14323662 189.44153,4.63579417 189.839748,5.07805535 C190.244083,5.51684781 190.491112,5.90274237 190.662984,6.15595857 C190.82029,6.41958092 190.901274,6.55543893 190.901274,6.55543893 C190.901274,6.55543893 190.818251,6.42073716 190.657449,6.15971635 C190.48179,5.90910168 190.229518,5.52725395 189.82023,5.09568798 C189.417351,4.66036423 188.857457,4.17850189 188.123361,3.72756892 C187.387226,3.28097185 186.471062,2.88004619 185.395844,2.60283804 C183.246574,2.03136723 180.500996,1.96083668 177.438767,2.38373087 C174.376246,2.81153907 170.965321,3.67582726 167.423307,5.05203998 C167.203078,5.14020316 166.982558,5.23010069 166.763786,5.32462318 C166.538313,5.41885661 166.34605,5.51800405 166.106595,5.62900293 C165.650698,5.82961029 165.189849,6.00131169 164.721134,6.17416933 C163.784288,6.51612683 162.822389,6.83785015 161.837768,7.14772204 C159.867652,7.76457521 157.808687,8.33575697 155.658252,8.79969762 C154.582743,9.03007811 153.483929,9.23270889 152.35948,9.37897304 C151.235031,9.5223466 150.083782,9.61889251 148.904276,9.56570554 C148.315251,9.53564334 147.717487,9.46829246 147.122054,9.30699721 C146.533903,9.14338948 145.918661,8.8835249 145.450237,8.37911591 C144.971618,7.88135529 144.782851,7.14078461 144.832082,6.5062988 C144.848395,5.86371932 145.07882,5.17691373 145.532386,4.66267671 C145.979835,4.14034602 146.586338,3.82064611 147.188763,3.60269518 C147.797888,3.39225979 148.423618,3.27692502 149.0476,3.21333191 C150.297893,3.08585662 151.546439,3.1439576 152.78712,3.26189392 C155.268482,3.51568824 157.726247,4.03801893 160.167699,4.67481721 C161.388571,4.99625148 162.603908,5.34890419 163.81604,5.74607207 C164.417883,5.9382967 165.046525,6.17705992 165.624189,6.41871374 C166.209135,6.65603167 166.794956,6.8933496 167.381067,7.13124564 C169.724931,8.06779873 172.099674,8.95376638 174.514326,9.65126718 C175.720632,9.9952481 176.940048,10.2958701 178.153637,10.4643918 C178.758392,10.5461957 179.365186,10.5973592 179.940811,10.5687423 C180.509153,10.5433051 181.070795,10.4256578 181.395312,10.1793791 C181.472508,10.1172312 181.543588,10.0547944 181.592819,9.97963888 C181.62428,9.94697515 181.63768,9.90130373 181.664772,9.86517128 L181.683707,9.82007798 C181.690698,9.80244535 181.69769,9.80475783 181.710216,9.75590675 C181.785082,9.52263566 181.810717,9.28300526 181.785665,9.0809526 C181.760321,8.87600935 181.687494,8.70083924 181.56427,8.53983304 C181.438425,8.38027215 181.259271,8.23458611 181.041081,8.1137592 C180.602954,7.86950384 180.043934,7.72381781 179.472388,7.63565463 C178.896472,7.55413983 178.29463,7.50239816 177.73561,7.53564001 C176.587274,7.60125654 175.411263,7.91141749 174.261471,8.27823411 C173.108765,8.64996475 171.970333,9.09251499 170.841224,9.55009632 C168.583878,10.470173 166.358868,11.449796 164.132983,12.3458807 C159.689663,14.1499016 155.212842,15.6275743 150.786417,16.3230517 C149.682068,16.5014014 148.582089,16.6251189 147.494345,16.7057666 C146.951639,16.746813 146.409515,16.7702269 145.862147,16.7881486 C145.596183,16.7919063 145.331384,16.7959532 145.06775,16.8 C144.801494,16.7982656 144.536404,16.7965313 144.272479,16.7947969 C142.161079,16.7566411 140.122214,16.5569009 138.182103,16.1831468 C136.244031,15.805635 134.396847,15.2610467 132.722992,14.4404065 C131.887812,14.0296529 131.09691,13.5477905 130.383789,12.9763197 C129.671541,12.4060051 129.040567,11.7379884 128.5468,10.9913475 C128.300354,10.6187496 128.088573,10.2270739 127.91641,9.82585918 C127.831057,9.62438464 127.755608,9.4214648 127.687733,9.21767779 L127.595389,8.91098556 C127.567714,8.8005648 127.540331,8.69043309 127.512948,8.58116857 C127.353894,7.81660594 127.263297,7.04915272 127.267667,6.29384 C127.271454,5.53939446 127.37079,4.79419882 127.583445,4.09322931 C127.795226,3.39254885 128.134017,2.74245383 128.558161,2.19410778 C128.981432,1.64373831 129.49326,1.20176619 130.024023,0.880910042 C130.554204,0.557452356 131.097202,0.346149793 131.608739,0.212026141 C132.121441,0.07761343 132.604721,0.0177780941 133.042265,0.00505947192 C133.480975,-0.0111278653 133.875989,0.012864081 134.22381,0.0579573776 C134.923532,0.14872209 135.419921,0.291806589 135.795126,0.414367857 C136.094299,0.521608966 136.248692,0.577108408 136.248692,0.577108408 L135.427204,2.74100853 Z" id="Fill-2" fill="#A4A4A4" transform="translate(159.084395, 8.400000) scale(1, -1) translate(-159.084395, -8.400000) "></path>
                <path d="M138.073248,13.2 C138.073248,14.5251333 136.998234,15.6 135.671702,15.6 C134.345715,15.6 133.270701,14.5251333 133.270701,13.2 C133.270701,11.8748667 134.345715,10.8 135.671702,10.8 C136.998234,10.8 138.073248,11.8748667 138.073248,13.2" id="Fill-3" fill="#A4A4A4" transform="translate(135.671975, 13.200000) scale(1, -1) translate(-135.671975, -13.200000) "></path>
                <path d="M252.035834,10.7907862 C252.035834,9.55146624 251.646607,8.40355011 250.983469,7.46136516 C250.938447,7.39723739 250.944546,7.30989595 250.998283,7.25273228 C251.052019,7.19498827 251.138869,7.18338143 251.205967,7.22429553 L255.87727,10.0653589 L377,10.0653589 L377,11.5162135 L255.87727,11.5162135 L251.173725,14.3770085 C251.109532,14.4158914 251.026749,14.4045747 250.975626,14.3497324 C250.924504,14.2948901 250.918695,14.2113209 250.962555,14.150385 C251.638183,13.2026868 252.035834,12.0431639 252.035834,10.7907862" id="Fill-4" fill="#A4A4A4" transform="translate(313.966561, 10.800000) scale(1, -1) translate(-313.966561, -10.800000) "></path>
                <path d="M240.751017,0.577078862 C240.751017,0.577078862 240.90541,0.521868379 241.204874,0.414627074 C241.580079,0.292065583 242.076468,0.148980823 242.775898,0.0579268855 C243.124011,0.0131225668 243.518734,-0.0111584833 243.957444,0.00502888345 C244.394988,0.0177475287 244.878268,0.0772939136 245.39097,0.21199593 C245.902798,0.346119826 246.445505,0.557422774 246.975686,0.881170108 C247.506449,1.20173778 248.018568,1.64371071 248.441547,2.19408118 C248.865692,2.74213916 249.204774,3.39223537 249.416555,4.09291711 C249.62921,4.7938879 249.728255,5.53908489 249.732333,6.29382086 C249.736703,7.04942402 249.646106,7.81658958 249.487052,8.58086454 C249.459669,8.69041832 249.431994,8.80026117 249.40432,8.91068213 L249.312267,9.21795304 C249.244101,9.42174043 249.168652,9.62466063 249.08359,9.82555741 C248.911427,10.2270619 248.699646,10.6184493 248.452908,10.9913369 C247.959433,11.7379792 247.328459,12.4059971 246.616211,12.9763127 C245.90309,13.5477846 245.11248,14.0296478 244.277008,14.4404022 C242.602861,15.2610439 240.755969,15.8059222 238.817897,16.1831457 C236.877494,16.5569004 234.838921,16.75693 232.727521,16.7947969 C232.463596,16.7965313 232.198506,16.7982656 231.93225,16.8 C231.668325,16.7959532 231.403817,16.7921954 231.137853,16.7881485 C230.590485,16.7705159 230.048653,16.7468129 229.505655,16.7057664 C228.417911,16.6254077 227.318223,16.5014009 226.213874,16.3233399 C221.786867,15.6275722 217.310337,14.1498968 212.867017,12.3458726 C210.641132,11.4500753 208.416122,10.4704505 206.158485,9.55008312 C205.029667,9.09250095 203.891235,8.65023896 202.738529,8.27850765 C201.588445,7.9114013 200.412435,7.60152885 199.26439,7.53562314 C198.70537,7.50238123 198.103528,7.55441205 197.527321,7.63563794 C196.956066,7.72409034 196.397046,7.86977664 195.958919,8.11374338 C195.740729,8.23457051 195.561575,8.38025681 195.43573,8.539818 C195.312506,8.70082449 195.239971,8.87599492 195.214627,9.08064948 C195.189283,9.28299157 195.214918,9.52262241 195.289784,9.75589393 C195.302019,9.80474509 195.309302,9.8024326 195.316293,9.82035433 L195.335228,9.86515865 C195.362029,9.90158023 195.375429,9.94696267 195.407181,9.97962646 C195.456412,10.0547821 195.527492,10.1172191 195.604397,10.1796561 C195.929205,10.4256462 196.490556,10.5435828 197.059189,10.568731 C197.634522,10.5973479 198.241317,10.5461843 198.846072,10.4643803 C200.059661,10.2958582 201.279076,9.99523571 202.485674,9.65154322 C204.900617,8.95375209 207.275069,8.06778282 209.618933,7.13151709 C210.205336,6.89362061 210.790573,6.65601319 211.37552,6.41869484 C211.953475,6.17704057 212.582117,5.93827692 213.183668,5.746341 C214.395801,5.34917239 215.611138,4.99622998 216.832301,4.67508419 C219.273462,4.03828474 221.731518,3.51566405 224.21288,3.26186926 C225.453269,3.14393273 226.701815,3.08612071 227.952109,3.21330716 C228.576382,3.27690039 229.20182,3.39223537 229.811237,3.6029602 C230.413662,3.82091153 231.020165,4.14032297 231.467614,4.66294366 C231.920889,5.17689256 232.151605,5.8636994 232.167918,6.50656911 C232.217149,7.14076702 232.028382,7.8816281 231.549471,8.37910057 C231.081339,8.88351048 230.466097,9.14366459 229.877946,9.30698356 C229.282513,9.46856817 228.684749,9.53563011 228.095724,9.56598143 C226.916218,9.61887943 225.764969,9.52233335 224.64052,9.37895953 C223.51578,9.23269511 222.416966,9.03006396 221.341748,8.79968305 C219.191022,8.33603061 217.132057,7.76455876 215.162232,7.14770446 C214.177611,6.83783201 213.215712,6.5161081 212.278866,6.17414997 C211.810151,6.00129202 211.349011,5.82930125 210.893405,5.62927165 C210.65395,5.51827256 210.461395,5.41883588 210.236214,5.32489134 C210.017442,5.23036868 209.796922,5.14018192 209.576693,5.05201859 C206.034679,3.67609241 202.623754,2.81151359 199.561233,2.38370461 C196.499295,1.96080966 193.753135,2.03134033 191.603864,2.60310125 C190.529229,2.8803099 189.612774,3.28094723 188.876639,3.72754511 C188.142834,4.1784789 187.582649,4.66034212 187.179479,5.09566666 C186.770191,5.52723342 186.51821,5.90908184 186.342551,6.15969697 C186.181749,6.42100732 186.098726,6.55570933 186.098726,6.55570933 C186.098726,6.55570933 186.17971,6.41956202 186.337016,6.15622825 C186.508888,5.90301158 186.755917,5.51682726 187.160252,5.078034 C187.558179,4.63577201 188.113995,4.14321357 188.846343,3.67869395 C189.58073,3.21908836 190.498059,2.80168555 191.577647,2.50684423 C193.735947,1.89981797 196.501917,1.78968607 199.589199,2.17153449 C202.679394,2.55887505 206.115663,3.37720425 209.709821,4.71468543 C209.934128,4.80053628 210.158726,4.88869962 210.383907,4.98206604 C210.605593,5.07022937 210.845922,5.18874402 211.049546,5.27921984 C211.487965,5.46421832 211.951436,5.63013883 212.416654,5.79432498 C213.350297,6.11980667 214.312195,6.42649946 215.29536,6.72076266 C217.262271,7.3061094 219.317741,7.84462841 221.452445,8.27330457 C222.520089,8.48605282 223.607542,8.67047317 224.712764,8.79823775 C225.81653,8.92368984 226.942144,9.00000171 228.059893,8.93322882 C228.617165,8.89709631 229.173563,8.82425316 229.697335,8.67394189 C230.21732,8.52363063 230.712835,8.28804663 231.038226,7.92180746 C231.368278,7.55874795 231.497327,7.07312695 231.455088,6.54270163 C231.431492,6.01372161 231.249424,5.52203034 230.909759,5.14451782 C230.574755,4.76035692 230.084775,4.50107 229.559838,4.3198293 C229.028783,4.14494793 228.457528,4.04493313 227.875204,3.99434761 C226.708515,3.89173126 225.503957,3.96197287 224.302311,4.09407335 C221.894942,4.37475072 219.479125,4.92251965 217.081952,5.58475639 C215.884093,5.91862083 214.687109,6.28457094 213.507312,6.68983323 C212.909548,6.89101907 212.360141,7.1089704 211.77432,7.36305425 C211.19083,7.60933347 210.606758,7.85619081 210.022103,8.1027591 C207.672995,9.08007136 205.286018,10.0114231 202.818056,10.7626903 C201.582328,11.1335545 200.327664,11.4645283 199.022605,11.665136 C198.36891,11.7622602 197.703562,11.8319237 197.007919,11.8085098 C196.660388,11.7960803 196.304993,11.7608149 195.940275,11.6758312 C195.577597,11.587957 195.196857,11.4541221 194.845248,11.1991711 C194.672211,11.0693831 194.504709,10.9184937 194.372455,10.7349406 C194.299628,10.6482225 194.249523,10.5464734 194.190679,10.4510835 C194.163296,10.3976074 194.137661,10.3377719 194.113191,10.280249 C194.090178,10.2256166 194.059882,10.1536407 194.053473,10.1253128 C193.935493,9.76138607 193.874901,9.36363934 193.918015,8.94103345 C193.959089,8.52045097 194.126883,8.09177481 194.385273,7.75241823 C194.643954,7.41219447 194.968472,7.15926686 195.297358,6.96993248 C195.961249,6.59386527 196.64524,6.42505416 197.31117,6.30914105 C197.978266,6.20681377 198.634291,6.13946276 199.328478,6.16807971 C200.690052,6.22964952 201.952872,6.55542027 203.170248,6.9219485 C204.387041,7.29541418 205.558973,7.73276214 206.711679,8.18109439 C209.01476,9.08180572 211.242975,10.025587 213.456333,10.8794706 C217.870814,12.5993783 222.23956,13.9643202 226.483626,14.569034 C227.542821,14.7242593 228.592404,14.8274537 229.626547,14.8890235 C230.144784,14.9208202 230.657486,14.9355622 231.156497,14.9448121 C231.414304,14.9451012 231.670947,14.9453903 231.926424,14.9456793 C232.179571,14.9401872 232.431261,14.9352732 232.682368,14.929781 C234.688606,14.8656097 236.623182,14.6465021 238.429001,14.2715911 C240.232197,13.8949458 241.916831,13.3627861 243.35764,12.6288625 C244.797284,11.900431 245.98116,10.9514466 246.677386,9.85157283 C246.852462,9.57812195 246.99899,9.29686645 247.11697,9.010986 C247.17494,8.86761218 247.225919,8.72337118 247.272237,8.57855206 L247.334286,8.36060072 L247.381478,8.16375078 C247.506157,7.51741235 247.567041,6.89824558 247.555097,6.32070345 C247.544027,5.74345039 247.459839,5.21013447 247.311272,4.7424352 C247.161831,4.27444686 246.940437,3.87930168 246.68263,3.55410904 C246.167597,2.89880975 245.473993,2.55714069 244.82525,2.39642326 C244.171846,2.23570583 243.560391,2.25709628 243.075363,2.32502541 C242.591209,2.39353266 242.205517,2.51204731 241.996358,2.58228892 C241.877796,2.62102297 241.750494,2.67478816 241.682911,2.69906921 C241.609793,2.72681898 241.572505,2.74098292 241.572505,2.74098292 L240.751017,0.577078862 Z" id="Fill-5" fill="#A4A4A4" transform="translate(217.915605, 8.400000) scale(1, -1) translate(-217.915605, -8.400000) "></path>
                <path d="M238.926752,13.2 C238.926752,14.5251333 240.001705,15.6 241.328162,15.6 C242.654346,15.6 243.729299,14.5251333 243.729299,13.2 C243.729299,11.8748667 242.654346,10.8 241.328162,10.8 C240.001705,10.8 238.926752,11.8748667 238.926752,13.2" id="Fill-6" fill="#A4A4A4" transform="translate(241.328025, 13.200000) scale(1, -1) translate(-241.328025, -13.200000) "></path>
            </g>
        </g>
    </g>
</svg>