<?xml version="1.0" encoding="UTF-8"?>
<svg width="100px" height="100px" viewBox="0 0 100 100" version="1.1" xmlns="http://www.w3.org/2000/svg" xmlns:xlink="http://www.w3.org/1999/xlink">
    <!-- Generator: Sketch 47.1 (45422) - http://www.bohemiancoding.com/sketch -->
    <title>Instagram-icon-black</title>
    <desc>Created with Sketch.</desc>
    <defs>
        <polygon id="path-1" points="0.000218818381 0.157986871 99.8420131 0.157986871 99.8420131 99.9868709 0.000218818381 99.9868709"></polygon>
    </defs>
    <g id="Logos" stroke="none" stroke-width="1" fill="none" fill-rule="evenodd">
        <g id="Instagram-icon-black">
            <g id="Group-3">
                <mask id="mask-2" fill="white">
                    <use xlink:href="#path-1"></use>
                </mask>
                <g id="Clip-2"></g>
                <path d="M49.9212254,0.157549234 C36.3634573,0.157549234 34.6634573,0.214660832 29.3389497,0.457986871 C24.0251641,0.700656455 20.3962801,1.54442013 17.2212254,2.77833698 C13.9382932,4.05404814 11.154267,5.76105033 8.37899344,8.53632385 C5.60371991,11.3115974 3.89671772,14.0958425 2.62122538,17.3785558 C1.38665208,20.5540481 0.542888403,24.1829322 0.300656455,29.4964989 C0.0575492341,34.8210066 0.000218818381,36.5207877 0.000218818381,50.0785558 C0.000218818381,63.6367615 0.0575492341,65.3365427 0.300656455,70.6610503 C0.542888403,75.9746171 1.38665208,79.6035011 2.62122538,82.7789934 C3.89671772,86.0617068 5.60371991,88.8459519 8.37899344,91.6212254 C11.154267,94.3964989 13.9382932,96.1035011 17.2212254,97.3792123 C20.3962801,98.6131291 24.0251641,99.4568928 29.3389497,99.6995624 C34.6634573,99.9424508 36.3634573,100 49.9212254,100 C63.4789934,100 65.1792123,99.9424508 70.5037199,99.6995624 C75.8172867,99.4568928 79.4461707,98.6131291 82.6214442,97.3792123 C85.9043764,96.1035011 88.6881838,94.3964989 91.4634573,91.6212254 C94.2387309,88.8459519 95.945733,86.0617068 97.2214442,82.7789934 C98.4557987,79.6035011 99.2995624,75.9746171 99.5420131,70.6610503 C99.7851204,65.3365427 99.8422319,63.6367615 99.8422319,50.0785558 C99.8422319,36.5207877 99.7851204,34.8210066 99.5420131,29.4964989 C99.2995624,24.1829322 98.4557987,20.5540481 97.2214442,17.3785558 C95.945733,14.0958425 94.2387309,11.3115974 91.4634573,8.53632385 C88.6881838,5.76105033 85.9043764,4.05404814 82.6214442,2.77833698 C79.4461707,1.54442013 75.8172867,0.700656455 70.5037199,0.457986871 C65.1792123,0.214660832 63.4789934,0.157549234 49.9212254,0.157549234 M49.9212254,9.15229759 C63.2507659,9.15229759 64.8293217,9.20306346 70.0936543,9.44310722 C74.9608315,9.66520788 77.6041575,10.4787746 79.3632385,11.1621444 C81.6936543,12.0678337 83.356674,13.1496718 85.1032823,14.8964989 C86.850547,16.6435449 87.9323851,18.3063457 88.8376368,20.6365427 C89.5210066,22.3956236 90.3345733,25.0391685 90.556674,29.9061269 C90.7967177,35.1704595 90.8477024,36.7490153 90.8477024,50.0785558 C90.8477024,63.4085339 90.7967177,64.9870897 90.556674,70.2509847 C90.3345733,75.1183807 89.5210066,77.7619256 88.8376368,79.5210066 C87.9323851,81.8509847 86.850547,83.5140044 85.1032823,85.2610503 C83.356674,87.0078775 81.6936543,88.0897155 79.3632385,88.995186 C77.6041575,89.6787746 74.9608315,90.4923414 70.0936543,90.7140044 C64.8301969,90.9544858 63.25186,91.0050328 49.9212254,91.0050328 C36.5905908,91.0050328 35.0122538,90.9544858 29.7487965,90.7140044 C24.8818381,90.4923414 22.2382932,89.6787746 20.4792123,88.995186 C18.1490153,88.0897155 16.4859956,87.0078775 14.7391685,85.2610503 C12.9925602,83.5140044 11.9107221,81.8509847 11.0050328,79.5210066 C10.3214442,77.7619256 9.50809628,75.1183807 9.28577681,70.2509847 C9.04595186,64.9870897 8.99496718,63.4085339 8.99496718,50.0785558 C8.99496718,36.7490153 9.04595186,35.1704595 9.28577681,29.9061269 C9.50809628,25.0391685 10.3214442,22.3956236 11.0050328,20.6365427 C11.9107221,18.3063457 12.9925602,16.6435449 14.7391685,14.8964989 C16.4859956,13.1496718 18.1490153,12.0678337 20.4792123,11.1621444 C22.2382932,10.4787746 24.8818381,9.66520788 29.7487965,9.44310722 C35.0131291,9.20306346 36.5916849,9.15229759 49.9212254,9.15229759" id="Fill-1" fill="#A4A4A4" mask="url(#mask-2)"></path>
            </g>
            <path d="M49.9212254,66.7190372 C40.7310722,66.7190372 33.280744,59.2689278 33.280744,50.0785558 C33.280744,40.8884026 40.7310722,33.4382932 49.9212254,33.4382932 C59.1115974,33.4382932 66.5617068,40.8884026 66.5617068,50.0785558 C66.5617068,59.2689278 59.1115974,66.7190372 49.9212254,66.7190372 M49.9212254,24.4435449 C35.7634573,24.4435449 24.2862144,35.9210066 24.2862144,50.0785558 C24.2862144,64.2367615 35.7634573,75.7137856 49.9212254,75.7137856 C64.0789934,75.7137856 75.5562363,64.2367615 75.5562363,50.0785558 C75.5562363,35.9210066 64.0789934,24.4435449 49.9212254,24.4435449" id="Fill-4" fill="#A4A4A4"></path>
            <path d="M82.5599562,23.4306346 C82.5599562,26.7389497 79.8778993,29.4212254 76.5693654,29.4212254 C73.2610503,29.4212254 70.5787746,26.7389497 70.5787746,23.4306346 C70.5787746,20.1221007 73.2610503,17.4400438 76.5693654,17.4400438 C79.8778993,17.4400438 82.5599562,20.1221007 82.5599562,23.4306346" id="Fill-5" fill="#A4A4A4"></path>
        </g>
    </g>
</svg>