<?xml version="1.0" encoding="UTF-8"?>
<svg width="271px" height="87px" viewBox="0 0 271 87" version="1.1" xmlns="http://www.w3.org/2000/svg" xmlns:xlink="http://www.w3.org/1999/xlink">
    <!-- Generator: Sketch 43.2 (39069) - http://www.bohemiancoding.com/sketch -->
    <title>Group 8 Copy</title>
    <desc>Created with Sketch.</desc>
    <defs></defs>
    <g id="Home-(working)" stroke="none" stroke-width="1" fill="none" fill-rule="evenodd">
        <g id="Artboard" transform="translate(-365.000000, -3115.000000)">
            <g id="Group-19" transform="translate(0.000000, 3031.000000)">
                <g id="Group-8-Copy" transform="translate(365.000000, 84.000000)">
                    <g id="Group-7" transform="translate(7.767516, 19.811881)">
                        <g id="Group-2" fill="#FDCE1E">
                            <polygon id="Path" points="35.9313662 1.1499991e-14 35.9313662 1.81037087 8.98284154 1.81037087 8.98284154 1.1499991e-14 35.9313662 0"></polygon>
                            <path d="M17.0673989,22.6296358 L11.8902621,22.6296358 C9.68522505,22.6296358 7.82913153,21.906315 6.52204932,20.538873 C5.15549855,19.1073418 4.43472323,17.0435693 4.49490705,14.7288594 C4.58881016,11.2740933 6.58213096,7.24148347 11.8902621,7.24148347 L17.0673989,7.24148347 L17.0673989,22.6296358 Z M11.9009631,9.11726136 C7.90982559,9.11726136 6.40778459,12.0480601 6.3333978,14.7891969 C6.28731478,16.5964047 6.82314491,18.1806033 7.84330664,19.2481294 C8.81043712,20.2614663 10.1759661,20.7754294 11.9009631,20.7754294 L15.2493906,20.7754294 L15.2493906,9.11726136 L11.9009631,9.11726136 Z" id="Combined-Shape"></path>
                            <path d="M21.1096776,26.7029703 L11.7079041,26.7029703 C8.24580716,26.7029703 5.3142185,25.598601 3.23048815,23.5088041 C1.12193,21.3945285 -0.0542068167,18.2802844 0.00192095755,14.9646659 C0.101232104,9.31812408 3.75919268,3.62074174 11.7079041,3.62074174 L11.7079041,5.49294951 C4.59230286,5.49294951 1.97795814,10.6127792 1.90082223,14.9962582 C1.85307649,17.8133048 2.83048491,20.4380779 4.58413303,22.1959468 C6.32759539,23.9448192 8.72496223,24.8307625 11.7079041,24.8307625 L19.2107764,24.8307625 L19.2107764,5.49294951 L13.0440422,5.49294951 L13.0440422,3.62074174 L21.1096776,3.62074174 L21.1096776,26.7029703 Z" id="Path"></path>
                            <path d="M32.1262011,22.6296358 L26.9485246,22.6296358 L26.9485246,7.24148347 L32.1262011,7.24148347 C37.4337384,7.24148347 39.4271173,11.2740933 39.5211157,14.7269836 C39.5803755,17.0435693 38.8603683,19.1073418 37.4932026,20.538873 C36.1871358,21.906315 34.3310764,22.6296358 32.1262011,22.6296358 Z M28.7876235,20.7754294 L32.1366227,20.7754294 C33.8612888,20.7754294 35.2261045,20.2614663 36.1939814,19.2481294 C37.2140682,18.1806033 37.7498591,16.5964047 37.7037794,14.7883632 C37.6292959,12.0480601 36.1274673,9.11726136 32.1366227,9.11726136 L28.7876235,9.11726136 L28.7876235,20.7754294 Z" id="Combined-Shape"></path>
                            <path d="M32.3079606,26.7029703 L22.9062459,26.7029703 L22.9062459,3.62074174 L30.9717096,3.62074174 L30.9717096,5.49294951 L24.8051567,5.49294951 L24.8051567,24.8307625 L32.3079606,24.8307625 C35.2908113,24.8307625 37.6874474,23.9448192 39.4308124,22.1967837 C41.1844694,20.4380779 42.1637925,17.8142463 42.1150916,14.9962582 C42.0378492,10.6127792 39.4225365,5.49294951 32.3079606,5.49294951 L32.3079606,3.62074174 C40.255863,3.62074174 43.913842,9.31812408 44.0140024,14.9637244 C44.0701305,18.2812259 42.8940939,21.3953654 40.7855251,23.5097456 C38.7008294,25.598601 35.7700749,26.7029703 32.3079606,26.7029703 Z" id="Path"></path>
                        </g>
                        <g id="TRUNK-and-DRAWER" transform="translate(51.783439, 4.306931)" fill="#FDCE1E">
                            <path d="M187.434098,20.1924937 L187.434098,0 L192.273255,0 C193.38429,0 194.340211,0.089212935 195.13875,0.263300182 C195.93814,0.436845101 196.630906,0.730786808 197.220736,1.13970202 C197.810566,1.54861724 198.253222,2.10558796 198.545585,2.80817372 C198.837947,3.51103065 198.985405,4.36872218 198.985405,5.38395995 C198.985405,6.6505667 198.788606,7.68478595 198.393306,8.48851586 C197.997156,9.29224576 197.345791,9.8776887 196.436376,10.2415907 L199.366242,20.1924937 L195.507677,20.1924937 L192.985871,10.9726487 L191.280753,10.9726487 L191.280753,20.1924937 L187.434098,20.1924937 Z M191.280753,8.62247084 L192.209451,8.62247084 C193.347709,8.62247084 194.156173,8.39225266 194.634843,7.92937582 C195.114363,7.46622782 195.355399,6.67442912 195.355399,5.55316625 C195.355399,4.47447611 195.146123,3.70138773 194.731257,3.23362994 C194.315824,2.76831262 193.551597,2.53348466 192.438294,2.53348466 L191.280753,2.53348466 L191.280753,8.62247084 Z" id="Combined-Shape"></path>
                            <polygon id="Path" points="175.999126 20.1924937 175.999126 0 184.39102 0 184.39102 2.59449654 179.651463 2.59449654 179.651463 8.39225266 183.398844 8.39225266 183.398844 10.986478 179.651463 10.986478 179.651463 17.6470778 184.451062 17.6470778 184.451062 20.1924937"></polygon>
                            <polygon id="Path" points="159.112207 20.1924937 156.112219 0 159.327417 0 161.046001 13.0196652 163.2874 0 165.855558 0 168.142872 13.0313253 169.864273 0 173.01609 0 170.01554 20.1924937 166.968792 20.1924937 164.602887 6.71184975 162.249376 20.1924937"></polygon>
                            <path d="M141.694212,20.1924937 L146.102089,0 L150.224769,0 L154.620701,20.1924937 L150.944606,20.1924937 L150.068333,15.503798 L146.311835,15.503798 L145.423035,20.1924937 L141.694212,20.1924937 Z M146.730745,13.1042684 L149.636896,13.1042684 L148.182655,4.81044823 L146.730745,13.1042684 Z" id="Combined-Shape"></path>
                            <path d="M127.773377,20.1924937 L127.773377,0 L132.61225,0 C133.723286,0 134.679207,0.089212935 135.478313,0.263300182 C136.277135,0.436845101 136.969902,0.730786808 137.559732,1.13970202 C138.149561,1.54861724 138.592217,2.10558796 138.88458,2.80817372 C139.176943,3.51103065 139.3244,4.36872218 139.3244,5.38395995 C139.3244,6.6505667 139.127885,7.68478595 138.732302,8.48851586 C138.336435,9.29224576 137.68507,9.8776887 136.775655,10.2415907 L139.705521,20.1924937 L135.846673,20.1924937 L133.32515,10.9726487 L131.619748,10.9726487 L131.619748,20.1924937 L127.773377,20.1924937 Z M131.619748,8.62247084 L132.548447,8.62247084 C133.686705,8.62247084 134.495452,8.39225266 134.973838,7.92937582 C135.453642,7.46622782 135.694395,6.67442912 135.694395,5.55316625 C135.694395,4.47447611 135.485686,3.70138773 135.070253,3.23362994 C134.65482,2.76831262 133.890593,2.53348466 132.776722,2.53348466 L131.619748,2.53348466 L131.619748,8.62247084 Z" id="Combined-Shape"></path>
                            <path d="M112.858197,20.1924937 L112.858197,0 L117.702605,0 C118.956886,0 120.008268,0.122023771 120.853678,0.366342478 C121.699367,0.610932348 122.375136,0.996527465 122.886015,1.52285667 C123.396894,2.05135518 123.758254,2.69781 123.971214,3.4662886 C124.186689,4.23232672 124.293168,5.17733303 124.293168,6.29805358 L124.293168,13.5790764 C124.293168,14.732879 124.184453,15.710425 123.966183,16.5141549 C123.748473,17.3181559 123.389628,17.9995909 122.893002,18.5611714 C122.39414,19.1208538 121.730948,19.5319383 120.902306,19.7974078 C120.073665,20.0604368 119.058894,20.1924937 117.852683,20.1924937 L112.858197,20.1924937 Z M116.648428,17.6118265 L117.72664,17.6118265 C118.104768,17.6118265 118.433989,17.5787445 118.719891,17.5131228 C119.003278,17.4475011 119.243067,17.3718464 119.434507,17.2826335 C119.627903,17.1934205 119.788322,17.045365 119.918836,16.8433479 C120.047115,16.6410596 120.146328,16.453143 120.211725,16.2842079 C120.279638,16.1122899 120.330781,15.85604 120.364598,15.5105771 C120.396458,15.1653855 120.417698,14.8717149 120.427479,14.627125 C120.434466,14.3828063 120.439497,14.023243 120.439497,13.543554 L120.439497,6.1640986 C120.439497,5.68495192 120.429715,5.2993568 120.412667,5.00568626 C120.396458,4.71418503 120.357611,4.42051449 120.29417,4.12440347 C120.231568,3.82585197 120.139341,3.5978031 120.01805,3.43591823 C119.896758,3.27349104 119.736898,3.12543553 119.535956,2.99175171 C119.334735,2.85779672 119.082929,2.76343167 118.782773,2.70947005 C118.480382,2.6579489 118.116227,2.63191716 117.690587,2.63191716 L116.648428,2.63191716 L116.648428,17.6118265 Z" id="Combined-Shape"></path>
                            <path d="M101.388704,16.8270781 C100.514234,16.8270781 99.8875536,16.5061685 99.507816,15.8695564 C99.1261006,15.2332183 98.937362,14.1740251 98.937362,12.694169 L98.937362,10.8750423 C98.937362,10.3307842 98.9568575,9.85366763 98.9961309,9.44506293 C99.0376647,9.03426587 99.1111259,8.64922925 99.2187747,8.28830881 C99.3292489,7.92738837 99.471368,7.63525383 99.6476747,7.40697234 C99.8262418,7.17923894 100.053971,7.00110812 100.333124,6.87011346 C100.614819,6.74185927 100.945112,6.67553979 101.327392,6.67553979 C101.996453,6.68047265 102.594032,6.96794838 103.120409,7.53303415 L103.120409,2.88464195 L104.406261,2.88464195 L104.406261,16.6675825 L103.120409,16.6675825 L103.120409,15.9695837 C102.606181,16.5349435 102.028381,16.8199528 101.388704,16.8270781 Z M101.645818,15.8366707 C102.143093,15.8366707 102.633022,15.6204473 103.120409,15.1880005 L103.120409,8.35490233 C102.606181,7.88929578 102.102407,7.65662953 101.61163,7.65662953 C101.067453,7.65662953 100.700712,7.87723769 100.50943,8.31708379 C100.318431,8.75857417 100.222932,9.47822267 100.222932,10.4757552 L100.222932,12.7936483 C100.222932,13.8698324 100.318431,14.6440164 100.514234,15.121681 C100.707776,15.5990716 101.084688,15.8366707 101.645818,15.8366707 Z" id="Combined-Shape"></path>
                            <path d="M91.4797719,16.3463044 L91.4797719,6.87482202 L92.8092394,6.87482202 L92.8092394,7.86034143 C93.5839588,7.10794997 94.4244066,6.73083122 95.3358411,6.73083122 C95.8549499,6.73083122 96.2551631,6.90699578 96.5309305,7.25431424 C96.8096191,7.60426989 96.9486713,8.10217212 96.9486713,8.74696606 L96.9486713,16.3463044 L95.6194959,16.3463044 L95.6194959,9.0030376 C95.6194959,8.52280457 95.5385769,8.18234282 95.3738176,7.97901516 C95.2116874,7.77542378 94.9610429,7.67494669 94.6169179,7.67494669 C94.0446422,7.67494669 93.4422774,7.96503803 92.8092394,8.54812163 L92.8092394,16.3463044 L91.4797719,16.3463044 Z" id="Path"></path>
                            <path d="M86.0621748,16.8270781 C85.4695906,16.8270781 84.979868,16.6144853 84.5978108,16.1936607 C84.2132104,15.7709283 84.0221818,15.2489859 84.0221818,14.6278335 C84.0221818,14.301858 84.0512882,14.011042 84.1078056,13.7537503 C84.1665836,13.4983665 84.2717058,13.2579732 84.4310847,13.030935 C84.5876377,12.8041695 84.7591678,12.6057496 84.9453924,12.4307694 C85.1290737,12.2585148 85.3938574,12.0742677 85.7363524,11.8780283 C86.07913,11.6820614 86.4221902,11.5024478 86.7652504,11.3372796 C87.108028,11.1718389 87.5562104,10.968513 88.1120584,10.7324805 L88.1120584,10.0309245 C88.1120584,9.13094864 88.0241739,8.51170418 87.8452966,8.17428135 C87.6689625,7.83413299 87.3380535,7.66623924 86.8508742,7.66623924 C85.9155124,7.66623924 85.4450056,8.22388633 85.4450056,9.34354137 L85.4450056,9.70031559 L84.1761915,9.65779704 C84.1761915,9.49698972 84.1787348,9.39777978 84.1863646,9.36016722 C84.2253616,8.43893205 84.4751682,7.77280816 84.9306979,7.35443657 C85.3887708,6.93879052 86.0522843,6.73083122 86.9192601,6.73083122 C87.8181683,6.73083122 88.4551186,6.98839549 88.8320891,7.50079849 C89.2093423,8.01347403 89.3978276,8.83331882 89.3978276,9.96496628 L89.3978276,14.7267709 C89.3978276,15.5136366 89.4297599,16.1609542 89.4910812,16.6684512 L88.352257,16.6684512 L88.1637717,15.3130362 C88.0091968,15.7428551 87.747239,16.1018098 87.3798764,16.3923532 C87.0099704,16.6804436 86.5716785,16.8270781 86.0621748,16.8270781 Z M86.4835115,15.7592084 C86.8262891,15.7592084 87.1425036,15.6458256 87.4313071,15.4166071 C87.71785,15.187661 87.9456148,14.9161965 88.1120584,14.6016683 L88.1120584,11.5520528 C88.0778654,11.5684061 88.0241739,11.5945713 87.9481581,11.6346369 C87.6689625,11.7766379 87.4533489,11.8875677 87.3064038,11.9655184 C87.1569155,12.0412886 86.9783207,12.1380456 86.7700544,12.2538813 C86.561788,12.3694446 86.405235,12.4662015 86.3023735,12.5441522 C86.1995119,12.6199224 86.0819559,12.7142264 85.9471621,12.8254287 C85.8123682,12.9341781 85.7171365,13.0380215 85.6555326,13.1347784 C85.5967546,13.2318079 85.5334552,13.3424652 85.4721339,13.4702933 C85.4082693,13.595396 85.3667291,13.7300381 85.342144,13.8695861 C85.3201023,14.011042 85.3079511,14.1669434 85.3079511,14.3372901 C85.3079511,14.8164414 85.4207031,15.1734882 85.6433814,15.4070676 C85.8660597,15.6433726 86.1455379,15.7592084 86.4835115,15.7592084 Z" id="Combined-Shape"></path>
                            <polygon id="Path" points="68.1126563 20.1924937 68.1126563 0 71.9097566 0 71.9097566 8.76835704 76.0100314 0 79.62993 0 75.6438705 9.03626701 80.0448004 20.1924937 76.2600175 20.1924937 72.6644736 10.6928075 71.9097566 12.0090372 71.9097566 20.1924937"></polygon>
                            <polygon id="Path" points="50.7116127 20.1924937 50.7116127 0 53.3449587 0 58.4837035 11.4355255 58.4837035 0 61.6494115 0 61.6494115 20.1924937 59.1409127 20.1924937 53.9531309 8.17342336 53.9531309 20.1924937"></polygon>
                            <path d="M38.7917256,20.6732673 C37.8456485,20.6732673 37.0229976,20.5660141 36.3289037,20.3520562 C35.6319593,20.1383727 35.0612915,19.8388317 34.6140499,19.4537075 C34.1645279,19.0663889 33.8062215,18.5718171 33.5371354,17.9680718 C33.2677643,17.3640523 33.0799171,16.7128524 32.9738789,16.0089859 C32.8675557,15.3078624 32.8133964,14.4920794 32.8133964,13.5649287 L32.8133964,0 L36.5657793,0 L36.5657793,13.945664 C36.5657793,14.4232289 36.5783214,14.8297488 36.6028356,15.1649495 C36.6302003,15.5026189 36.6846447,15.8567466 36.7710144,16.2251382 C36.8551039,16.5962728 36.9759646,16.8908763 37.1341667,17.1122404 C37.2920837,17.3330559 37.509576,17.5187603 37.7889238,17.6660621 C38.0654212,17.8158326 38.3989283,17.8896206 38.7917256,17.8896206 C39.184808,17.8896206 39.5205955,17.8158326 39.7973779,17.6660621 C40.0738753,17.5187603 40.2890871,17.3330559 40.4370275,17.1122404 C40.5878183,16.8908763 40.7063986,16.5962728 40.7953339,16.2251382 C40.8868346,15.8567466 40.9409938,15.5048133 40.9632276,15.1720814 C40.9831811,14.8393495 40.9954382,14.4303608 40.9954382,13.945664 L40.9954382,0 L44.7455406,0 L44.7455406,13.5649287 C44.7455406,14.4920794 44.6910963,15.3078624 44.5850581,16.0089859 C44.4787349,16.7128524 44.2911728,17.3640523 44.0218016,17.9680718 C43.7524305,18.5718171 43.3966895,19.0663889 42.9545788,19.4537075 C42.5099026,19.8388317 41.9392348,20.1383727 41.2451409,20.3520562 C40.5481965,20.5660141 39.7306765,20.6732673 38.7917256,20.6732673 Z" id="Path"></path>
                            <path d="M15.4123529,20.1924937 L15.4123529,0 L20.2516247,0 C21.3626863,0 22.3186304,0.089212935 23.1174718,0.263300182 C23.9160296,0.436845101 24.6093797,0.730786808 25.19894,1.13970202 C25.7890675,1.54861724 26.2314503,2.10558796 26.5238201,2.80817372 C26.8164734,3.51103065 26.9636507,4.36872218 26.9636507,5.38395995 C26.9636507,6.6505667 26.7671306,7.68478595 26.3715383,8.48851586 C25.9756623,9.29224576 25.3245654,9.8776887 24.4151283,10.2415907 L27.344497,20.1924937 L23.4861242,20.1924937 L20.9642582,10.9726487 L19.2588154,10.9726487 L19.2588154,20.1924937 L15.4123529,20.1924937 Z M19.2588154,8.62247084 L20.1878195,8.62247084 C21.3255375,8.62247084 22.1343042,8.39225266 22.6135523,7.92937582 C23.0928004,7.46622782 23.3335588,6.67442912 23.3335588,5.55316625 C23.3335588,4.47447611 23.1248448,3.70138773 22.7094019,3.23362994 C22.293959,2.76831262 21.5297142,2.53348466 20.416384,2.53348466 L19.2588154,2.53348466 L19.2588154,8.62247084 Z" id="Combined-Shape"></path>
                            <polygon id="Path" points="3.58033177 20.1924937 3.58033177 2.71652031 0 2.71652031 0 0 10.9377988 0 10.9377988 2.71652031 7.47164749 2.71652031 7.47164749 20.1924937"></polygon>
                        </g>
                        <text id="where-a-gentleman-st" font-family="SnellRoundhand-Black, Snell Roundhand" font-size="14.8893113" font-weight="700" fill-opacity="0.641106205" fill="#3E3202">
                            <tspan x="2.81037849" y="44.1485149">where a gentleman stores his valuables</tspan>
                        </text>
                    </g>
                    <g id="Page-1" transform="translate(0.000000, 74.940594)" fill="#A4A4A4">
                        <path d="M89.82843,4.30031683 C89.82843,3.41070596 90.1082219,2.58670676 90.5849121,1.91038588 C90.6172761,1.86435357 90.6128913,1.80165798 90.5742633,1.76062466 C90.5356353,1.71917475 90.4732041,1.71084311 90.4249714,1.74021214 L87.0670514,3.77958932 L0,3.77958932 L0,4.82104433 L87.0670514,4.82104433 L90.4481481,6.8745853 C90.4942929,6.9024963 90.5538009,6.89437295 90.5905497,6.85500595 C90.6272985,6.81563895 90.6312657,6.75565114 90.5999457,6.71191003 C90.1142771,6.03163162 89.82843,5.19930078 89.82843,4.30031683" id="Fill-1"></path>
                        <path d="M97.3495283,1.96755563 C97.3495283,1.96755563 97.3229343,1.95738846 97.2703745,1.93726161 C97.2217933,1.92003967 97.1300753,1.88144592 97.0448488,1.85364182 C96.8944983,1.80322095 96.6172504,1.71814871 96.2690152,1.66897281 C95.9207801,1.62000439 95.4812458,1.60485739 95.0113483,1.72022365 C94.54522,1.83558991 94.0466344,2.08084695 93.6762027,2.5512342 C93.4910915,2.78466414 93.3317368,3.06830744 93.2245231,3.40444654 C93.1175188,3.73996316 93.0570017,4.12278825 93.0490444,4.53715232 C93.0404589,4.95193137 93.0842239,5.39617447 93.1738479,5.86012943 L93.2079803,6.00122485 L93.2525829,6.15788227 C93.2856684,6.26162891 93.3225231,6.36516805 93.3641941,6.46808472 C93.4490018,6.67350306 93.5541214,6.87539401 93.6801813,7.07168265 C94.1804421,7.86098706 95.0316603,8.54239497 96.0663143,9.06527801 C97.1020154,9.59210343 98.3131952,9.97409855 99.6093921,10.2444623 C100.907474,10.5135811 102.297901,10.6706535 103.740261,10.7169245 C103.920556,10.7208668 104.101688,10.7243942 104.283449,10.7283366 C104.467304,10.7281291 104.651786,10.7279216 104.836898,10.7277141 C105.195812,10.7210743 105.564359,10.7104922 105.936885,10.6874604 C106.680261,10.6434718 107.434736,10.5693967 108.195911,10.4579729 C111.246895,10.0238969 114.387293,9.04390621 117.560567,7.80932123 C119.151602,7.1963861 120.753316,6.51912806 122.408637,5.87237153 C123.23724,5.55075696 124.079872,5.23681963 124.954543,4.96873833 C125.829424,4.70542936 126.73739,4.47158444 127.716134,4.42738838 C128.215138,4.40705404 128.686711,4.45519248 129.166241,4.52885259 C129.644933,4.61205739 130.136609,4.73323346 130.613835,5.00318221 C130.85025,5.13888281 131.083523,5.32064692 131.269472,5.5648665 C131.455212,5.8084636 131.575827,6.11638362 131.605143,6.41787134 C131.636344,6.721434 131.592789,7.00694475 131.507981,7.26817878 C131.503374,7.28851312 131.481596,7.34017894 131.465053,7.37939517 C131.447254,7.42047884 131.429036,7.46342995 131.409353,7.50202369 C131.366844,7.57049647 131.331036,7.64332661 131.278686,7.7055746 C131.183408,7.83754032 131.063002,7.94585181 130.938827,8.03901629 C130.686079,8.22202535 130.412391,8.31788724 130.151686,8.3809652 C129.889515,8.44217571 129.634044,8.4672824 129.384019,8.4764121 C128.884177,8.49301157 128.405903,8.44321318 127.936006,8.37349544 C126.997676,8.22949511 126.095992,7.99170782 125.20771,7.72570144 C123.433658,7.18621893 121.717611,6.5178831 120.029205,5.81634835 C119.608935,5.63914909 119.188875,5.46215733 118.769653,5.28516557 C118.348546,5.10277898 117.953614,4.94632905 117.524131,4.80212123 C116.675635,4.51121566 115.815622,4.24832168 114.954144,4.00887445 C113.231186,3.53350736 111.494617,3.14010011 109.764121,2.93883164 C108.900339,2.84400721 108.034253,2.79337885 107.195808,2.86724646 C106.777005,2.90355778 106.366577,2.97514296 105.984629,3.10088388 C105.607705,3.23098217 105.255073,3.41689614 105.01447,3.6926547 C104.770308,3.96384841 104.639432,4.31658697 104.62247,4.69629966 C104.592107,5.07704981 104.684872,5.42584601 104.922124,5.68645756 C105.156026,5.94914404 105.512218,6.11845855 105.886,6.22614756 C106.262505,6.33425156 106.662672,6.38653986 107.063048,6.41247652 C107.866522,6.46019997 108.675651,6.40562924 109.469074,6.31557716 C110.263335,6.22386513 111.045241,6.09148443 111.812489,5.93876938 C113.347194,5.63105685 114.824733,5.24449689 116.238614,4.82432301 C116.945345,4.61309486 117.63658,4.39294449 118.307713,4.15930707 C118.642337,4.04145089 118.975495,3.92234975 119.290645,3.78934656 C119.437016,3.72460866 119.609982,3.63974391 119.769128,3.57645847 C119.930786,3.50943814 120.092444,3.44615269 120.253474,3.38452719 C122.837282,2.42404083 125.307385,1.83683487 127.528719,1.55858639 C129.748168,1.28469527 131.736229,1.3637502 133.287686,1.79927858 C134.063729,2.01112921 134.723135,2.31054201 135.251037,2.6406638 C135.777473,2.97410549 136.176802,3.32767403 136.463055,3.64513874 C136.753704,3.96011353 136.931277,4.23711705 137.054824,4.41888115 C137.167901,4.60811502 137.226115,4.70563686 137.226115,4.70563686 C137.226115,4.70563686 137.166435,4.60894499 137.050845,4.42157857 C136.924576,4.2416819 136.743234,3.96758328 136.449025,3.65779583 C136.159422,3.34531096 135.756952,2.99941967 135.229259,2.67573017 C134.700101,2.35515306 134.041533,2.06735989 133.268631,1.86837384 C131.723665,1.45815964 129.750053,1.40753128 127.548822,1.71109394 C125.347381,2.01818399 122.895496,2.63858887 120.34938,3.62646434 C120.191072,3.68974979 120.032555,3.7542802 119.875294,3.8221305 C119.713217,3.88977331 119.575012,3.9609435 119.402884,4.04062092 C119.07517,4.18462125 118.743897,4.30787225 118.406969,4.43195323 C117.733533,4.67741777 117.042089,4.90835778 116.334311,5.13079057 C114.918126,5.57358122 113.438075,5.98358792 111.892271,6.31661463 C111.11916,6.48198677 110.329296,6.62743955 109.521006,6.73243115 C108.712715,6.83534781 107.885159,6.90465056 107.037291,6.8664718 C106.613881,6.8448925 106.184189,6.79654657 105.756171,6.68076532 C105.333389,6.56332413 104.891133,6.37678768 104.554415,6.01471191 C104.210368,5.6574085 104.074675,5.12581073 104.110064,4.670363 C104.121791,4.20910545 104.287427,3.71610144 104.613466,3.34697091 C104.935107,2.97203056 105.371081,2.742543 105.804124,2.58609307 C106.241983,2.43503797 106.691778,2.35224815 107.140317,2.30659963 C108.039069,2.2150951 108.936565,2.25680125 109.828407,2.3414585 C111.612092,2.5236376 113.378814,2.89857794 115.13381,3.35568562 C116.011413,3.58641814 116.885037,3.83955994 117.756358,4.12465569 C118.188982,4.26263872 118.640871,4.43402816 119.056115,4.60749254 C119.476593,4.77784452 119.8977,4.94819649 120.319017,5.11896346 C122.003863,5.79124166 123.710906,6.42720854 125.446638,6.92788981 C126.31377,7.1748068 127.190326,7.39059981 128.062694,7.51156839 C128.497412,7.57028898 128.933596,7.60701529 129.347373,7.58647346 C129.755916,7.56821405 130.159643,7.48376429 130.392916,7.30698002 C130.448408,7.26236896 130.499502,7.21755042 130.534891,7.16360217 C130.557506,7.14015543 130.567139,7.10737149 130.586613,7.08143483 L130.600224,7.04906588 C130.60525,7.03640879 130.610275,7.03806874 130.61928,7.00300237 C130.673096,6.8355553 130.691523,6.66354338 130.673515,6.51850558 C130.655297,6.37139285 130.602946,6.24565193 130.514369,6.13007817 C130.423908,6.01554189 130.295126,5.91096528 130.138284,5.82423309 C129.823344,5.64890127 129.421502,5.54432467 129.010655,5.48103922 C128.596668,5.42252611 128.164044,5.38538482 127.762202,5.40924654 C126.93674,5.45634752 126.091386,5.6789878 125.264877,5.94229676 C124.436274,6.20913311 123.617932,6.52680531 122.806291,6.85526716 C121.183637,7.51571825 119.584226,8.21891295 117.984187,8.8621421 C114.790182,10.1571076 111.572096,11.2178132 108.390236,11.717042 C107.596394,11.8450654 106.805693,11.9338725 106.023787,11.9917631 C105.633671,12.0212272 105.243975,12.0380341 104.850509,12.0508987 C104.659325,12.0535961 104.468979,12.056501 104.27947,12.0594059 C104.088077,12.058161 103.897521,12.056916 103.707803,12.0556711 C102.190059,12.0282819 100.724456,11.8849041 99.3298408,11.6166153 C97.9366909,11.3456291 96.6088743,10.9547118 95.4056518,10.3656384 C94.805297,10.0707904 94.2367712,9.72489913 93.7241557,9.31468493 C93.2121684,8.9053007 92.7586042,8.42578375 92.4036682,7.88982862 C92.2265143,7.62236979 92.0742792,7.34121641 91.9505228,7.05321575 C91.8891681,6.90859293 91.834933,6.76293266 91.7861424,6.6166499 L91.719762,6.39649954 C91.6998689,6.31723711 91.6801851,6.23818217 91.6605013,6.15974971 C91.546168,5.61093001 91.481044,5.06003537 91.4841851,4.51785544 C91.4869073,3.976298 91.5583133,3.44138034 91.7111766,2.93820916 C91.8634116,2.43524546 92.1069459,1.96859309 92.4118349,1.57497835 C92.7160956,1.17991116 93.0840145,0.862653949 93.4655445,0.632336416 C93.8466557,0.400151444 94.2369806,0.248473861 94.6046901,0.152196983 C94.9732372,0.0557126106 95.3206347,0.0127615032 95.6351561,0.00363179915 C95.9505152,-0.00798782413 96.234464,0.00923411752 96.4844897,0.0416030681 C96.9874727,0.106755956 97.3442933,0.209465126 97.6140027,0.297442274 C97.8290584,0.374422278 97.9400413,0.414260986 97.9400413,0.414260986 L97.3495283,1.96755563 Z" id="Fill-2"></path>
                        <path d="M99.2515924,2.58415842 C99.2515924,3.53536798 98.4788368,4.30693069 97.5252818,4.30693069 C96.5721187,4.30693069 95.7993631,3.53536798 95.7993631,2.58415842 C95.7993631,1.63294885 96.5721187,0.861386139 97.5252818,0.861386139 C98.4788368,0.861386139 99.2515924,1.63294885 99.2515924,2.58415842" id="Fill-3"></path>
                        <path d="M181.171647,4.30031683 C181.171647,3.41070596 180.891858,2.58670676 180.415173,1.91038588 C180.382809,1.86435357 180.387194,1.80165798 180.425821,1.76062466 C180.464449,1.71917475 180.52688,1.71084311 180.575112,1.74021214 L183.932998,3.77958932 L271,3.77958932 L271,4.82104433 L183.932998,4.82104433 L180.551935,6.8745853 C180.505791,6.9024963 180.446284,6.89437295 180.409535,6.85500595 C180.372787,6.81563895 180.368611,6.75565114 180.400139,6.71191003 C180.885803,6.03163162 181.171647,5.19930078 181.171647,4.30031683" id="Fill-4"></path>
                        <path d="M173.059749,0.414239777 C173.059749,0.414239777 173.170732,0.37460849 173.385997,0.297628345 C173.655707,0.209651037 174.012527,0.10694168 174.515301,0.0415811802 C174.765536,0.0094196643 175.049275,-0.00800980237 175.364634,0.00360984208 C175.679156,0.0127395627 176.026553,0.0554832548 176.395101,0.152175296 C176.763019,0.24845235 177.153135,0.400130209 177.534246,0.632523098 C177.915776,0.862633556 178.283904,1.17989135 178.587956,1.57495926 C178.892845,1.96836722 179.136588,2.43502044 179.288823,2.93798505 C179.441687,3.44115715 179.512883,3.97607579 179.515815,4.51784171 C179.518956,5.06023011 179.453832,5.61091826 179.339499,6.15953147 C179.319815,6.23817157 179.299922,6.31701915 179.280029,6.39628173 L179.213858,6.61684748 C179.164858,6.7631305 179.110623,6.90879105 179.049477,7.05299913 C178.925721,7.34120782 178.773486,7.62215422 178.596122,7.88982103 C178.241396,8.42577713 177.787832,8.90529495 177.275844,9.31467993 C176.763229,9.72489488 176.194912,10.0707868 175.594348,10.3656353 C174.390916,10.9547097 173.063309,11.3458353 171.670159,11.6166145 C170.275334,11.8849038 168.809941,12.0284894 167.292197,12.0556711 C167.102479,12.056916 166.911923,12.058161 166.72053,12.0594059 C166.530812,12.056501 166.340675,12.0538036 166.149491,12.0508987 C165.756025,12.0382416 165.366538,12.0212271 164.976213,11.991763 C164.194307,11.9340798 163.403815,11.845065 162.609973,11.7172489 C159.427695,11.2178117 156.209818,10.1571042 153.015813,8.86213628 C151.415774,8.21911345 149.816363,7.51591747 148.1935,6.85525768 C147.382068,6.52679524 146.563726,6.20932995 145.735123,5.94249312 C144.908405,5.67897618 144.06305,5.45654298 143.237798,5.40923443 C142.835956,5.38537266 142.403332,5.42272152 141.989135,5.48102724 C141.578498,5.54452029 141.176656,5.64909709 140.861716,5.82422173 C140.704874,5.91095408 140.576092,6.01553088 140.485631,6.13006738 C140.397054,6.24564134 140.344913,6.37138249 140.326695,6.518288 C140.308477,6.66353355 140.326904,6.83554579 140.38072,7.00299316 C140.389515,7.03805959 140.39475,7.03639964 140.399776,7.04926425 L140.413387,7.08142576 C140.432652,7.10756996 140.442284,7.14014647 140.465109,7.16359325 C140.500498,7.2175416 140.551592,7.26236023 140.606874,7.30717886 C140.840357,7.48375595 141.243874,7.56841336 141.652627,7.58646531 C142.066195,7.60700718 142.502379,7.57028081 142.937097,7.5115601 C143.809465,7.3905913 144.68602,7.17479791 145.553362,6.92808796 C147.289303,6.42719828 148.996137,5.79123024 150.680983,5.11915831 C151.102509,4.94839103 151.523197,4.77783125 151.943676,4.60747897 C152.359129,4.43401427 152.811018,4.26262452 153.243433,4.12484873 C154.114753,3.83975246 154.988378,3.58640271 155.86619,3.35587726 C157.620976,2.89876875 159.387908,2.52362023 161.171593,2.34144081 C162.063225,2.2567834 162.960721,2.21528467 163.859474,2.30658187 C164.308222,2.35223048 164.757807,2.43502044 165.195876,2.58628331 C165.628919,2.74273353 166.064893,2.97201401 166.386534,3.34716253 C166.712363,3.71608624 166.878209,4.20909116 166.889936,4.67055704 C166.925325,5.12579811 166.789632,5.65760433 166.445376,6.01470091 C166.108867,6.37677733 165.666611,6.56352161 165.243829,6.68075552 C164.815811,6.79674448 164.386119,6.844883 163.962709,6.86666984 C163.114841,6.90464117 162.287285,6.83533829 161.478994,6.73242144 C160.670494,6.62742966 159.880631,6.48197661 159.107729,6.31660417 C157.561716,5.98378435 156.081664,5.5735694 154.665689,5.13077795 C153.957911,4.90834476 153.266467,4.67740433 152.593031,4.43193934 C152.256103,4.30785813 151.92462,4.18439941 151.597116,4.04081381 C151.424988,3.96113624 151.286573,3.88975843 151.124706,3.82232299 C150.967445,3.75447257 150.808928,3.68973455 150.65062,3.62644898 C148.104504,2.63877921 145.652619,2.0181657 143.451178,1.71107509 C141.250156,1.40751188 139.276126,1.45814033 137.73116,1.86856278 C136.958677,2.06754919 136.299899,2.35513539 135.770741,2.67571308 C135.243257,2.99940317 134.840578,3.34529509 134.550766,3.65778053 C134.256556,3.96756855 134.075424,4.24166766 133.949155,4.42156465 C133.833565,4.60913892 133.773885,4.70583096 133.773885,4.70583096 C133.773885,4.70583096 133.832099,4.60810145 133.945176,4.41907473 C134.068723,4.23731029 134.246296,3.96009878 134.536945,3.64512341 C134.822988,3.32765813 135.222527,2.97408895 135.748963,2.64064665 C136.276865,2.31073175 136.936271,2.01111091 137.712314,1.79946739 C139.263771,1.36373072 141.252041,1.28467564 143.471281,1.55877475 C145.692615,1.83681625 148.162718,2.42423077 150.746317,3.38430389 C150.907556,3.44592951 151.069005,3.50921507 151.230872,3.57623552 C151.390227,3.63952108 151.562984,3.72459348 151.709355,3.78953899 C152.024505,3.92233493 152.357663,4.04143629 152.692078,4.15929268 C153.36321,4.39293053 154.054655,4.61308129 154.761386,4.82430983 C156.175267,5.24448447 157.652806,5.63104515 159.187302,5.93875823 C159.954759,6.09147356 160.736456,6.22385451 161.530926,6.3155667 C162.324349,6.40561894 163.133478,6.46039727 163.936952,6.41246623 C164.337538,6.38652953 164.737495,6.33424113 165.114,6.22634443 C165.487782,6.11844773 165.843974,5.94934041 166.077876,5.68644595 C166.315128,5.42583392 166.407893,5.07724459 166.37753,4.69649374 C166.360568,4.31678036 166.229692,3.96383366 165.98553,3.69284695 C165.744718,3.41708789 165.392504,3.23096609 165.015162,3.10086757 C164.633423,2.97533391 164.222786,2.90354111 163.804192,2.86722972 C162.965538,2.79356947 162.099661,2.84399043 161.235879,2.93881503 C159.505383,3.14029136 157.768814,3.53349183 156.045647,4.00885978 C155.184587,4.24851495 154.324155,4.51120191 153.476078,4.80210801 C153.046386,4.94652359 152.651454,5.1029738 152.230347,5.28536072 C151.810915,5.46214531 151.391065,5.63934489 150.970795,5.81633698 C149.28218,6.51787301 147.566342,7.18641755 145.79229,7.72569355 C144.904008,7.9919079 144.002114,8.22948813 143.063994,8.37348873 C142.594097,8.44320659 142.115823,8.49321256 141.615772,8.47640558 C141.365956,8.46748335 141.110485,8.44216913 140.848314,8.38116599 C140.587609,8.31808792 140.313921,8.22201836 140.061173,8.03900896 C139.936789,7.94584431 139.816383,7.83753263 139.721314,7.70577416 C139.668964,7.64352606 139.632947,7.5704883 139.590647,7.50201539 C139.570964,7.46362907 139.552536,7.42067788 139.534947,7.37938665 C139.518404,7.34017035 139.496626,7.28850443 139.492019,7.26817005 C139.407211,7.00693554 139.363656,6.72142428 139.394647,6.41806856 C139.424173,6.1161653 139.544788,5.80845222 139.730528,5.56485467 C139.916477,5.32063464 140.14975,5.1390777 140.386165,5.00316936 C140.863391,4.73322012 141.355067,4.61204383 141.833759,4.52883887 C142.313289,4.45538612 142.784862,4.4070401 143.283866,4.42758197 C144.26261,4.47177812 145.170367,4.70562346 146.045457,4.96872541 C146.920128,5.23680721 147.762551,5.5507451 148.591154,5.87256775 C150.246684,6.51911797 151.848398,7.19658474 153.439433,7.80952099 C156.612707,9.04410821 159.753105,10.0238932 162.803879,10.4579699 C163.565264,10.569394 164.319739,10.6434693 165.063115,10.6876654 C165.435641,10.7104897 165.804188,10.7210719 166.162893,10.7277117 C166.348214,10.7279192 166.532696,10.7281267 166.716342,10.7283342 C166.898312,10.7243918 167.079235,10.7208644 167.259739,10.716922 C168.701889,10.6708584 170.092526,10.5135782 171.390608,10.244459 C172.686805,9.97409475 173.897775,9.59209894 174.933476,9.06527256 C175.96834,8.54238856 176.819348,7.8611869 177.319819,7.07167356 C177.445669,6.87538457 177.550998,6.67349325 177.635806,6.46828203 C177.677477,6.36536518 177.714122,6.26182584 177.747417,6.15787152 L177.79202,6.00142131 L177.825943,5.86011814 C177.915567,5.39616233 177.959332,4.95171093 177.950746,4.53713862 C177.942789,4.1227738 177.882272,3.73994801 177.775477,3.40422328 C177.668054,3.06829106 177.508908,2.78464724 177.323588,2.55121689 C176.953366,2.08082878 176.45478,1.83557128 175.988442,1.72020482 C175.518754,1.60483835 175.07922,1.62019288 174.730566,1.66895388 C174.38254,1.71812988 174.105292,1.80320228 173.954942,1.85362323 C173.869715,1.88142738 173.778207,1.9200212 173.729626,1.93745067 C173.677066,1.95737006 173.650262,1.96753725 173.650262,1.96753725 L173.059749,0.414239777 Z" id="Fill-5"></path>
                        <path d="M171.748408,2.58415842 C171.748408,3.53536798 172.521119,4.30693069 173.47462,4.30693069 C174.427925,4.30693069 175.200637,3.53536798 175.200637,2.58415842 C175.200637,1.63294885 174.427925,0.861386139 173.47462,0.861386139 C172.521119,0.861386139 171.748408,1.63294885 171.748408,2.58415842" id="Fill-6"></path>
                    </g>
                    <g id="Page-1-Copy" transform="translate(135.500000, 6.029703) scale(1, -1) translate(-135.500000, -6.029703) " fill="#A4A4A4">
                        <path d="M89.82843,4.30031683 C89.82843,3.41070596 90.1082219,2.58670676 90.5849121,1.91038588 C90.6172761,1.86435357 90.6128913,1.80165798 90.5742633,1.76062466 C90.5356353,1.71917475 90.4732041,1.71084311 90.4249714,1.74021214 L87.0670514,3.77958932 L0,3.77958932 L0,4.82104433 L87.0670514,4.82104433 L90.4481481,6.8745853 C90.4942929,6.9024963 90.5538009,6.89437295 90.5905497,6.85500595 C90.6272985,6.81563895 90.6312657,6.75565114 90.5999457,6.71191003 C90.1142771,6.03163162 89.82843,5.19930078 89.82843,4.30031683" id="Fill-1"></path>
                        <path d="M97.3495283,1.96755563 C97.3495283,1.96755563 97.3229343,1.95738846 97.2703745,1.93726161 C97.2217933,1.92003967 97.1300753,1.88144592 97.0448488,1.85364182 C96.8944983,1.80322095 96.6172504,1.71814871 96.2690152,1.66897281 C95.9207801,1.62000439 95.4812458,1.60485739 95.0113483,1.72022365 C94.54522,1.83558991 94.0466344,2.08084695 93.6762027,2.5512342 C93.4910915,2.78466414 93.3317368,3.06830744 93.2245231,3.40444654 C93.1175188,3.73996316 93.0570017,4.12278825 93.0490444,4.53715232 C93.0404589,4.95193137 93.0842239,5.39617447 93.1738479,5.86012943 L93.2079803,6.00122485 L93.2525829,6.15788227 C93.2856684,6.26162891 93.3225231,6.36516805 93.3641941,6.46808472 C93.4490018,6.67350306 93.5541214,6.87539401 93.6801813,7.07168265 C94.1804421,7.86098706 95.0316603,8.54239497 96.0663143,9.06527801 C97.1020154,9.59210343 98.3131952,9.97409855 99.6093921,10.2444623 C100.907474,10.5135811 102.297901,10.6706535 103.740261,10.7169245 C103.920556,10.7208668 104.101688,10.7243942 104.283449,10.7283366 C104.467304,10.7281291 104.651786,10.7279216 104.836898,10.7277141 C105.195812,10.7210743 105.564359,10.7104922 105.936885,10.6874604 C106.680261,10.6434718 107.434736,10.5693967 108.195911,10.4579729 C111.246895,10.0238969 114.387293,9.04390621 117.560567,7.80932123 C119.151602,7.1963861 120.753316,6.51912806 122.408637,5.87237153 C123.23724,5.55075696 124.079872,5.23681963 124.954543,4.96873833 C125.829424,4.70542936 126.73739,4.47158444 127.716134,4.42738838 C128.215138,4.40705404 128.686711,4.45519248 129.166241,4.52885259 C129.644933,4.61205739 130.136609,4.73323346 130.613835,5.00318221 C130.85025,5.13888281 131.083523,5.32064692 131.269472,5.5648665 C131.455212,5.8084636 131.575827,6.11638362 131.605143,6.41787134 C131.636344,6.721434 131.592789,7.00694475 131.507981,7.26817878 C131.503374,7.28851312 131.481596,7.34017894 131.465053,7.37939517 C131.447254,7.42047884 131.429036,7.46342995 131.409353,7.50202369 C131.366844,7.57049647 131.331036,7.64332661 131.278686,7.7055746 C131.183408,7.83754032 131.063002,7.94585181 130.938827,8.03901629 C130.686079,8.22202535 130.412391,8.31788724 130.151686,8.3809652 C129.889515,8.44217571 129.634044,8.4672824 129.384019,8.4764121 C128.884177,8.49301157 128.405903,8.44321318 127.936006,8.37349544 C126.997676,8.22949511 126.095992,7.99170782 125.20771,7.72570144 C123.433658,7.18621893 121.717611,6.5178831 120.029205,5.81634835 C119.608935,5.63914909 119.188875,5.46215733 118.769653,5.28516557 C118.348546,5.10277898 117.953614,4.94632905 117.524131,4.80212123 C116.675635,4.51121566 115.815622,4.24832168 114.954144,4.00887445 C113.231186,3.53350736 111.494617,3.14010011 109.764121,2.93883164 C108.900339,2.84400721 108.034253,2.79337885 107.195808,2.86724646 C106.777005,2.90355778 106.366577,2.97514296 105.984629,3.10088388 C105.607705,3.23098217 105.255073,3.41689614 105.01447,3.6926547 C104.770308,3.96384841 104.639432,4.31658697 104.62247,4.69629966 C104.592107,5.07704981 104.684872,5.42584601 104.922124,5.68645756 C105.156026,5.94914404 105.512218,6.11845855 105.886,6.22614756 C106.262505,6.33425156 106.662672,6.38653986 107.063048,6.41247652 C107.866522,6.46019997 108.675651,6.40562924 109.469074,6.31557716 C110.263335,6.22386513 111.045241,6.09148443 111.812489,5.93876938 C113.347194,5.63105685 114.824733,5.24449689 116.238614,4.82432301 C116.945345,4.61309486 117.63658,4.39294449 118.307713,4.15930707 C118.642337,4.04145089 118.975495,3.92234975 119.290645,3.78934656 C119.437016,3.72460866 119.609982,3.63974391 119.769128,3.57645847 C119.930786,3.50943814 120.092444,3.44615269 120.253474,3.38452719 C122.837282,2.42404083 125.307385,1.83683487 127.528719,1.55858639 C129.748168,1.28469527 131.736229,1.3637502 133.287686,1.79927858 C134.063729,2.01112921 134.723135,2.31054201 135.251037,2.6406638 C135.777473,2.97410549 136.176802,3.32767403 136.463055,3.64513874 C136.753704,3.96011353 136.931277,4.23711705 137.054824,4.41888115 C137.167901,4.60811502 137.226115,4.70563686 137.226115,4.70563686 C137.226115,4.70563686 137.166435,4.60894499 137.050845,4.42157857 C136.924576,4.2416819 136.743234,3.96758328 136.449025,3.65779583 C136.159422,3.34531096 135.756952,2.99941967 135.229259,2.67573017 C134.700101,2.35515306 134.041533,2.06735989 133.268631,1.86837384 C131.723665,1.45815964 129.750053,1.40753128 127.548822,1.71109394 C125.347381,2.01818399 122.895496,2.63858887 120.34938,3.62646434 C120.191072,3.68974979 120.032555,3.7542802 119.875294,3.8221305 C119.713217,3.88977331 119.575012,3.9609435 119.402884,4.04062092 C119.07517,4.18462125 118.743897,4.30787225 118.406969,4.43195323 C117.733533,4.67741777 117.042089,4.90835778 116.334311,5.13079057 C114.918126,5.57358122 113.438075,5.98358792 111.892271,6.31661463 C111.11916,6.48198677 110.329296,6.62743955 109.521006,6.73243115 C108.712715,6.83534781 107.885159,6.90465056 107.037291,6.8664718 C106.613881,6.8448925 106.184189,6.79654657 105.756171,6.68076532 C105.333389,6.56332413 104.891133,6.37678768 104.554415,6.01471191 C104.210368,5.6574085 104.074675,5.12581073 104.110064,4.670363 C104.121791,4.20910545 104.287427,3.71610144 104.613466,3.34697091 C104.935107,2.97203056 105.371081,2.742543 105.804124,2.58609307 C106.241983,2.43503797 106.691778,2.35224815 107.140317,2.30659963 C108.039069,2.2150951 108.936565,2.25680125 109.828407,2.3414585 C111.612092,2.5236376 113.378814,2.89857794 115.13381,3.35568562 C116.011413,3.58641814 116.885037,3.83955994 117.756358,4.12465569 C118.188982,4.26263872 118.640871,4.43402816 119.056115,4.60749254 C119.476593,4.77784452 119.8977,4.94819649 120.319017,5.11896346 C122.003863,5.79124166 123.710906,6.42720854 125.446638,6.92788981 C126.31377,7.1748068 127.190326,7.39059981 128.062694,7.51156839 C128.497412,7.57028898 128.933596,7.60701529 129.347373,7.58647346 C129.755916,7.56821405 130.159643,7.48376429 130.392916,7.30698002 C130.448408,7.26236896 130.499502,7.21755042 130.534891,7.16360217 C130.557506,7.14015543 130.567139,7.10737149 130.586613,7.08143483 L130.600224,7.04906588 C130.60525,7.03640879 130.610275,7.03806874 130.61928,7.00300237 C130.673096,6.8355553 130.691523,6.66354338 130.673515,6.51850558 C130.655297,6.37139285 130.602946,6.24565193 130.514369,6.13007817 C130.423908,6.01554189 130.295126,5.91096528 130.138284,5.82423309 C129.823344,5.64890127 129.421502,5.54432467 129.010655,5.48103922 C128.596668,5.42252611 128.164044,5.38538482 127.762202,5.40924654 C126.93674,5.45634752 126.091386,5.6789878 125.264877,5.94229676 C124.436274,6.20913311 123.617932,6.52680531 122.806291,6.85526716 C121.183637,7.51571825 119.584226,8.21891295 117.984187,8.8621421 C114.790182,10.1571076 111.572096,11.2178132 108.390236,11.717042 C107.596394,11.8450654 106.805693,11.9338725 106.023787,11.9917631 C105.633671,12.0212272 105.243975,12.0380341 104.850509,12.0508987 C104.659325,12.0535961 104.468979,12.056501 104.27947,12.0594059 C104.088077,12.058161 103.897521,12.056916 103.707803,12.0556711 C102.190059,12.0282819 100.724456,11.8849041 99.3298408,11.6166153 C97.9366909,11.3456291 96.6088743,10.9547118 95.4056518,10.3656384 C94.805297,10.0707904 94.2367712,9.72489913 93.7241557,9.31468493 C93.2121684,8.9053007 92.7586042,8.42578375 92.4036682,7.88982862 C92.2265143,7.62236979 92.0742792,7.34121641 91.9505228,7.05321575 C91.8891681,6.90859293 91.834933,6.76293266 91.7861424,6.6166499 L91.719762,6.39649954 C91.6998689,6.31723711 91.6801851,6.23818217 91.6605013,6.15974971 C91.546168,5.61093001 91.481044,5.06003537 91.4841851,4.51785544 C91.4869073,3.976298 91.5583133,3.44138034 91.7111766,2.93820916 C91.8634116,2.43524546 92.1069459,1.96859309 92.4118349,1.57497835 C92.7160956,1.17991116 93.0840145,0.862653949 93.4655445,0.632336416 C93.8466557,0.400151444 94.2369806,0.248473861 94.6046901,0.152196983 C94.9732372,0.0557126106 95.3206347,0.0127615032 95.6351561,0.00363179915 C95.9505152,-0.00798782413 96.234464,0.00923411752 96.4844897,0.0416030681 C96.9874727,0.106755956 97.3442933,0.209465126 97.6140027,0.297442274 C97.8290584,0.374422278 97.9400413,0.414260986 97.9400413,0.414260986 L97.3495283,1.96755563 Z" id="Fill-2"></path>
                        <path d="M99.2515924,2.58415842 C99.2515924,3.53536798 98.4788368,4.30693069 97.5252818,4.30693069 C96.5721187,4.30693069 95.7993631,3.53536798 95.7993631,2.58415842 C95.7993631,1.63294885 96.5721187,0.861386139 97.5252818,0.861386139 C98.4788368,0.861386139 99.2515924,1.63294885 99.2515924,2.58415842" id="Fill-3"></path>
                        <path d="M181.171647,4.30031683 C181.171647,3.41070596 180.891858,2.58670676 180.415173,1.91038588 C180.382809,1.86435357 180.387194,1.80165798 180.425821,1.76062466 C180.464449,1.71917475 180.52688,1.71084311 180.575112,1.74021214 L183.932998,3.77958932 L271,3.77958932 L271,4.82104433 L183.932998,4.82104433 L180.551935,6.8745853 C180.505791,6.9024963 180.446284,6.89437295 180.409535,6.85500595 C180.372787,6.81563895 180.368611,6.75565114 180.400139,6.71191003 C180.885803,6.03163162 181.171647,5.19930078 181.171647,4.30031683" id="Fill-4"></path>
                        <path d="M173.059749,0.414239777 C173.059749,0.414239777 173.170732,0.37460849 173.385997,0.297628345 C173.655707,0.209651037 174.012527,0.10694168 174.515301,0.0415811802 C174.765536,0.0094196643 175.049275,-0.00800980237 175.364634,0.00360984208 C175.679156,0.0127395627 176.026553,0.0554832548 176.395101,0.152175296 C176.763019,0.24845235 177.153135,0.400130209 177.534246,0.632523098 C177.915776,0.862633556 178.283904,1.17989135 178.587956,1.57495926 C178.892845,1.96836722 179.136588,2.43502044 179.288823,2.93798505 C179.441687,3.44115715 179.512883,3.97607579 179.515815,4.51784171 C179.518956,5.06023011 179.453832,5.61091826 179.339499,6.15953147 C179.319815,6.23817157 179.299922,6.31701915 179.280029,6.39628173 L179.213858,6.61684748 C179.164858,6.7631305 179.110623,6.90879105 179.049477,7.05299913 C178.925721,7.34120782 178.773486,7.62215422 178.596122,7.88982103 C178.241396,8.42577713 177.787832,8.90529495 177.275844,9.31467993 C176.763229,9.72489488 176.194912,10.0707868 175.594348,10.3656353 C174.390916,10.9547097 173.063309,11.3458353 171.670159,11.6166145 C170.275334,11.8849038 168.809941,12.0284894 167.292197,12.0556711 C167.102479,12.056916 166.911923,12.058161 166.72053,12.0594059 C166.530812,12.056501 166.340675,12.0538036 166.149491,12.0508987 C165.756025,12.0382416 165.366538,12.0212271 164.976213,11.991763 C164.194307,11.9340798 163.403815,11.845065 162.609973,11.7172489 C159.427695,11.2178117 156.209818,10.1571042 153.015813,8.86213628 C151.415774,8.21911345 149.816363,7.51591747 148.1935,6.85525768 C147.382068,6.52679524 146.563726,6.20932995 145.735123,5.94249312 C144.908405,5.67897618 144.06305,5.45654298 143.237798,5.40923443 C142.835956,5.38537266 142.403332,5.42272152 141.989135,5.48102724 C141.578498,5.54452029 141.176656,5.64909709 140.861716,5.82422173 C140.704874,5.91095408 140.576092,6.01553088 140.485631,6.13006738 C140.397054,6.24564134 140.344913,6.37138249 140.326695,6.518288 C140.308477,6.66353355 140.326904,6.83554579 140.38072,7.00299316 C140.389515,7.03805959 140.39475,7.03639964 140.399776,7.04926425 L140.413387,7.08142576 C140.432652,7.10756996 140.442284,7.14014647 140.465109,7.16359325 C140.500498,7.2175416 140.551592,7.26236023 140.606874,7.30717886 C140.840357,7.48375595 141.243874,7.56841336 141.652627,7.58646531 C142.066195,7.60700718 142.502379,7.57028081 142.937097,7.5115601 C143.809465,7.3905913 144.68602,7.17479791 145.553362,6.92808796 C147.289303,6.42719828 148.996137,5.79123024 150.680983,5.11915831 C151.102509,4.94839103 151.523197,4.77783125 151.943676,4.60747897 C152.359129,4.43401427 152.811018,4.26262452 153.243433,4.12484873 C154.114753,3.83975246 154.988378,3.58640271 155.86619,3.35587726 C157.620976,2.89876875 159.387908,2.52362023 161.171593,2.34144081 C162.063225,2.2567834 162.960721,2.21528467 163.859474,2.30658187 C164.308222,2.35223048 164.757807,2.43502044 165.195876,2.58628331 C165.628919,2.74273353 166.064893,2.97201401 166.386534,3.34716253 C166.712363,3.71608624 166.878209,4.20909116 166.889936,4.67055704 C166.925325,5.12579811 166.789632,5.65760433 166.445376,6.01470091 C166.108867,6.37677733 165.666611,6.56352161 165.243829,6.68075552 C164.815811,6.79674448 164.386119,6.844883 163.962709,6.86666984 C163.114841,6.90464117 162.287285,6.83533829 161.478994,6.73242144 C160.670494,6.62742966 159.880631,6.48197661 159.107729,6.31660417 C157.561716,5.98378435 156.081664,5.5735694 154.665689,5.13077795 C153.957911,4.90834476 153.266467,4.67740433 152.593031,4.43193934 C152.256103,4.30785813 151.92462,4.18439941 151.597116,4.04081381 C151.424988,3.96113624 151.286573,3.88975843 151.124706,3.82232299 C150.967445,3.75447257 150.808928,3.68973455 150.65062,3.62644898 C148.104504,2.63877921 145.652619,2.0181657 143.451178,1.71107509 C141.250156,1.40751188 139.276126,1.45814033 137.73116,1.86856278 C136.958677,2.06754919 136.299899,2.35513539 135.770741,2.67571308 C135.243257,2.99940317 134.840578,3.34529509 134.550766,3.65778053 C134.256556,3.96756855 134.075424,4.24166766 133.949155,4.42156465 C133.833565,4.60913892 133.773885,4.70583096 133.773885,4.70583096 C133.773885,4.70583096 133.832099,4.60810145 133.945176,4.41907473 C134.068723,4.23731029 134.246296,3.96009878 134.536945,3.64512341 C134.822988,3.32765813 135.222527,2.97408895 135.748963,2.64064665 C136.276865,2.31073175 136.936271,2.01111091 137.712314,1.79946739 C139.263771,1.36373072 141.252041,1.28467564 143.471281,1.55877475 C145.692615,1.83681625 148.162718,2.42423077 150.746317,3.38430389 C150.907556,3.44592951 151.069005,3.50921507 151.230872,3.57623552 C151.390227,3.63952108 151.562984,3.72459348 151.709355,3.78953899 C152.024505,3.92233493 152.357663,4.04143629 152.692078,4.15929268 C153.36321,4.39293053 154.054655,4.61308129 154.761386,4.82430983 C156.175267,5.24448447 157.652806,5.63104515 159.187302,5.93875823 C159.954759,6.09147356 160.736456,6.22385451 161.530926,6.3155667 C162.324349,6.40561894 163.133478,6.46039727 163.936952,6.41246623 C164.337538,6.38652953 164.737495,6.33424113 165.114,6.22634443 C165.487782,6.11844773 165.843974,5.94934041 166.077876,5.68644595 C166.315128,5.42583392 166.407893,5.07724459 166.37753,4.69649374 C166.360568,4.31678036 166.229692,3.96383366 165.98553,3.69284695 C165.744718,3.41708789 165.392504,3.23096609 165.015162,3.10086757 C164.633423,2.97533391 164.222786,2.90354111 163.804192,2.86722972 C162.965538,2.79356947 162.099661,2.84399043 161.235879,2.93881503 C159.505383,3.14029136 157.768814,3.53349183 156.045647,4.00885978 C155.184587,4.24851495 154.324155,4.51120191 153.476078,4.80210801 C153.046386,4.94652359 152.651454,5.1029738 152.230347,5.28536072 C151.810915,5.46214531 151.391065,5.63934489 150.970795,5.81633698 C149.28218,6.51787301 147.566342,7.18641755 145.79229,7.72569355 C144.904008,7.9919079 144.002114,8.22948813 143.063994,8.37348873 C142.594097,8.44320659 142.115823,8.49321256 141.615772,8.47640558 C141.365956,8.46748335 141.110485,8.44216913 140.848314,8.38116599 C140.587609,8.31808792 140.313921,8.22201836 140.061173,8.03900896 C139.936789,7.94584431 139.816383,7.83753263 139.721314,7.70577416 C139.668964,7.64352606 139.632947,7.5704883 139.590647,7.50201539 C139.570964,7.46362907 139.552536,7.42067788 139.534947,7.37938665 C139.518404,7.34017035 139.496626,7.28850443 139.492019,7.26817005 C139.407211,7.00693554 139.363656,6.72142428 139.394647,6.41806856 C139.424173,6.1161653 139.544788,5.80845222 139.730528,5.56485467 C139.916477,5.32063464 140.14975,5.1390777 140.386165,5.00316936 C140.863391,4.73322012 141.355067,4.61204383 141.833759,4.52883887 C142.313289,4.45538612 142.784862,4.4070401 143.283866,4.42758197 C144.26261,4.47177812 145.170367,4.70562346 146.045457,4.96872541 C146.920128,5.23680721 147.762551,5.5507451 148.591154,5.87256775 C150.246684,6.51911797 151.848398,7.19658474 153.439433,7.80952099 C156.612707,9.04410821 159.753105,10.0238932 162.803879,10.4579699 C163.565264,10.569394 164.319739,10.6434693 165.063115,10.6876654 C165.435641,10.7104897 165.804188,10.7210719 166.162893,10.7277117 C166.348214,10.7279192 166.532696,10.7281267 166.716342,10.7283342 C166.898312,10.7243918 167.079235,10.7208644 167.259739,10.716922 C168.701889,10.6708584 170.092526,10.5135782 171.390608,10.244459 C172.686805,9.97409475 173.897775,9.59209894 174.933476,9.06527256 C175.96834,8.54238856 176.819348,7.8611869 177.319819,7.07167356 C177.445669,6.87538457 177.550998,6.67349325 177.635806,6.46828203 C177.677477,6.36536518 177.714122,6.26182584 177.747417,6.15787152 L177.79202,6.00142131 L177.825943,5.86011814 C177.915567,5.39616233 177.959332,4.95171093 177.950746,4.53713862 C177.942789,4.1227738 177.882272,3.73994801 177.775477,3.40422328 C177.668054,3.06829106 177.508908,2.78464724 177.323588,2.55121689 C176.953366,2.08082878 176.45478,1.83557128 175.988442,1.72020482 C175.518754,1.60483835 175.07922,1.62019288 174.730566,1.66895388 C174.38254,1.71812988 174.105292,1.80320228 173.954942,1.85362323 C173.869715,1.88142738 173.778207,1.9200212 173.729626,1.93745067 C173.677066,1.95737006 173.650262,1.96753725 173.650262,1.96753725 L173.059749,0.414239777 Z" id="Fill-5"></path>
                        <path d="M171.748408,2.58415842 C171.748408,3.53536798 172.521119,4.30693069 173.47462,4.30693069 C174.427925,4.30693069 175.200637,3.53536798 175.200637,2.58415842 C175.200637,1.63294885 174.427925,0.861386139 173.47462,0.861386139 C172.521119,0.861386139 171.748408,1.63294885 171.748408,2.58415842" id="Fill-6"></path>
                    </g>
                </g>
            </g>
        </g>
    </g>
</svg>