<?xml version="1.0" encoding="UTF-8"?>
<svg width="115px" height="83px" viewBox="0 0 115 83" version="1.1" xmlns="http://www.w3.org/2000/svg" xmlns:xlink="http://www.w3.org/1999/xlink">
    <!-- Generator: Sketch 43.2 (39069) - http://www.bohemiancoding.com/sketch -->
    <title>Group 4</title>
    <desc>Created with Sketch.</desc>
    <defs></defs>
    <g id="Vector" stroke="none" stroke-width="1" fill="none" fill-rule="evenodd">
        <g id="Artboard" transform="translate(-803.000000, -719.000000)" fill="#D29E4A">
            <g id="Group-4" transform="translate(794.000000, 710.000000)">
                <g id="Group-3-Copy" transform="translate(41.000000, 41.000000)">
                    <polygon id="Path" points="67.0384615 2.2958257e-14 67.0384615 3.61417323 15.9615385 3.61417323 15.9615385 2.2958257e-14 67.0384615 0"></polygon>
                    <path d="M32.3221154,43.7716535 L22.1372729,43.7716535 C17.7993627,43.7716535 14.1479196,42.3748265 11.5765319,39.7341169 C8.88815317,36.9696429 7.47019121,32.9842282 7.58858923,28.5142205 C7.77332229,21.8426153 11.6947289,14.0551181 22.1372729,14.0551181 L32.3221154,14.0551181 L32.3221154,43.7716535 Z M22.1583247,17.6774906 C14.3066669,17.6774906 11.3517419,23.3372464 11.2054028,28.6307401 C11.1147449,32.1206948 12.1688691,35.1799897 14.1758059,37.2415221 C16.0784158,39.1984082 18.7647843,40.1909383 22.1583247,40.1909383 L28.7455963,40.1909383 L28.7455963,17.6774906 L22.1583247,17.6774906 Z" id="Combined-Shape"></path>
                    <path d="M39.5048077,51 L21.9102588,51 C15.4312648,51 9.94506802,48.8865317 6.04555954,44.887218 C2.09958815,40.8410584 -0.10144304,34.881226 0.00359489424,28.5360165 C0.189446513,17.7300417 7.03498114,6.82677165 21.9102588,6.82677165 L21.9102588,10.4096779 C8.59406972,10.4096779 3.70156556,20.2076663 3.55721286,28.5964757 C3.46786113,33.9875515 5.29699052,39.0106671 8.57878064,42.3747593 C11.8415091,45.7216345 16.3279592,47.4170937 21.9102588,47.4170937 L35.9511897,47.4170937 L35.9511897,10.4096779 L24.4107176,10.4096779 L24.4107176,6.82677165 L39.5048077,6.82677165 L39.5048077,51 Z" id="Path"></path>
                    <path d="M61.2628272,43.7716535 L51.0769231,43.7716535 L51.0769231,14.0551181 L61.2628272,14.0551181 C71.7042029,14.0551181 75.6257238,21.8426153 75.8106443,28.5105981 C75.9272246,32.9842282 74.5107737,36.9696429 71.8211853,39.7341169 C69.2517952,42.3748265 65.6004191,43.7716535 61.2628272,43.7716535 Z M54.6949331,40.1909383 L61.2833292,40.1909383 C64.6762186,40.1909383 67.361184,39.1984082 69.2652622,37.2415221 C71.2720518,35.1799897 72.3260987,32.1206948 72.2354474,28.6291302 C72.088918,23.3372464 69.1344109,17.6774906 61.2833292,17.6774906 L54.6949331,17.6774906 L54.6949331,40.1909383 Z" id="Combined-Shape"></path>
                    <path d="M61.089631,51 L43.4951923,51 L43.4951923,6.82677165 L58.5889611,6.82677165 L58.5889611,10.4096779 L47.0488281,10.4096779 L47.0488281,47.4170937 L61.089631,47.4170937 C66.67176,47.4170937 71.1568427,45.7216345 74.419389,42.3763608 C77.7011955,39.0106671 79.5339082,33.9893532 79.442769,28.5964757 C79.298217,20.2076663 74.4039012,10.4096779 61.089631,10.4096779 L61.089631,6.82677165 C75.9633948,6.82677165 82.8089637,17.7300417 82.9964048,28.5342148 C83.1014432,34.8830278 80.9005996,40.8426599 76.9546084,44.8890197 C73.0532933,48.8865317 67.5686574,51 61.089631,51 Z" id="Path"></path>
                </g>
                <polygon id="Triangle" transform="translate(26.162951, 26.162951) rotate(-45.000000) translate(-26.162951, -26.162951) " points="26.1629509 2.1629509 39.1629509 50.1629509 13.1629509 50.1629509"></polygon>
            </g>
        </g>
    </g>
</svg>