<?xml version="1.0" encoding="UTF-8"?>
<svg width="351px" height="38px" viewBox="0 0 351 38" version="1.1" xmlns="http://www.w3.org/2000/svg" xmlns:xlink="http://www.w3.org/1999/xlink">
    <!-- Generator: Sketch 43.2 (39069) - http://www.bohemiancoding.com/sketch -->
    <title>Group 20</title>
    <desc>Created with Sketch.</desc>
    <defs></defs>
    <g id="Home-Copy" stroke="none" stroke-width="1" fill="none" fill-rule="evenodd">
        <g id="Artboard" transform="translate(-322.000000, -59.000000)" fill="#FDCE1E">
            <g id="Group-8" transform="translate(312.000000, 32.000000)">
                <g id="Group-7" transform="translate(10.805732, 27.554455)">
                    <g id="Group-20">
                        <g id="Group-2">
                            <polygon id="Path" points="49.9857013 1.59942404e-14 49.9857013 2.51787213 12.4964253 2.51787213 12.4964253 1.59942404e-14 49.9857013 0"></polygon>
                            <path d="M23.7432081,31.4734016 L16.5410657,31.4734016 C13.4735419,31.4734016 10.8914487,30.4674037 9.0731092,28.5655589 C7.17204042,26.5745788 6.16933822,23.7042745 6.25306257,20.4849653 C6.38369531,15.6800608 9.15669141,10.0714885 16.5410657,10.0714885 L23.7432081,10.0714885 L23.7432081,31.4734016 Z M16.5559524,12.680329 C11.0037057,12.680329 8.91415052,16.7564974 8.81066779,20.568883 C8.74655967,23.0823559 9.4919765,25.2856667 10.9111683,26.7703868 C12.256586,28.1797404 14.1562333,28.8945627 16.5559524,28.8945627 L21.2140968,28.8945627 L21.2140968,12.680329 L16.5559524,12.680329 Z" id="Combined-Shape"></path>
                            <path d="M29.3665995,37.1386139 L16.2873795,37.1386139 C11.4711044,37.1386139 7.39284271,35.602652 4.49407391,32.6961529 C1.56076609,29.7556086 -0.075409483,25.4243037 0.0026723284,20.8129261 C0.140828426,12.9596898 5.22957801,5.03574425 16.2873795,5.03574425 L16.2873795,7.63961943 C6.38855416,7.63961943 2.75162442,14.7603022 2.64431728,20.8568648 C2.57789608,24.7748262 3.93761186,28.4253727 6.37718875,30.8702249 C8.80259579,33.3025646 12.1376781,34.5347387 16.2873795,34.5347387 L26.7249546,34.5347387 L26.7249546,7.63961943 L18.1461399,7.63961943 L18.1461399,5.03574425 L29.3665995,5.03574425 L29.3665995,37.1386139 Z" id="Path"></path>
                            <path d="M44.6921691,31.4734016 L37.489276,31.4734016 L37.489276,10.0714885 L44.6921691,10.0714885 C52.0757172,10.0714885 54.8487941,15.6800608 54.9795594,20.4823565 C55.0619984,23.7042745 54.0603647,26.5745788 52.1584405,28.5655589 C50.3415137,30.4674037 47.7594678,31.4734016 44.6921691,31.4734016 Z M40.0477272,28.8945627 L44.706667,28.8945627 C47.1059257,28.8945627 49.0045808,28.1797404 50.3510368,26.7703868 C51.7701245,25.2856667 52.5154866,23.0823559 52.4513832,20.5677235 C52.3477659,16.7564974 50.2585062,12.680329 44.706667,12.680329 L40.0477272,12.680329 L40.0477272,28.8945627 Z" id="Combined-Shape"></path>
                            <path d="M44.9450226,37.1386139 L31.8658846,37.1386139 L31.8658846,5.03574425 L43.0861053,5.03574425 L43.0861053,7.63961943 L34.5075428,7.63961943 L34.5075428,34.5347387 L44.9450226,34.5347387 C49.0945973,34.5347387 52.4286631,33.3025646 54.8539347,30.8713888 C57.2935238,28.4253727 58.6559033,24.7761356 58.5881533,20.8568648 C58.480698,14.7603022 54.8424216,7.63961943 44.9450226,7.63961943 L44.9450226,5.03574425 C56.0016988,5.03574425 61.0904739,12.9596898 61.2298115,20.8116167 C61.3078937,25.4256131 59.6718575,29.7567725 56.738535,32.6974623 C53.8384232,35.602652 49.7613219,37.1386139 44.9450226,37.1386139 Z" id="Path"></path>
                        </g>
                        <g id="TRUNK-and-DRAWER" transform="translate(72.038217, 5.990099)">
                            <path d="M260.747804,28.083813 L260.747804,0 L267.479768,0 C269.025377,0 270.355202,0.12407776 271.466084,0.366199104 C272.57815,0.607566175 273.541888,1.01638165 274.362426,1.58510281 C275.182964,2.15382398 275.798762,2.92846142 276.205481,3.90562092 C276.6122,4.88315756 276.817334,6.07603889 276.817334,7.48803625 C276.817334,9.24963874 276.543559,10.6880356 275.99364,11.8058669 C275.442538,12.9236981 274.536396,13.7379349 273.271268,14.2440514 L277.347134,28.083813 L271.979315,28.083813 L268.47112,15.2608102 L266.099054,15.2608102 L266.099054,28.083813 L260.747804,28.083813 Z M266.099054,11.9921721 L267.391007,11.9921721 C268.974488,11.9921721 270.099178,11.6719836 270.765076,11.0282123 C271.432158,10.384064 271.767474,9.28282671 271.767474,7.72336915 C271.767474,6.22312195 271.476341,5.14790707 270.899203,4.49734739 C270.321276,3.85018193 269.258126,3.52358211 267.70936,3.52358211 L266.099054,3.52358211 L266.099054,11.9921721 Z" id="Combined-Shape"></path>
                            <polygon id="Path" points="244.840113 28.083813 244.840113 0 256.514444 0 256.514444 3.60843772 249.921039 3.60843772 249.921039 11.6719836 255.134185 11.6719836 255.134185 15.2800442 249.921039 15.2800442 249.921039 24.5436369 256.597972 24.5436369 256.597972 28.083813"></polygon>
                            <polygon id="Path" points="221.347977 28.083813 217.174564 0 221.647366 0 224.038164 18.1078103 227.156272 0 230.728949 0 233.910932 18.1240271 236.305649 0 240.690281 0 236.516083 28.083813 232.277619 28.083813 228.986304 9.33487149 225.712232 28.083813"></polygon>
                            <path d="M197.11704,28.083813 L203.249031,0 L208.984272,0 L215.099647,28.083813 L209.98567,28.083813 L208.766648,21.5627536 L203.540818,21.5627536 L202.30437,28.083813 L197.11704,28.083813 Z M204.123582,18.2254767 L208.166457,18.2254767 L206.143399,6.69039351 L204.123582,18.2254767 Z" id="Combined-Shape"></path>
                            <path d="M177.751156,28.083813 L177.751156,0 L184.482725,0 C186.028334,0 187.358159,0.12407776 188.46983,0.366199104 C189.581107,0.607566175 190.544845,1.01638165 191.365383,1.58510281 C192.185921,2.15382398 192.801719,2.92846142 193.208438,3.90562092 C193.615157,4.88315756 193.820291,6.07603889 193.820291,7.48803625 C193.820291,9.24963874 193.54691,10.6880356 192.996597,11.8058669 C192.44589,12.9236981 191.539747,13.7379349 190.27462,14.2440514 L194.350485,28.083813 L188.982272,28.083813 L185.474471,15.2608102 L183.102011,15.2608102 L183.102011,28.083813 L177.751156,28.083813 Z M183.102011,11.9921721 L184.393964,11.9921721 C185.977445,11.9921721 187.102529,11.6719836 187.768033,11.0282123 C188.43551,10.384064 188.770431,9.28282671 188.770431,7.72336915 C188.770431,6.22312195 188.480087,5.14790707 187.90216,4.49734739 C187.324233,3.85018193 186.261083,3.52358211 184.711529,3.52358211 L183.102011,3.52358211 L183.102011,11.9921721 Z" id="Combined-Shape"></path>
                            <path d="M157.001993,28.083813 L157.001993,0 L163.741262,0 C165.486147,0 166.948771,0.169711222 168.124858,0.509510802 C169.301334,0.849687519 170.241425,1.38597498 170.952132,2.11799605 C171.662838,2.85303421 172.165542,3.75212655 172.461799,4.82093012 C172.761556,5.88633945 172.909684,7.20065859 172.909684,8.75936188 L172.909684,18.8858419 C172.909684,20.4905558 172.758445,21.8501313 172.454801,22.9679625 C172.151935,24.0861709 171.65273,25.0339138 170.961851,25.8149626 C170.267863,26.5933714 169.345267,27.1651096 168.192507,27.5343258 C167.039748,27.9001478 165.628055,28.083813 163.950042,28.083813 L157.001993,28.083813 Z M162.27475,24.4946093 L163.774698,24.4946093 C164.300729,24.4946093 164.758723,24.4485987 165.156454,24.3573317 C165.550686,24.2660648 165.884267,24.1608438 166.150588,24.0367661 C166.41963,23.9126883 166.642794,23.706772 166.824359,23.4258057 C167.002813,23.1444622 167.140833,22.8831069 167.23181,22.6481512 C167.326285,22.4090469 167.397434,22.0526533 167.444477,21.572182 C167.488799,21.0920878 167.518347,20.6836495 167.531955,20.3434728 C167.541675,20.0036732 167.548673,19.5035908 167.548673,18.8364371 L167.548673,8.57305667 C167.548673,7.90665727 167.535065,7.37036981 167.511349,6.96193147 C167.488799,6.55651021 167.434758,6.14807187 167.346503,5.73623931 C167.259414,5.32101252 167.131113,5.0038411 166.962379,4.77869088 C166.793645,4.55278638 166.571257,4.3468701 166.291718,4.16094203 C166.01179,3.97463682 165.661491,3.84339348 165.243932,3.7683434 C164.823262,3.69668755 164.31667,3.66048249 163.724544,3.66048249 L162.27475,3.66048249 L162.27475,24.4946093 Z" id="Combined-Shape"></path>
                            <path d="M141.046278,23.4031775 C139.829764,23.4031775 138.957962,22.9568551 138.429692,22.071452 C137.898671,21.1864301 137.636109,19.7132992 137.636109,17.6551087 L137.636109,15.1250589 C137.636109,14.3681021 137.66323,13.7045262 137.717865,13.136237 C137.775644,12.5648985 137.877839,12.0293878 138.027594,11.527418 C138.18128,11.0254482 138.378988,10.6191461 138.624256,10.3016512 C138.872669,9.98491852 139.189473,9.73717336 139.577814,9.55498538 C139.969693,9.37660887 140.429177,9.28437144 140.960984,9.28437144 C141.891745,9.29123207 142.723062,9.69105465 143.455329,10.4769785 L143.455329,4.01197329 L145.244135,4.01197329 L145.244135,23.1813503 L143.455329,23.1813503 L143.455329,22.2105704 C142.739964,22.9968755 141.936161,23.3932677 141.046278,23.4031775 Z M141.403961,22.0257144 C142.095742,22.0257144 142.777304,21.7249899 143.455329,21.1235409 L143.455329,11.6200366 C142.739964,10.9724688 142.039142,10.6488756 141.356401,10.6488756 C140.599371,10.6488756 140.089182,10.9556984 139.823082,11.5674384 C139.557375,12.1814652 139.424522,13.1823557 139.424522,14.5697286 L139.424522,17.7934648 C139.424522,19.2902267 139.557375,20.3669653 139.829764,21.0313035 C140.099009,21.6952605 140.623348,22.0257144 141.403961,22.0257144 Z" id="Combined-Shape"></path>
                            <path d="M127.261528,22.7345153 L127.261528,9.56153407 L129.111008,9.56153407 L129.111008,10.932199 C130.188754,9.8857695 131.357938,9.36127101 132.625875,9.36127101 C133.34803,9.36127101 133.904784,9.60628149 134.288416,10.0893336 C134.676112,10.5760535 134.869554,11.2685382 134.869554,12.1653206 L134.869554,22.7345153 L133.02048,22.7345153 L133.02048,12.5214661 C133.02048,11.8535558 132.90791,11.38004 132.678706,11.097251 C132.453159,10.8140951 132.104477,10.6743511 131.625749,10.6743511 C130.829631,10.6743511 129.991655,11.0778115 129.111008,11.8887669 L129.111008,22.7345153 L127.261528,22.7345153 Z" id="Path"></path>
                            <path d="M119.724871,23.4031775 C118.900501,23.4031775 118.219226,23.1075026 117.687729,22.5222178 C117.152695,21.9342796 116.886947,21.2083596 116.886947,20.3444581 C116.886947,19.8910898 116.927438,19.4866217 117.006062,19.1287792 C117.08783,18.7735902 117.23407,18.43925 117.455789,18.1234844 C117.673577,17.8080978 117.9122,17.5321345 118.171265,17.2887712 C118.426793,17.0491987 118.795145,16.7929471 119.271605,16.5200164 C119.748458,16.2474647 120.225704,15.9976573 120.70295,15.7679406 C121.179803,15.5378449 121.803289,15.2550583 122.576554,14.9267833 L122.576554,13.951056 C122.576554,12.6993654 122.454294,11.8381173 122.205449,11.3688281 C121.960143,10.8957482 121.499801,10.6622408 120.822065,10.6622408 C119.520842,10.6622408 118.866299,11.4378189 118.866299,12.9950403 L118.866299,13.4912435 L117.101196,13.4321085 C117.101196,13.208457 117.104734,13.0704753 117.115349,13.0181636 C117.169599,11.7369055 117.517116,10.8104573 118.150823,10.2285842 C118.788069,9.65050176 119.711111,9.36127101 120.9172,9.36127101 C122.16771,9.36127101 123.0538,9.71949258 123.57822,10.432145 C124.103033,11.1451765 124.365244,12.2854204 124.365244,13.8593209 L124.365244,20.4820607 C124.365244,21.576437 124.409666,22.4767294 124.494973,23.1825585 L122.910704,23.1825585 L122.648494,21.2974412 C122.433458,21.8952353 122.069037,22.3944711 121.557983,22.7985602 C121.043391,23.1992376 120.433664,23.4031775 119.724871,23.4031775 Z M120.31101,21.9179795 C120.787863,21.9179795 121.227763,21.7602862 121.629531,21.441488 C122.028153,21.1230688 122.345007,20.7455146 122.576554,20.3080673 L122.576554,16.0666481 C122.528986,16.0893923 122.454294,16.1257831 122.348545,16.1815065 C121.960143,16.3790022 121.660194,16.5332838 121.455772,16.641698 C121.247812,16.7470796 120.999361,16.8816496 120.709633,17.0427545 C120.419904,17.2034804 120.202117,17.3380504 120.059021,17.4464645 C119.915926,17.5518461 119.752389,17.6830045 119.564871,17.8376652 C119.377354,17.9889144 119.244873,18.1333402 119.159173,18.2679102 C119.077404,18.4028593 118.989345,18.5567619 118.904039,18.7345459 C118.815194,18.9085393 118.757405,19.0958001 118.723204,19.2898841 C118.692541,19.4866217 118.675637,19.70345 118.675637,19.940369 C118.675637,20.6067748 118.832491,21.1033571 119.142269,21.4282205 C119.452046,21.7568746 119.840841,21.9179795 120.31101,21.9179795 Z" id="Combined-Shape"></path>
                            <polygon id="Path" points="94.754507 28.083813 94.754507 0 100.03682 0 100.03682 12.1950713 105.740892 0 110.776692 0 105.23151 12.5676817 111.353837 28.083813 106.088659 28.083813 101.08674 14.8716058 100.03682 16.7022242 100.03682 28.083813"></polygon>
                            <polygon id="Path" points="70.5471512 28.083813 70.5471512 0 74.2105145 0 81.359248 15.9045815 81.359248 0 85.7632035 0 85.7632035 28.083813 82.2735206 28.083813 75.0565695 11.3676348 75.0565695 28.083813"></polygon>
                            <path d="M53.9648729,28.7524752 C52.6487436,28.7524752 51.5043177,28.603307 50.5387332,28.3057334 C49.5691832,28.0085413 48.7753023,27.5919383 48.1531248,27.0563058 C47.527775,26.5176213 47.0293193,25.8297686 46.6549818,24.9900769 C46.2802477,24.1500038 46.0189253,23.2443119 45.8714109,22.2653711 C45.7235,21.2902454 45.6481567,20.1556507 45.6481567,18.8661652 L45.6481567,0 L50.8682612,0 L50.8682612,19.3956936 C50.8682612,20.0598931 50.8857092,20.6252829 50.9198119,21.0914815 C50.9578802,21.5611136 51.03362,22.0536361 51.1537729,22.5659967 C51.2707533,23.0821725 51.438888,23.4919084 51.6589699,23.7997826 C51.8786552,24.1068938 52.1812182,24.3651724 52.5698313,24.5700404 C52.9544789,24.7783419 53.4184354,24.8809666 53.9648729,24.8809666 C54.511707,24.8809666 54.9788358,24.7783419 55.36388,24.5700404 C55.7485276,24.3651724 56.0479183,24.1068938 56.2537246,23.7997826 C56.4634963,23.4919084 56.6284586,23.0821725 56.7521803,22.5659967 C56.8794709,22.0536361 56.9548143,21.5641657 56.9857447,21.1014006 C57.0135028,20.6386355 57.0305542,20.0698122 57.0305542,19.3956936 L57.0305542,0 L62.2474864,0 L62.2474864,18.8661652 C62.2474864,20.1556507 62.1717465,21.2902454 62.0242321,22.2653711 C61.8763212,23.2443119 61.6153953,24.1500038 61.2406613,24.9900769 C60.8659273,25.8297686 60.3710404,26.5176213 59.7560007,27.0563058 C59.1373922,27.5919383 58.3435112,28.0085413 57.3779267,28.3057334 C56.4083767,28.603307 55.2710887,28.7524752 53.9648729,28.7524752 Z" id="Path"></path>
                            <path d="M21.4408009,28.083813 L21.4408009,0 L28.1729244,0 C29.718571,0 31.0484268,0.12407776 32.1597301,0.366199104 C33.270639,0.607566175 34.2351888,1.01638165 35.055352,1.58510281 C35.8763042,2.15382398 36.4917224,2.92846142 36.8984508,3.90562092 C37.3055736,4.88315756 37.5103186,6.07603889 37.5103186,7.48803625 C37.5103186,9.24963874 37.2369308,10.6880356 36.6866049,11.8058669 C36.1358844,12.9236981 35.230115,13.7379349 33.9649571,14.2440514 L38.0401306,28.083813 L32.6725787,28.083813 L29.1643001,15.2608102 L26.7917838,15.2608102 L26.7917838,28.083813 L21.4408009,28.083813 Z M26.7917838,11.9921721 L28.0841621,11.9921721 C29.6668917,11.9921721 30.7920025,11.6719836 31.4587056,11.0282123 C32.1254087,10.384064 32.4603383,9.28282671 32.4603383,7.72336915 C32.4603383,6.22312195 32.1699871,5.14790707 31.5920462,4.49734739 C31.0141054,3.85018193 29.9509309,3.52358211 28.4021282,3.52358211 L26.7917838,3.52358211 L26.7917838,11.9921721 Z" id="Combined-Shape"></path>
                            <polygon id="Path" points="4.98075675 28.083813 4.98075675 3.77814894 0 3.77814894 0 0 15.2160522 0 15.2160522 3.77814894 10.3941369 3.77814894 10.3941369 28.083813"></polygon>
                        </g>
                    </g>
                </g>
            </g>
        </g>
    </g>
</svg>