<?xml version="1.0" encoding="UTF-8"?>
<svg width="558px" height="19px" viewBox="0 0 558 19" version="1.1" xmlns="http://www.w3.org/2000/svg" xmlns:xlink="http://www.w3.org/1999/xlink">
    <!-- Generator: Sketch 43.2 (39069) - http://www.bohemiancoding.com/sketch -->
    <title>Group 6</title>
    <desc>Created with Sketch.</desc>
    <defs></defs>
    <g id="Vector" stroke="none" stroke-width="1" fill="none" fill-rule="evenodd">
        <g id="Artboard" transform="translate(-551.000000, -236.000000)" fill="#C7C7C7">
            <g id="Group-6" transform="translate(551.000000, 236.000000)">
                <g id="Group-5">
                    <path d="M212.26742,3.09580926 C212.317892,3.0268653 212.311053,2.93296427 212.250813,2.87150744 C212.190573,2.80942669 212.093211,2.79694814 212.017992,2.84093501 L206.781306,5.89537044 L0,5.89537044 L0,7.45518836 L206.781306,7.45518836 L212.054136,10.5308373 C212.126099,10.5726404 212.218902,10.5604739 212.276212,10.5015127 C212.333521,10.4425516 212.339708,10.3527061 212.290865,10.2871938 C211.533463,9.2683207 211.087684,8.02171422 211.087684,6.6752794 C211.087684,5.34288294 211.52402,4.10875501 212.26742,3.09580926 Z" id="Fill-1" transform="translate(106.161864, 6.685185) scale(1, -1) translate(-106.161864, -6.685185) "></path>
                    <path d="M222.430155,3.09995012 C222.430155,3.09995012 222.388866,3.0839314 222.307265,3.05222088 C222.23184,3.02508713 222.089443,2.96428138 221.957124,2.92047508 C221.723697,2.84103531 221.293255,2.70700113 220.752601,2.62952284 C220.211947,2.55237146 219.529547,2.52850683 218.800006,2.71027026 C218.076317,2.89203369 217.302236,3.27844442 216.727121,4.01955537 C216.439727,4.38733208 216.19232,4.83422166 216.025865,5.36382013 C215.859735,5.89243786 215.765779,6.49559167 215.753425,7.14843621 C215.740095,7.80193457 215.808043,8.50185452 215.947189,9.23283117 L216.000181,9.45513177 L216.069429,9.70195081 C216.120796,9.86540712 216.178015,10.0285365 216.242711,10.1906852 C216.37438,10.5143287 216.537584,10.8324147 216.733299,11.1416741 C217.50998,12.3852497 218.831542,13.4588308 220.437897,14.2826507 C222.045878,15.1126818 223.926299,15.714528 225.938714,16.1404952 C227.954055,16.5645009 230.112768,16.8119737 232.352107,16.8848752 C232.632025,16.8910866 232.913242,16.8966441 233.195436,16.9028554 C233.48088,16.9025285 233.7673,16.9022016 234.054694,16.9018747 C234.611928,16.8914135 235.184117,16.874741 235.762484,16.8384537 C236.916615,16.7691482 238.087977,16.6524404 239.269742,16.4768883 C244.006556,15.792987 248.882192,14.2489787 253.808869,12.3038485 C256.279035,11.3381485 258.765781,10.2711057 261.335755,9.25211902 C262.622205,8.74540443 263.930437,8.25078561 265.28841,7.82841449 C266.646709,7.41356235 268.056375,7.04513181 269.575926,6.97549942 C270.350657,6.94346198 271.082799,7.01930572 271.827295,7.1353597 C272.57049,7.26645167 273.333843,7.45736865 274.074762,7.88268199 C274.441809,8.09648285 274.803978,8.38285832 275.092674,8.76763449 C275.381044,9.15142993 275.568306,9.63656828 275.613821,10.1115723 C275.662262,10.5898455 275.594639,11.0396773 275.462971,11.4512603 C275.455818,11.4832978 275.422007,11.564699 275.396324,11.6264855 C275.36869,11.6912142 275.340405,11.7588851 275.309845,11.8196909 C275.243848,11.927572 275.188255,12.0423184 275.106978,12.1403922 C274.959054,12.3483086 274.772118,12.518957 274.579329,12.6657408 C274.186924,12.9540777 273.762009,13.1051113 273.35725,13.2044928 C272.950216,13.300932 272.553585,13.3404884 272.165407,13.3548726 C271.389375,13.3810256 270.64683,13.3025666 269.917289,13.1927239 C268.460483,12.9658466 267.060571,12.5912047 265.681465,12.1721027 C262.927155,11.3221298 260.262901,10.2691442 257.64156,9.16385261 C256.989069,8.88466922 256.336904,8.60581274 255.686039,8.32695626 C255.032248,8.03960005 254.419095,7.79310792 253.7523,7.56590364 C252.434965,7.10757213 251.099749,6.69337382 249.762257,6.31611663 C247.087274,5.56715979 244.391158,4.94733343 241.704471,4.63022817 C240.363403,4.4808291 239.018759,4.40106241 237.717029,4.51744331 C237.066814,4.57465302 236.429604,4.68743788 235.836608,4.88554694 C235.251415,5.09052116 234.703934,5.38343488 234.330386,5.81790178 C233.95131,6.24517659 233.748118,6.80092807 233.721785,7.3991782 C233.674644,7.99906289 233.818666,8.54860303 234.187013,8.9592053 C234.550158,9.37307669 235.103166,9.63983741 235.683482,9.80950506 C236.268025,9.97982655 236.889306,10.0622085 237.510911,10.1030726 C238.758348,10.1782625 240.014563,10.0922845 241.246395,9.95040441 C242.479527,9.80590902 243.693478,9.59733876 244.884671,9.35673106 C247.267383,8.87191962 249.561341,8.26288138 251.756466,7.60088329 C252.853703,7.26808623 253.926883,6.92123192 254.968852,6.5531283 C255.488374,6.36744192 256.005619,6.17979407 256.494906,5.97024307 C256.722156,5.86824632 256.990695,5.73453906 257.237776,5.6348307 C257.488759,5.52923792 257.739742,5.42952957 257.98975,5.33243651 C262.00125,3.81915792 265.836216,2.89399516 269.284955,2.45560532 C272.730768,2.02408064 275.817338,2.14863435 278.226058,2.83482397 C279.430906,3.16860178 280.454669,3.64033671 281.274265,4.16045471 C282.091585,4.68580332 282.711565,5.24286245 283.155987,5.74303878 C283.607236,6.23929217 283.882927,6.67572053 284.07474,6.962096 C284.250298,7.26024033 284.340678,7.41388927 284.340678,7.41388927 C284.340678,7.41388927 284.248022,7.26154798 284.068563,6.96634587 C283.872523,6.68291261 283.59098,6.25106102 283.134204,5.76298045 C282.684581,5.27065002 282.059725,4.72568666 281.240454,4.21570295 C280.418908,3.71062293 279.396445,3.2571951 278.196474,2.94368588 C275.797831,2.2973796 272.733694,2.21761292 269.316166,2.6958861 C265.898312,3.1797168 262.09163,4.15718559 258.138649,5.71361665 C257.892868,5.813325 257.646761,5.91499483 257.402606,6.02189526 C257.150973,6.12846878 256.936402,6.24059982 256.669164,6.36613427 C256.160371,6.59301164 255.646051,6.78719774 255.122953,6.9826915 C254.077408,7.36942915 253.003903,7.73328291 251.90504,8.08373326 C249.706339,8.78136482 247.40848,9.42734419 245.008537,9.95203897 C243.808241,10.2125883 242.581936,10.4417541 241.327021,10.6071719 C240.072107,10.7693206 238.787283,10.8785094 237.470923,10.8183575 C236.813556,10.7843585 236.146435,10.7081879 235.481916,10.5257706 C234.825524,10.3407381 234.138897,10.0468436 233.616125,9.47638109 C233.081973,8.91343753 232.871304,8.07588735 232.926247,7.35831412 C232.944453,6.63158733 233.201613,5.85484291 233.707805,5.27326533 C234.20717,4.68253419 234.884043,4.32096882 235.556365,4.07447669 C236.236165,3.83648429 236.934496,3.70604615 237.630876,3.63412537 C239.026236,3.4899569 240.419647,3.55566634 241.804279,3.68904669 C244.573544,3.97607599 247.316475,4.56680712 250.041199,5.28699566 C251.403725,5.65052251 252.760072,6.04935592 254.112844,6.49853389 C254.784516,6.71593079 255.486098,6.98596063 256.130786,7.25925959 C256.783601,7.52765486 257.437392,7.79605014 258.091508,8.06509924 C260.707322,9.12429618 263.357598,10.1262834 266.052413,10.9151236 C267.398682,11.3041496 268.759582,11.6441388 270.113979,11.8347288 C270.788902,11.9272451 271.466101,11.9851087 272.108513,11.9527443 C272.742797,11.923976 273.369604,11.7909226 273.731774,11.512393 C273.817928,11.4421068 273.897254,11.3714936 273.952197,11.2864964 C273.987308,11.2495552 274.002263,11.197903 274.032498,11.1570389 C274.061433,11.0860989 274.069236,11.0887142 274.083215,11.033466 C274.166768,10.7696475 274.195377,10.4986369 274.167418,10.270125 C274.139134,10.0383439 274.057857,9.84023485 273.920336,9.65814451 C273.77989,9.47768874 273.579949,9.31292477 273.336443,9.17627529 C272.847482,8.90003411 272.223601,8.73527014 271.58574,8.63556179 C270.943003,8.54337242 270.271331,8.48485506 269.64745,8.52245002 C268.365877,8.59665918 267.053418,8.94743644 265.770219,9.36228858 C264.48377,9.78269823 263.21325,10.2832015 261.953134,10.8007042 C259.433877,11.8412671 256.950707,12.949174 254.466561,13.9626032 C249.507698,16.002865 244.511448,17.6740423 239.571442,18.4605942 C238.338959,18.6622992 237.111354,18.8022179 235.897403,18.8934265 C235.291728,18.9398481 234.686703,18.966328 234.075826,18.9865966 C233.779003,18.9908464 233.483481,18.9954232 233.189259,19 C232.89211,18.9980385 232.596263,18.996077 232.301715,18.9941156 C229.945337,18.9509631 227.669911,18.7250665 225.504696,18.3023684 C223.341756,17.8754205 221.28025,17.2595171 219.412183,16.3314122 C218.4801,15.8668693 217.597434,15.3219059 216.801571,14.6755997 C216.006684,14.030601 215.302501,13.2751059 214.751444,12.4306906 C214.476403,12.0093002 214.24005,11.5663336 214.047912,11.1125788 C213.952655,10.8847207 213.868452,10.6552281 213.792702,10.4247546 L213.689643,10.0779003 C213.658758,9.95301971 213.628198,9.828466 213.597638,9.70489302 C213.420129,8.8402091 213.319021,7.97225605 213.323897,7.11803333 C213.328124,6.26479135 213.438985,5.42201058 213.676314,4.62924743 C213.912667,3.8368112 214.290767,3.10158468 214.764123,2.48143141 C215.236504,1.85898976 215.807718,1.35914033 216.400063,0.996267309 C216.991759,0.630452069 217.597759,0.391478932 218.168648,0.239791469 C218.740837,0.0877770935 219.28019,0.0201061778 219.768501,0.00572202181 C220.258113,-0.0125850858 220.698958,0.014548663 221.087137,0.0655470342 C221.868044,0.168197602 222.422027,0.330019357 222.840766,0.468630314 C223.174651,0.589914902 223.346958,0.652682129 223.346958,0.652682129 L222.430155,3.09995012 Z" id="Fill-2" transform="translate(248.832203, 9.500000) scale(1, -1) translate(-248.832203, -9.500000) "></path>
                    <path d="M225.39661,3.51851852 C225.39661,5.07268723 224.124881,6.33333333 222.55561,6.33333333 C220.986983,6.33333333 219.715254,5.07268723 219.715254,3.51851852 C219.715254,1.9643498 220.986983,0.703703704 222.55561,0.703703704 C224.124881,0.703703704 225.39661,1.9643498 225.39661,3.51851852" id="Fill-3" transform="translate(222.555932, 3.518519) scale(1, -1) translate(-222.555932, -3.518519) "></path>
                </g>
                <g id="Group-5-Copy" transform="translate(415.500000, 9.500000) scale(-1, 1) translate(-415.500000, -9.500000) translate(273.000000, 0.000000)">
                    <path d="M212.26742,3.09580926 C212.317892,3.0268653 212.311053,2.93296427 212.250813,2.87150744 C212.190573,2.80942669 212.093211,2.79694814 212.017992,2.84093501 L206.781306,5.89537044 L0,5.89537044 L0,7.45518836 L206.781306,7.45518836 L212.054136,10.5308373 C212.126099,10.5726404 212.218902,10.5604739 212.276212,10.5015127 C212.333521,10.4425516 212.339708,10.3527061 212.290865,10.2871938 C211.533463,9.2683207 211.087684,8.02171422 211.087684,6.6752794 C211.087684,5.34288294 211.52402,4.10875501 212.26742,3.09580926 Z" id="Fill-1" transform="translate(106.161864, 6.685185) scale(1, -1) translate(-106.161864, -6.685185) "></path>
                    <path d="M222.430155,3.09995012 C222.430155,3.09995012 222.388866,3.0839314 222.307265,3.05222088 C222.23184,3.02508713 222.089443,2.96428138 221.957124,2.92047508 C221.723697,2.84103531 221.293255,2.70700113 220.752601,2.62952284 C220.211947,2.55237146 219.529547,2.52850683 218.800006,2.71027026 C218.076317,2.89203369 217.302236,3.27844442 216.727121,4.01955537 C216.439727,4.38733208 216.19232,4.83422166 216.025865,5.36382013 C215.859735,5.89243786 215.765779,6.49559167 215.753425,7.14843621 C215.740095,7.80193457 215.808043,8.50185452 215.947189,9.23283117 L216.000181,9.45513177 L216.069429,9.70195081 C216.120796,9.86540712 216.178015,10.0285365 216.242711,10.1906852 C216.37438,10.5143287 216.537584,10.8324147 216.733299,11.1416741 C217.50998,12.3852497 218.831542,13.4588308 220.437897,14.2826507 C222.045878,15.1126818 223.926299,15.714528 225.938714,16.1404952 C227.954055,16.5645009 230.112768,16.8119737 232.352107,16.8848752 C232.632025,16.8910866 232.913242,16.8966441 233.195436,16.9028554 C233.48088,16.9025285 233.7673,16.9022016 234.054694,16.9018747 C234.611928,16.8914135 235.184117,16.874741 235.762484,16.8384537 C236.916615,16.7691482 238.087977,16.6524404 239.269742,16.4768883 C244.006556,15.792987 248.882192,14.2489787 253.808869,12.3038485 C256.279035,11.3381485 258.765781,10.2711057 261.335755,9.25211902 C262.622205,8.74540443 263.930437,8.25078561 265.28841,7.82841449 C266.646709,7.41356235 268.056375,7.04513181 269.575926,6.97549942 C270.350657,6.94346198 271.082799,7.01930572 271.827295,7.1353597 C272.57049,7.26645167 273.333843,7.45736865 274.074762,7.88268199 C274.441809,8.09648285 274.803978,8.38285832 275.092674,8.76763449 C275.381044,9.15142993 275.568306,9.63656828 275.613821,10.1115723 C275.662262,10.5898455 275.594639,11.0396773 275.462971,11.4512603 C275.455818,11.4832978 275.422007,11.564699 275.396324,11.6264855 C275.36869,11.6912142 275.340405,11.7588851 275.309845,11.8196909 C275.243848,11.927572 275.188255,12.0423184 275.106978,12.1403922 C274.959054,12.3483086 274.772118,12.518957 274.579329,12.6657408 C274.186924,12.9540777 273.762009,13.1051113 273.35725,13.2044928 C272.950216,13.300932 272.553585,13.3404884 272.165407,13.3548726 C271.389375,13.3810256 270.64683,13.3025666 269.917289,13.1927239 C268.460483,12.9658466 267.060571,12.5912047 265.681465,12.1721027 C262.927155,11.3221298 260.262901,10.2691442 257.64156,9.16385261 C256.989069,8.88466922 256.336904,8.60581274 255.686039,8.32695626 C255.032248,8.03960005 254.419095,7.79310792 253.7523,7.56590364 C252.434965,7.10757213 251.099749,6.69337382 249.762257,6.31611663 C247.087274,5.56715979 244.391158,4.94733343 241.704471,4.63022817 C240.363403,4.4808291 239.018759,4.40106241 237.717029,4.51744331 C237.066814,4.57465302 236.429604,4.68743788 235.836608,4.88554694 C235.251415,5.09052116 234.703934,5.38343488 234.330386,5.81790178 C233.95131,6.24517659 233.748118,6.80092807 233.721785,7.3991782 C233.674644,7.99906289 233.818666,8.54860303 234.187013,8.9592053 C234.550158,9.37307669 235.103166,9.63983741 235.683482,9.80950506 C236.268025,9.97982655 236.889306,10.0622085 237.510911,10.1030726 C238.758348,10.1782625 240.014563,10.0922845 241.246395,9.95040441 C242.479527,9.80590902 243.693478,9.59733876 244.884671,9.35673106 C247.267383,8.87191962 249.561341,8.26288138 251.756466,7.60088329 C252.853703,7.26808623 253.926883,6.92123192 254.968852,6.5531283 C255.488374,6.36744192 256.005619,6.17979407 256.494906,5.97024307 C256.722156,5.86824632 256.990695,5.73453906 257.237776,5.6348307 C257.488759,5.52923792 257.739742,5.42952957 257.98975,5.33243651 C262.00125,3.81915792 265.836216,2.89399516 269.284955,2.45560532 C272.730768,2.02408064 275.817338,2.14863435 278.226058,2.83482397 C279.430906,3.16860178 280.454669,3.64033671 281.274265,4.16045471 C282.091585,4.68580332 282.711565,5.24286245 283.155987,5.74303878 C283.607236,6.23929217 283.882927,6.67572053 284.07474,6.962096 C284.250298,7.26024033 284.340678,7.41388927 284.340678,7.41388927 C284.340678,7.41388927 284.248022,7.26154798 284.068563,6.96634587 C283.872523,6.68291261 283.59098,6.25106102 283.134204,5.76298045 C282.684581,5.27065002 282.059725,4.72568666 281.240454,4.21570295 C280.418908,3.71062293 279.396445,3.2571951 278.196474,2.94368588 C275.797831,2.2973796 272.733694,2.21761292 269.316166,2.6958861 C265.898312,3.1797168 262.09163,4.15718559 258.138649,5.71361665 C257.892868,5.813325 257.646761,5.91499483 257.402606,6.02189526 C257.150973,6.12846878 256.936402,6.24059982 256.669164,6.36613427 C256.160371,6.59301164 255.646051,6.78719774 255.122953,6.9826915 C254.077408,7.36942915 253.003903,7.73328291 251.90504,8.08373326 C249.706339,8.78136482 247.40848,9.42734419 245.008537,9.95203897 C243.808241,10.2125883 242.581936,10.4417541 241.327021,10.6071719 C240.072107,10.7693206 238.787283,10.8785094 237.470923,10.8183575 C236.813556,10.7843585 236.146435,10.7081879 235.481916,10.5257706 C234.825524,10.3407381 234.138897,10.0468436 233.616125,9.47638109 C233.081973,8.91343753 232.871304,8.07588735 232.926247,7.35831412 C232.944453,6.63158733 233.201613,5.85484291 233.707805,5.27326533 C234.20717,4.68253419 234.884043,4.32096882 235.556365,4.07447669 C236.236165,3.83648429 236.934496,3.70604615 237.630876,3.63412537 C239.026236,3.4899569 240.419647,3.55566634 241.804279,3.68904669 C244.573544,3.97607599 247.316475,4.56680712 250.041199,5.28699566 C251.403725,5.65052251 252.760072,6.04935592 254.112844,6.49853389 C254.784516,6.71593079 255.486098,6.98596063 256.130786,7.25925959 C256.783601,7.52765486 257.437392,7.79605014 258.091508,8.06509924 C260.707322,9.12429618 263.357598,10.1262834 266.052413,10.9151236 C267.398682,11.3041496 268.759582,11.6441388 270.113979,11.8347288 C270.788902,11.9272451 271.466101,11.9851087 272.108513,11.9527443 C272.742797,11.923976 273.369604,11.7909226 273.731774,11.512393 C273.817928,11.4421068 273.897254,11.3714936 273.952197,11.2864964 C273.987308,11.2495552 274.002263,11.197903 274.032498,11.1570389 C274.061433,11.0860989 274.069236,11.0887142 274.083215,11.033466 C274.166768,10.7696475 274.195377,10.4986369 274.167418,10.270125 C274.139134,10.0383439 274.057857,9.84023485 273.920336,9.65814451 C273.77989,9.47768874 273.579949,9.31292477 273.336443,9.17627529 C272.847482,8.90003411 272.223601,8.73527014 271.58574,8.63556179 C270.943003,8.54337242 270.271331,8.48485506 269.64745,8.52245002 C268.365877,8.59665918 267.053418,8.94743644 265.770219,9.36228858 C264.48377,9.78269823 263.21325,10.2832015 261.953134,10.8007042 C259.433877,11.8412671 256.950707,12.949174 254.466561,13.9626032 C249.507698,16.002865 244.511448,17.6740423 239.571442,18.4605942 C238.338959,18.6622992 237.111354,18.8022179 235.897403,18.8934265 C235.291728,18.9398481 234.686703,18.966328 234.075826,18.9865966 C233.779003,18.9908464 233.483481,18.9954232 233.189259,19 C232.89211,18.9980385 232.596263,18.996077 232.301715,18.9941156 C229.945337,18.9509631 227.669911,18.7250665 225.504696,18.3023684 C223.341756,17.8754205 221.28025,17.2595171 219.412183,16.3314122 C218.4801,15.8668693 217.597434,15.3219059 216.801571,14.6755997 C216.006684,14.030601 215.302501,13.2751059 214.751444,12.4306906 C214.476403,12.0093002 214.24005,11.5663336 214.047912,11.1125788 C213.952655,10.8847207 213.868452,10.6552281 213.792702,10.4247546 L213.689643,10.0779003 C213.658758,9.95301971 213.628198,9.828466 213.597638,9.70489302 C213.420129,8.8402091 213.319021,7.97225605 213.323897,7.11803333 C213.328124,6.26479135 213.438985,5.42201058 213.676314,4.62924743 C213.912667,3.8368112 214.290767,3.10158468 214.764123,2.48143141 C215.236504,1.85898976 215.807718,1.35914033 216.400063,0.996267309 C216.991759,0.630452069 217.597759,0.391478932 218.168648,0.239791469 C218.740837,0.0877770935 219.28019,0.0201061778 219.768501,0.00572202181 C220.258113,-0.0125850858 220.698958,0.014548663 221.087137,0.0655470342 C221.868044,0.168197602 222.422027,0.330019357 222.840766,0.468630314 C223.174651,0.589914902 223.346958,0.652682129 223.346958,0.652682129 L222.430155,3.09995012 Z" id="Fill-2" transform="translate(248.832203, 9.500000) scale(1, -1) translate(-248.832203, -9.500000) "></path>
                    <path d="M225.39661,3.51851852 C225.39661,5.07268723 224.124881,6.33333333 222.55561,6.33333333 C220.986983,6.33333333 219.715254,5.07268723 219.715254,3.51851852 C219.715254,1.9643498 220.986983,0.703703704 222.55561,0.703703704 C224.124881,0.703703704 225.39661,1.9643498 225.39661,3.51851852" id="Fill-3" transform="translate(222.555932, 3.518519) scale(1, -1) translate(-222.555932, -3.518519) "></path>
                </g>
            </g>
        </g>
    </g>
</svg>