<?xml version="1.0" encoding="UTF-8"?>
<svg width="100px" height="100px" viewBox="0 0 100 100" version="1.1" xmlns="http://www.w3.org/2000/svg" xmlns:xlink="http://www.w3.org/1999/xlink">
    <!-- Generator: Sketch 47.1 (45422) - http://www.bohemiancoding.com/sketch -->
    <title>facebook-flat-logo</title>
    <desc>Created with Sketch.</desc>
    <defs></defs>
    <g id="Logos" stroke="none" stroke-width="1" fill="none" fill-rule="evenodd">
        <g id="facebook-flat-logo" fill="#A4A4A4">
            <path d="M94.3034582,99.9040346 L5.62536023,99.9040346 C2.58645533,99.9040346 0.123919308,97.440634 0.123919308,94.4025937 L0.123919308,5.72420749 C0.123919308,2.68530259 2.58645533,0.222478386 5.62536023,0.222478386 L94.3034582,0.222478386 C97.3409222,0.222478386 99.804611,2.68530259 99.804611,5.72420749 L99.804611,94.4025937 C99.804611,97.440634 97.3409222,99.9040346 94.3034582,99.9040346 Z M68.9020173,61.3023055 L81.859366,61.3023055 L83.7991354,46.2582133 L68.9020173,46.2582133 L68.9020173,36.6536023 C68.9020173,32.2979827 70.1112392,29.329683 76.3573487,29.329683 L84.3239193,29.3259366 L84.3239193,15.8708934 C82.9458213,15.6878963 78.2170029,15.278098 72.715562,15.278098 C61.229683,15.278098 53.3668588,22.2887608 53.3668588,35.1639769 L53.3668588,46.2582133 L40.3763689,46.2582133 L40.3763689,61.3023055 L53.3668588,61.3023055 L53.3668588,99.9040346 L68.9020173,99.9040346 L68.9020173,61.3023055 Z" id="Combined-Shape"></path>
        </g>
    </g>
</svg>