<?xml version="1.0" encoding="UTF-8"?>
<svg width="377px" height="121px" viewBox="0 0 377 121" version="1.1" xmlns="http://www.w3.org/2000/svg" xmlns:xlink="http://www.w3.org/1999/xlink">
    <!-- Generator: Sketch 43.2 (39069) - http://www.bohemiancoding.com/sketch -->
    <title>Group 8</title>
    <desc>Created with Sketch.</desc>
    <defs></defs>
    <g id="Home-Copy" stroke="none" stroke-width="1" fill="none" fill-rule="evenodd">
        <g id="Artboard" transform="translate(-312.000000, -32.000000)">
            <g id="Group-8" transform="translate(312.000000, 32.000000)">
                <g id="Group-7" transform="translate(1.805732, 27.554455)">
                    <g id="Group-20" transform="translate(11.000000, 0.000000)" fill="#FDCE1E">
                        <g id="Group-2">
                            <polygon id="Path" points="49.9857013 1.59942404e-14 49.9857013 2.51787213 12.4964253 2.51787213 12.4964253 1.59942404e-14 49.9857013 0"></polygon>
                            <path d="M23.7432081,31.4734016 L16.5410657,31.4734016 C13.4735419,31.4734016 10.8914487,30.4674037 9.0731092,28.5655589 C7.17204042,26.5745788 6.16933822,23.7042745 6.25306257,20.4849653 C6.38369531,15.6800608 9.15669141,10.0714885 16.5410657,10.0714885 L23.7432081,10.0714885 L23.7432081,31.4734016 Z M16.5559524,12.680329 C11.0037057,12.680329 8.91415052,16.7564974 8.81066779,20.568883 C8.74655967,23.0823559 9.4919765,25.2856667 10.9111683,26.7703868 C12.256586,28.1797404 14.1562333,28.8945627 16.5559524,28.8945627 L21.2140968,28.8945627 L21.2140968,12.680329 L16.5559524,12.680329 Z" id="Combined-Shape"></path>
                            <path d="M29.3665995,37.1386139 L16.2873795,37.1386139 C11.4711044,37.1386139 7.39284271,35.602652 4.49407391,32.6961529 C1.56076609,29.7556086 -0.075409483,25.4243037 0.0026723284,20.8129261 C0.140828426,12.9596898 5.22957801,5.03574425 16.2873795,5.03574425 L16.2873795,7.63961943 C6.38855416,7.63961943 2.75162442,14.7603022 2.64431728,20.8568648 C2.57789608,24.7748262 3.93761186,28.4253727 6.37718875,30.8702249 C8.80259579,33.3025646 12.1376781,34.5347387 16.2873795,34.5347387 L26.7249546,34.5347387 L26.7249546,7.63961943 L18.1461399,7.63961943 L18.1461399,5.03574425 L29.3665995,5.03574425 L29.3665995,37.1386139 Z" id="Path"></path>
                            <path d="M44.6921691,31.4734016 L37.489276,31.4734016 L37.489276,10.0714885 L44.6921691,10.0714885 C52.0757172,10.0714885 54.8487941,15.6800608 54.9795594,20.4823565 C55.0619984,23.7042745 54.0603647,26.5745788 52.1584405,28.5655589 C50.3415137,30.4674037 47.7594678,31.4734016 44.6921691,31.4734016 Z M40.0477272,28.8945627 L44.706667,28.8945627 C47.1059257,28.8945627 49.0045808,28.1797404 50.3510368,26.7703868 C51.7701245,25.2856667 52.5154866,23.0823559 52.4513832,20.5677235 C52.3477659,16.7564974 50.2585062,12.680329 44.706667,12.680329 L40.0477272,12.680329 L40.0477272,28.8945627 Z" id="Combined-Shape"></path>
                            <path d="M44.9450226,37.1386139 L31.8658846,37.1386139 L31.8658846,5.03574425 L43.0861053,5.03574425 L43.0861053,7.63961943 L34.5075428,7.63961943 L34.5075428,34.5347387 L44.9450226,34.5347387 C49.0945973,34.5347387 52.4286631,33.3025646 54.8539347,30.8713888 C57.2935238,28.4253727 58.6559033,24.7761356 58.5881533,20.8568648 C58.480698,14.7603022 54.8424216,7.63961943 44.9450226,7.63961943 L44.9450226,5.03574425 C56.0016988,5.03574425 61.0904739,12.9596898 61.2298115,20.8116167 C61.3078937,25.4256131 59.6718575,29.7567725 56.738535,32.6974623 C53.8384232,35.602652 49.7613219,37.1386139 44.9450226,37.1386139 Z" id="Path"></path>
                        </g>
                        <g id="TRUNK-and-DRAWER" transform="translate(72.038217, 5.990099)">
                            <path d="M260.747804,28.083813 L260.747804,0 L267.479768,0 C269.025377,0 270.355202,0.12407776 271.466084,0.366199104 C272.57815,0.607566175 273.541888,1.01638165 274.362426,1.58510281 C275.182964,2.15382398 275.798762,2.92846142 276.205481,3.90562092 C276.6122,4.88315756 276.817334,6.07603889 276.817334,7.48803625 C276.817334,9.24963874 276.543559,10.6880356 275.99364,11.8058669 C275.442538,12.9236981 274.536396,13.7379349 273.271268,14.2440514 L277.347134,28.083813 L271.979315,28.083813 L268.47112,15.2608102 L266.099054,15.2608102 L266.099054,28.083813 L260.747804,28.083813 Z M266.099054,11.9921721 L267.391007,11.9921721 C268.974488,11.9921721 270.099178,11.6719836 270.765076,11.0282123 C271.432158,10.384064 271.767474,9.28282671 271.767474,7.72336915 C271.767474,6.22312195 271.476341,5.14790707 270.899203,4.49734739 C270.321276,3.85018193 269.258126,3.52358211 267.70936,3.52358211 L266.099054,3.52358211 L266.099054,11.9921721 Z" id="Combined-Shape"></path>
                            <polygon id="Path" points="244.840113 28.083813 244.840113 0 256.514444 0 256.514444 3.60843772 249.921039 3.60843772 249.921039 11.6719836 255.134185 11.6719836 255.134185 15.2800442 249.921039 15.2800442 249.921039 24.5436369 256.597972 24.5436369 256.597972 28.083813"></polygon>
                            <polygon id="Path" points="221.347977 28.083813 217.174564 0 221.647366 0 224.038164 18.1078103 227.156272 0 230.728949 0 233.910932 18.1240271 236.305649 0 240.690281 0 236.516083 28.083813 232.277619 28.083813 228.986304 9.33487149 225.712232 28.083813"></polygon>
                            <path d="M197.11704,28.083813 L203.249031,0 L208.984272,0 L215.099647,28.083813 L209.98567,28.083813 L208.766648,21.5627536 L203.540818,21.5627536 L202.30437,28.083813 L197.11704,28.083813 Z M204.123582,18.2254767 L208.166457,18.2254767 L206.143399,6.69039351 L204.123582,18.2254767 Z" id="Combined-Shape"></path>
                            <path d="M177.751156,28.083813 L177.751156,0 L184.482725,0 C186.028334,0 187.358159,0.12407776 188.46983,0.366199104 C189.581107,0.607566175 190.544845,1.01638165 191.365383,1.58510281 C192.185921,2.15382398 192.801719,2.92846142 193.208438,3.90562092 C193.615157,4.88315756 193.820291,6.07603889 193.820291,7.48803625 C193.820291,9.24963874 193.54691,10.6880356 192.996597,11.8058669 C192.44589,12.9236981 191.539747,13.7379349 190.27462,14.2440514 L194.350485,28.083813 L188.982272,28.083813 L185.474471,15.2608102 L183.102011,15.2608102 L183.102011,28.083813 L177.751156,28.083813 Z M183.102011,11.9921721 L184.393964,11.9921721 C185.977445,11.9921721 187.102529,11.6719836 187.768033,11.0282123 C188.43551,10.384064 188.770431,9.28282671 188.770431,7.72336915 C188.770431,6.22312195 188.480087,5.14790707 187.90216,4.49734739 C187.324233,3.85018193 186.261083,3.52358211 184.711529,3.52358211 L183.102011,3.52358211 L183.102011,11.9921721 Z" id="Combined-Shape"></path>
                            <path d="M157.001993,28.083813 L157.001993,0 L163.741262,0 C165.486147,0 166.948771,0.169711222 168.124858,0.509510802 C169.301334,0.849687519 170.241425,1.38597498 170.952132,2.11799605 C171.662838,2.85303421 172.165542,3.75212655 172.461799,4.82093012 C172.761556,5.88633945 172.909684,7.20065859 172.909684,8.75936188 L172.909684,18.8858419 C172.909684,20.4905558 172.758445,21.8501313 172.454801,22.9679625 C172.151935,24.0861709 171.65273,25.0339138 170.961851,25.8149626 C170.267863,26.5933714 169.345267,27.1651096 168.192507,27.5343258 C167.039748,27.9001478 165.628055,28.083813 163.950042,28.083813 L157.001993,28.083813 Z M162.27475,24.4946093 L163.774698,24.4946093 C164.300729,24.4946093 164.758723,24.4485987 165.156454,24.3573317 C165.550686,24.2660648 165.884267,24.1608438 166.150588,24.0367661 C166.41963,23.9126883 166.642794,23.706772 166.824359,23.4258057 C167.002813,23.1444622 167.140833,22.8831069 167.23181,22.6481512 C167.326285,22.4090469 167.397434,22.0526533 167.444477,21.572182 C167.488799,21.0920878 167.518347,20.6836495 167.531955,20.3434728 C167.541675,20.0036732 167.548673,19.5035908 167.548673,18.8364371 L167.548673,8.57305667 C167.548673,7.90665727 167.535065,7.37036981 167.511349,6.96193147 C167.488799,6.55651021 167.434758,6.14807187 167.346503,5.73623931 C167.259414,5.32101252 167.131113,5.0038411 166.962379,4.77869088 C166.793645,4.55278638 166.571257,4.3468701 166.291718,4.16094203 C166.01179,3.97463682 165.661491,3.84339348 165.243932,3.7683434 C164.823262,3.69668755 164.31667,3.66048249 163.724544,3.66048249 L162.27475,3.66048249 L162.27475,24.4946093 Z" id="Combined-Shape"></path>
                            <path d="M141.046278,23.4031775 C139.829764,23.4031775 138.957962,22.9568551 138.429692,22.071452 C137.898671,21.1864301 137.636109,19.7132992 137.636109,17.6551087 L137.636109,15.1250589 C137.636109,14.3681021 137.66323,13.7045262 137.717865,13.136237 C137.775644,12.5648985 137.877839,12.0293878 138.027594,11.527418 C138.18128,11.0254482 138.378988,10.6191461 138.624256,10.3016512 C138.872669,9.98491852 139.189473,9.73717336 139.577814,9.55498538 C139.969693,9.37660887 140.429177,9.28437144 140.960984,9.28437144 C141.891745,9.29123207 142.723062,9.69105465 143.455329,10.4769785 L143.455329,4.01197329 L145.244135,4.01197329 L145.244135,23.1813503 L143.455329,23.1813503 L143.455329,22.2105704 C142.739964,22.9968755 141.936161,23.3932677 141.046278,23.4031775 Z M141.403961,22.0257144 C142.095742,22.0257144 142.777304,21.7249899 143.455329,21.1235409 L143.455329,11.6200366 C142.739964,10.9724688 142.039142,10.6488756 141.356401,10.6488756 C140.599371,10.6488756 140.089182,10.9556984 139.823082,11.5674384 C139.557375,12.1814652 139.424522,13.1823557 139.424522,14.5697286 L139.424522,17.7934648 C139.424522,19.2902267 139.557375,20.3669653 139.829764,21.0313035 C140.099009,21.6952605 140.623348,22.0257144 141.403961,22.0257144 Z" id="Combined-Shape"></path>
                            <path d="M127.261528,22.7345153 L127.261528,9.56153407 L129.111008,9.56153407 L129.111008,10.932199 C130.188754,9.8857695 131.357938,9.36127101 132.625875,9.36127101 C133.34803,9.36127101 133.904784,9.60628149 134.288416,10.0893336 C134.676112,10.5760535 134.869554,11.2685382 134.869554,12.1653206 L134.869554,22.7345153 L133.02048,22.7345153 L133.02048,12.5214661 C133.02048,11.8535558 132.90791,11.38004 132.678706,11.097251 C132.453159,10.8140951 132.104477,10.6743511 131.625749,10.6743511 C130.829631,10.6743511 129.991655,11.0778115 129.111008,11.8887669 L129.111008,22.7345153 L127.261528,22.7345153 Z" id="Path"></path>
                            <path d="M119.724871,23.4031775 C118.900501,23.4031775 118.219226,23.1075026 117.687729,22.5222178 C117.152695,21.9342796 116.886947,21.2083596 116.886947,20.3444581 C116.886947,19.8910898 116.927438,19.4866217 117.006062,19.1287792 C117.08783,18.7735902 117.23407,18.43925 117.455789,18.1234844 C117.673577,17.8080978 117.9122,17.5321345 118.171265,17.2887712 C118.426793,17.0491987 118.795145,16.7929471 119.271605,16.5200164 C119.748458,16.2474647 120.225704,15.9976573 120.70295,15.7679406 C121.179803,15.5378449 121.803289,15.2550583 122.576554,14.9267833 L122.576554,13.951056 C122.576554,12.6993654 122.454294,11.8381173 122.205449,11.3688281 C121.960143,10.8957482 121.499801,10.6622408 120.822065,10.6622408 C119.520842,10.6622408 118.866299,11.4378189 118.866299,12.9950403 L118.866299,13.4912435 L117.101196,13.4321085 C117.101196,13.208457 117.104734,13.0704753 117.115349,13.0181636 C117.169599,11.7369055 117.517116,10.8104573 118.150823,10.2285842 C118.788069,9.65050176 119.711111,9.36127101 120.9172,9.36127101 C122.16771,9.36127101 123.0538,9.71949258 123.57822,10.432145 C124.103033,11.1451765 124.365244,12.2854204 124.365244,13.8593209 L124.365244,20.4820607 C124.365244,21.576437 124.409666,22.4767294 124.494973,23.1825585 L122.910704,23.1825585 L122.648494,21.2974412 C122.433458,21.8952353 122.069037,22.3944711 121.557983,22.7985602 C121.043391,23.1992376 120.433664,23.4031775 119.724871,23.4031775 Z M120.31101,21.9179795 C120.787863,21.9179795 121.227763,21.7602862 121.629531,21.441488 C122.028153,21.1230688 122.345007,20.7455146 122.576554,20.3080673 L122.576554,16.0666481 C122.528986,16.0893923 122.454294,16.1257831 122.348545,16.1815065 C121.960143,16.3790022 121.660194,16.5332838 121.455772,16.641698 C121.247812,16.7470796 120.999361,16.8816496 120.709633,17.0427545 C120.419904,17.2034804 120.202117,17.3380504 120.059021,17.4464645 C119.915926,17.5518461 119.752389,17.6830045 119.564871,17.8376652 C119.377354,17.9889144 119.244873,18.1333402 119.159173,18.2679102 C119.077404,18.4028593 118.989345,18.5567619 118.904039,18.7345459 C118.815194,18.9085393 118.757405,19.0958001 118.723204,19.2898841 C118.692541,19.4866217 118.675637,19.70345 118.675637,19.940369 C118.675637,20.6067748 118.832491,21.1033571 119.142269,21.4282205 C119.452046,21.7568746 119.840841,21.9179795 120.31101,21.9179795 Z" id="Combined-Shape"></path>
                            <polygon id="Path" points="94.754507 28.083813 94.754507 0 100.03682 0 100.03682 12.1950713 105.740892 0 110.776692 0 105.23151 12.5676817 111.353837 28.083813 106.088659 28.083813 101.08674 14.8716058 100.03682 16.7022242 100.03682 28.083813"></polygon>
                            <polygon id="Path" points="70.5471512 28.083813 70.5471512 0 74.2105145 0 81.359248 15.9045815 81.359248 0 85.7632035 0 85.7632035 28.083813 82.2735206 28.083813 75.0565695 11.3676348 75.0565695 28.083813"></polygon>
                            <path d="M53.9648729,28.7524752 C52.6487436,28.7524752 51.5043177,28.603307 50.5387332,28.3057334 C49.5691832,28.0085413 48.7753023,27.5919383 48.1531248,27.0563058 C47.527775,26.5176213 47.0293193,25.8297686 46.6549818,24.9900769 C46.2802477,24.1500038 46.0189253,23.2443119 45.8714109,22.2653711 C45.7235,21.2902454 45.6481567,20.1556507 45.6481567,18.8661652 L45.6481567,0 L50.8682612,0 L50.8682612,19.3956936 C50.8682612,20.0598931 50.8857092,20.6252829 50.9198119,21.0914815 C50.9578802,21.5611136 51.03362,22.0536361 51.1537729,22.5659967 C51.2707533,23.0821725 51.438888,23.4919084 51.6589699,23.7997826 C51.8786552,24.1068938 52.1812182,24.3651724 52.5698313,24.5700404 C52.9544789,24.7783419 53.4184354,24.8809666 53.9648729,24.8809666 C54.511707,24.8809666 54.9788358,24.7783419 55.36388,24.5700404 C55.7485276,24.3651724 56.0479183,24.1068938 56.2537246,23.7997826 C56.4634963,23.4919084 56.6284586,23.0821725 56.7521803,22.5659967 C56.8794709,22.0536361 56.9548143,21.5641657 56.9857447,21.1014006 C57.0135028,20.6386355 57.0305542,20.0698122 57.0305542,19.3956936 L57.0305542,0 L62.2474864,0 L62.2474864,18.8661652 C62.2474864,20.1556507 62.1717465,21.2902454 62.0242321,22.2653711 C61.8763212,23.2443119 61.6153953,24.1500038 61.2406613,24.9900769 C60.8659273,25.8297686 60.3710404,26.5176213 59.7560007,27.0563058 C59.1373922,27.5919383 58.3435112,28.0085413 57.3779267,28.3057334 C56.4083767,28.603307 55.2710887,28.7524752 53.9648729,28.7524752 Z" id="Path"></path>
                            <path d="M21.4408009,28.083813 L21.4408009,0 L28.1729244,0 C29.718571,0 31.0484268,0.12407776 32.1597301,0.366199104 C33.270639,0.607566175 34.2351888,1.01638165 35.055352,1.58510281 C35.8763042,2.15382398 36.4917224,2.92846142 36.8984508,3.90562092 C37.3055736,4.88315756 37.5103186,6.07603889 37.5103186,7.48803625 C37.5103186,9.24963874 37.2369308,10.6880356 36.6866049,11.8058669 C36.1358844,12.9236981 35.230115,13.7379349 33.9649571,14.2440514 L38.0401306,28.083813 L32.6725787,28.083813 L29.1643001,15.2608102 L26.7917838,15.2608102 L26.7917838,28.083813 L21.4408009,28.083813 Z M26.7917838,11.9921721 L28.0841621,11.9921721 C29.6668917,11.9921721 30.7920025,11.6719836 31.4587056,11.0282123 C32.1254087,10.384064 32.4603383,9.28282671 32.4603383,7.72336915 C32.4603383,6.22312195 32.1699871,5.14790707 31.5920462,4.49734739 C31.0141054,3.85018193 29.9509309,3.52358211 28.4021282,3.52358211 L26.7917838,3.52358211 L26.7917838,11.9921721 Z" id="Combined-Shape"></path>
                            <polygon id="Path" points="4.98075675 28.083813 4.98075675 3.77814894 0 3.77814894 0 0 15.2160522 0 15.2160522 3.77814894 10.3941369 3.77814894 10.3941369 28.083813"></polygon>
                        </g>
                    </g>
                    <text id="where-a-gentleman-st" font-family="SnellRoundhand-Black, Snell Roundhand" font-size="20.6795999" font-weight="700" letter-spacing="0.600000024" fill="#847C5D">
                        <tspan x="0.0990314911" y="61">where a gentleman stores his valuable</tspan>
                        <tspan x="364.484371" y="61">s</tspan>
                    </text>
                </g>
                <g id="Page-1" transform="translate(0.000000, 104.000000)" fill="#A4A4A4">
                    <path d="M124.964274,5.98090041 C124.964274,4.74362553 125.353504,3.59760366 126.016649,2.65697347 C126.061672,2.59295152 126.055572,2.50575421 126.001835,2.44868487 C125.948098,2.39103614 125.861247,2.37944846 125.794148,2.42029504 L121.122798,5.25667021 L0,5.25667021 L0,6.70513062 L121.122798,6.70513062 L125.826391,9.56120485 C125.890585,9.60002358 125.973369,9.58872559 126.024492,9.53397379 C126.075614,9.47922199 126.081133,9.39579067 126.037563,9.33495533 C125.361928,8.38882099 124.964274,7.23121144 124.964274,5.98090041" id="Fill-1"></path>
                    <path d="M135.427204,2.73648541 C135.427204,2.73648541 135.390207,2.72234487 135.317089,2.69435235 C135.249506,2.6704 135.121913,2.61672363 135.00335,2.57805357 C134.794191,2.50792799 134.4085,2.38960913 133.924054,2.32121505 C133.439609,2.25310956 132.828154,2.23204303 132.174459,2.39249496 C131.526007,2.55294688 130.832403,2.89405151 130.317079,3.54826826 C130.059563,3.87292368 129.837877,4.26741609 129.688728,4.7349199 C129.539869,5.20155796 129.455681,5.73399286 129.444612,6.31029231 C129.432668,6.88716892 129.493551,7.50502426 129.618231,8.15029495 L129.665714,8.34653112 L129.727763,8.56441098 C129.77379,8.70870228 129.82506,8.85270499 129.88303,8.99584196 C130.00101,9.28153873 130.147246,9.5623296 130.322614,9.83532874 C131.018549,10.9330969 132.202716,11.8808022 133.642068,12.6080303 C135.082878,13.3407416 136.767803,13.8720221 138.570999,14.2480452 C140.376818,14.6223369 142.311103,14.8407939 144.317632,14.9051478 C144.568448,14.9106309 144.820429,14.9155368 145.073285,14.9210199 C145.329053,14.9207313 145.585696,14.9204427 145.843212,14.9201541 C146.342514,14.9109195 146.855216,14.8962018 147.373453,14.8641691 C148.407596,14.8029896 149.457179,14.6999656 150.516083,14.5449967 C154.76044,13.9412819 159.129186,12.5783063 163.543667,10.8612399 C165.757025,10.0087669 167.98524,9.06683328 170.28803,8.16732132 C171.440735,7.7200183 172.612959,7.28339283 173.829752,6.91054411 C175.046837,6.54433279 176.309948,6.2191002 177.671522,6.15763211 C178.365709,6.12935102 179.021734,6.19630218 179.68883,6.298749 C180.35476,6.41447062 181.038751,6.58300286 181.702642,6.95844882 C182.031528,7.14718184 182.356046,7.39998019 182.614727,7.73964191 C182.873117,8.07843788 183.040911,8.50669446 183.081694,8.92600497 C183.125099,9.34820131 183.064507,9.74529097 182.946527,10.1086165 C182.940118,10.1368976 182.909822,10.2087546 182.886809,10.2632967 C182.862048,10.3204361 182.836704,10.3801727 182.809321,10.433849 C182.750185,10.5290813 182.700372,10.6303738 182.627545,10.7169486 C182.494999,10.9004871 182.327497,11.0511272 182.154752,11.1807008 C181.803143,11.4352307 181.422403,11.5685558 181.059725,11.6562849 C180.695007,11.7414168 180.339612,11.7763353 179.99179,11.7890329 C179.296438,11.8121195 178.63109,11.7428597 177.977395,11.645896 C176.672044,11.4456196 175.417672,11.114904 174.181944,10.7449411 C171.713982,9.99462633 169.326713,9.06510178 166.977897,8.08940402 C166.393242,7.84295448 165.808878,7.59679353 165.22568,7.35063257 C164.639859,7.09696847 164.090452,6.87937719 163.49298,6.67881228 C162.3126,6.27421948 161.116198,5.90858533 159.917757,5.57556101 C157.520875,4.91441828 155.105058,4.36726567 152.697689,4.08734055 C151.496043,3.95545831 150.291193,3.88504415 149.124796,3.98777956 C148.54218,4.03828151 147.971217,4.13784251 147.439871,4.31272356 C146.915516,4.49366485 146.424954,4.75223486 146.090241,5.13576113 C145.750576,5.51293859 145.568508,6.003529 145.544912,6.53163516 C145.502673,7.06118422 145.631722,7.54629157 145.961774,7.90875131 C146.287165,8.27409688 146.78268,8.50958028 147.302665,8.65935465 C147.826437,8.80970619 148.383126,8.882429 148.940107,8.91850183 C150.057856,8.98487582 151.18347,8.9089786 152.287236,8.78373375 C153.392167,8.65618024 154.479911,8.47206455 155.547263,8.25966775 C157.682259,7.83169976 159.737729,7.29407038 161.70464,6.70969062 C162.687805,6.41591354 163.649412,6.1097274 164.583054,5.78478339 C165.048564,5.62086848 165.512035,5.45522207 165.950454,5.27024062 C166.154078,5.18020285 166.394699,5.06217257 166.616093,4.97415488 C166.840982,4.8809427 167.065872,4.79292501 167.289888,4.70721597 C170.884337,3.37136713 174.320606,2.55467838 177.410801,2.16768911 C180.498375,1.78676008 183.264053,1.89671005 185.422353,2.50244493 C186.501941,2.79708776 187.41927,3.21351245 188.153657,3.67264736 C188.886005,4.13639959 189.44153,4.62814434 189.839748,5.06967572 C190.244083,5.5077441 190.491112,5.89300187 190.662984,6.14580022 C190.82029,6.40898755 190.901274,6.54462137 190.901274,6.54462137 C190.901274,6.54462137 190.818251,6.41014188 190.657449,6.1495518 C190.48179,5.89935069 190.229518,5.51813307 189.82023,5.08727926 C189.417351,4.65267386 188.857457,4.17160667 188.123361,3.72141782 C187.387226,3.27555771 186.471062,2.87529364 185.395844,2.59854293 C183.246574,2.02801513 180.500996,1.95760098 177.438767,2.37979732 C174.376246,2.80689957 170.965321,3.66976153 167.423307,5.04370328 C167.203078,5.13172098 166.982558,5.22147016 166.763786,5.31583667 C166.538313,5.4099146 166.34605,5.50889843 166.106595,5.61971415 C165.650698,5.81999047 165.189849,5.99140853 164.721134,6.16398093 C163.784288,6.50537414 162.822389,6.82656657 161.837768,7.13592712 C159.867652,7.75176238 157.808687,8.3220016 155.658252,8.78517666 C154.582743,9.015177 153.483929,9.2174734 152.35948,9.36349619 C151.235031,9.50663316 150.083782,9.60301975 148.904276,9.54992055 C148.315251,9.51990796 147.717487,9.45266821 147.122054,9.29163912 C146.533903,9.12830137 145.918661,8.86886562 145.450237,8.36528898 C144.971618,7.86834975 144.782851,7.12900114 144.832082,6.49556233 C144.848395,5.85404322 145.07882,5.16837097 145.532386,4.65498252 C145.979835,4.13351377 146.586338,3.81434142 147.188763,3.59675014 C147.797888,3.38666201 148.423618,3.27151755 149.0476,3.20802938 C150.297893,3.08076445 151.546439,3.13876955 152.78712,3.25651125 C155.268482,3.50988677 157.726247,4.03135553 160.167699,4.66710299 C161.388571,4.98800684 162.603908,5.34007761 163.81604,5.7365901 C164.417883,5.92849753 165.046525,6.16686675 165.624189,6.40812181 C166.209135,6.64504812 166.794956,6.88197443 167.381067,7.11947791 C169.724931,8.05448553 172.099674,8.93899119 174.514326,9.635341 C175.720632,9.97875429 176.940048,10.2788802 178.153637,10.4471238 C178.758392,10.5287927 179.365186,10.5798718 179.940811,10.5513022 C180.509153,10.5259069 181.070795,10.4084538 181.395312,10.1625814 C181.472508,10.1005361 181.543588,10.0382023 181.592819,9.96317083 C181.62428,9.930561 181.63768,9.88496495 181.664772,9.84889212 L181.683707,9.80387324 C181.690698,9.7862697 181.69769,9.78857836 181.710216,9.7398079 C181.785082,9.50692174 181.810717,9.26768677 181.785665,9.06596753 C181.760321,8.86136247 181.687494,8.68648142 181.56427,8.52574091 C181.438425,8.36644332 181.259271,8.22099769 181.041081,8.10037016 C180.602954,7.85651786 180.043934,7.71107224 179.472388,7.62305454 C178.896472,7.54167425 178.29463,7.49001797 177.73561,7.52320496 C176.587274,7.58871321 175.411263,7.89836234 174.261471,8.26457366 C173.108765,8.63569088 171.970333,9.07751084 170.841224,9.53433709 C168.583878,10.4528955 166.358868,11.4309019 164.132983,12.325508 C159.689663,14.126552 155.212842,15.6017862 150.786417,16.2961159 C149.682068,16.4741714 148.582089,16.5976848 147.494345,16.6781993 C146.951639,16.719178 146.409515,16.7425532 145.862147,16.7604453 C145.596183,16.7641969 145.331384,16.7682371 145.06775,16.7722772 C144.801494,16.7705457 144.536404,16.7688142 144.272479,16.7670827 C142.161079,16.7289898 140.122214,16.5295793 138.182103,16.156442 C136.244031,15.7795531 134.396847,15.2358635 132.722992,14.4165775 C131.887812,14.0065016 131.09691,13.5254344 130.383789,12.9549066 C129.671541,12.3855332 129.040567,11.7186188 128.5468,10.9732099 C128.300354,10.601227 128.088573,10.2101975 127.91641,9.80964489 C127.831057,9.60850282 127.755608,9.40591783 127.687733,9.2024671 L127.595389,8.89628097 C127.567714,8.78604241 127.540331,8.67609244 127.512948,8.56700822 C127.353894,7.80370725 127.263297,7.03752045 127.267667,6.28345412 C127.271454,5.53025354 127.37079,4.78628761 127.583445,4.08647481 C127.795226,3.38695059 128.134017,2.73792833 128.558161,2.19048714 C128.981432,1.64102587 129.49326,1.19978308 130.024023,0.879456395 C130.554204,0.556532468 131.097202,0.345578589 131.608739,0.211676263 C132.121441,0.077485355 132.604721,0.0177487573 133.042265,0.00505112296 C133.480975,-0.0111095025 133.875989,0.0128428531 134.22381,0.0578617384 C134.923532,0.148476674 135.419921,0.29132506 135.795126,0.413684082 C136.094299,0.520748225 136.248692,0.576156084 136.248692,0.576156084 L135.427204,2.73648541 Z" id="Fill-2"></path>
                    <path d="M138.073248,3.59405941 C138.073248,4.91700604 136.998234,5.99009901 135.671702,5.99009901 C134.345715,5.99009901 133.270701,4.91700604 133.270701,3.59405941 C133.270701,2.27111277 134.345715,1.1980198 135.671702,1.1980198 C136.998234,1.1980198 138.073248,2.27111277 138.073248,3.59405941" id="Fill-3"></path>
                    <path d="M252.035834,5.98090041 C252.035834,4.74362553 251.646607,3.59760366 250.983469,2.65697347 C250.938447,2.59295152 250.944546,2.50575421 250.998283,2.44868487 C251.052019,2.39103614 251.138869,2.37944846 251.205967,2.42029504 L255.87727,5.25667021 L377,5.25667021 L377,6.70513062 L255.87727,6.70513062 L251.173725,9.56120485 C251.109532,9.60002358 251.026749,9.58872559 250.975626,9.53397379 C250.924504,9.47922199 250.918695,9.39579067 250.962555,9.33495533 C251.638183,8.38882099 252.035834,7.23121144 252.035834,5.98090041" id="Fill-4"></path>
                    <path d="M240.751017,0.576126586 C240.751017,0.576126586 240.90541,0.52100721 241.204874,0.413942871 C241.580079,0.291583627 242.076468,0.14873498 242.775898,0.0578312966 C243.124011,0.0131009124 243.518734,-0.01114007 243.957444,0.00502058496 C244.394988,0.0177182424 244.878268,0.0771663658 245.39097,0.211646101 C245.902798,0.345548671 246.445505,0.556502934 246.975686,0.879716032 C247.506449,1.19975472 248.018568,1.64099831 248.441547,2.19046058 C248.865692,2.73761418 249.204774,3.38663763 249.416555,4.08616312 C249.62921,4.78597719 249.728255,5.52994448 249.732333,6.28343502 C249.736703,7.03779131 249.646106,7.80369091 249.487052,8.56670469 C249.459669,8.6760777 249.431994,8.78573928 249.40432,8.89597804 L249.312267,9.2027419 C249.244101,9.406193 249.168652,9.60877835 249.08359,9.80934362 C248.911427,10.2101856 248.699646,10.6009271 248.452908,10.9731994 C247.959433,11.7186096 247.328459,12.3855252 246.616211,12.9548997 C245.90309,13.5254285 245.11248,14.0064966 244.277008,14.4165732 C242.602861,15.2358607 240.755969,15.7798399 238.817897,16.1564408 C236.877494,16.5295788 234.838921,16.7292783 232.727521,16.7670827 C232.463596,16.7688142 232.198506,16.7705457 231.93225,16.7722772 C231.668325,16.7682371 231.403817,16.7644855 231.137853,16.7604453 C230.590485,16.7428417 230.048653,16.7191779 229.505655,16.6781991 C228.417911,16.597973 227.318223,16.4741709 226.213874,16.2964037 C221.786867,15.6017841 217.310337,14.1265472 212.867017,12.3254999 C210.641132,11.4311808 208.416122,10.4531726 206.158485,9.53432391 C205.029667,9.07749682 203.891235,8.63596464 202.738529,8.26484675 C201.588445,7.89834618 200.412435,7.58898507 199.26439,7.52318812 C198.70537,7.49000106 198.103528,7.54194602 197.527321,7.62303788 C196.956066,7.71134432 196.397046,7.85679021 195.958919,8.10035437 C195.740729,8.22098211 195.561575,8.36642801 195.43573,8.52572589 C195.312506,8.68646669 195.239971,8.86134806 195.214627,9.06566491 C195.189283,9.2676731 195.214918,9.50690851 195.289784,9.73979509 C195.302019,9.78856564 195.309302,9.78625697 195.316293,9.80414913 L195.335228,9.84887951 C195.362029,9.88524098 195.375429,9.93054854 195.407181,9.96315843 C195.456412,10.03819 195.527492,10.100524 195.604397,10.1628579 C195.929205,10.4084422 196.490556,10.5261841 197.059189,10.5512908 C197.634522,10.5798606 198.241317,10.5287814 198.846072,10.4471123 C200.059661,10.2788684 201.279076,9.97874192 202.485674,9.63561658 C204.900617,8.93897692 207.275069,8.05446965 209.618933,7.11974891 C210.205336,6.882245 210.790573,6.64502967 211.37552,6.40810293 C211.953475,6.16684744 212.582117,5.92847778 213.183668,5.73685858 C214.395801,5.34034537 215.611138,4.98798538 216.832301,4.66736953 C219.273462,4.03162091 221.731518,3.50986262 224.21288,3.25648664 C225.453269,3.13874472 226.701815,3.0810281 227.952109,3.20800467 C228.576382,3.27149296 229.20182,3.38663763 229.811237,3.59701472 C230.413662,3.8146064 231.020165,4.13349075 231.467614,4.65524904 C231.920889,5.16834983 232.151605,5.85402333 232.167918,6.4958322 C232.217149,7.12898357 232.028382,7.86862212 231.549471,8.36527367 C231.081339,8.86885122 230.466097,9.12857604 229.877946,9.2916255 C229.282513,9.45294347 228.684749,9.51989475 228.095724,9.55019598 C226.916218,9.60300669 225.764969,9.50661993 224.64052,9.3634827 C223.51578,9.21745964 222.416966,9.01516287 221.341748,8.78516212 C219.191022,8.32227479 217.132057,7.75174595 215.162232,7.13590957 C214.177611,6.82654846 213.215712,6.50535544 212.278866,6.16396161 C211.810151,5.9913889 211.349011,5.81968194 210.893405,5.61998242 C210.65395,5.5091665 210.461395,5.40989391 210.236214,5.31610439 C210.017442,5.22173771 209.796922,5.13169977 209.576693,5.04368192 C206.034679,3.67002625 202.623754,2.80687413 199.561233,2.37977111 C196.499295,1.957574 193.753135,2.02798828 191.603864,2.5988057 C190.529229,2.87555691 189.612774,3.27553312 188.876639,3.72139405 C188.142834,4.17158372 187.582649,4.65265179 187.179479,5.08725797 C186.770191,5.51811258 186.51821,5.89933088 186.342551,6.14953245 C186.181749,6.41041159 186.098726,6.54489133 186.098726,6.54489133 C186.098726,6.54489133 186.17971,6.40896868 186.337016,6.14606945 C186.508888,5.89327064 186.755917,5.50772358 187.160252,5.0696544 C187.558179,4.62812222 188.113995,4.13637658 188.846343,3.6726235 C189.58073,3.21377634 190.498059,2.79706231 191.577647,2.50270752 C193.735947,1.89668296 196.501917,1.78673279 199.589199,2.1679511 C202.679394,2.55465248 206.115663,3.3716313 209.709821,4.70690542 C209.934128,4.7926146 210.158726,4.88063246 210.383907,4.97384481 C210.605593,5.06186266 210.845922,5.18018174 211.049546,5.27050826 C211.487965,5.45520146 211.951436,5.62084817 212.416654,5.78476338 C213.350297,6.10970798 214.312195,6.41589467 215.29536,6.70967229 C217.262271,7.29405312 219.317741,7.83168348 221.452445,8.25965225 C222.520089,8.47204943 223.607542,8.65616546 224.712764,8.7837192 C225.81653,8.90896428 226.942144,8.98515022 228.059893,8.91848752 C228.617165,8.88241463 229.173563,8.80969168 229.697335,8.65962846 C230.21732,8.50956524 230.712835,8.27436999 231.038226,7.90873517 C231.368278,7.54627477 231.497327,7.06145512 231.455088,6.53190509 C231.431492,6.00379797 231.249424,5.51291808 230.909759,5.13602852 C230.574755,4.75250155 230.084775,4.49364249 229.559838,4.31270087 C229.028783,4.13810808 228.457528,4.03825832 227.875204,3.98775627 C226.708515,3.88530926 225.503957,3.95543496 224.302311,4.08731745 C221.894942,4.36753166 219.479125,4.91439668 217.081952,5.57554062 C215.884093,5.90885413 214.687109,6.27420036 213.507312,6.6787939 C212.909548,6.87964775 212.360141,7.09723943 211.77432,7.35090399 C211.19083,7.59677682 210.606758,7.8432268 210.022103,8.08938821 C207.672995,9.06508775 205.286018,9.99490257 202.818056,10.7449301 C201.582328,11.1151823 200.327664,11.4456099 199.022605,11.6458866 C198.36891,11.7428506 197.703562,11.8123991 197.007919,11.7890239 C196.660388,11.7766148 196.304993,11.7414076 195.940275,11.6565642 C195.577597,11.5688349 195.196857,11.4352209 194.845248,11.1806906 C194.672211,11.0511168 194.504709,10.9004764 194.372455,10.7172261 C194.299628,10.6306512 194.249523,10.5290699 194.190679,10.4338375 C194.163296,10.3804496 194.137661,10.3207129 194.113191,10.2632849 C194.090178,10.2087427 194.059882,10.1368855 194.053473,10.1086043 C193.935493,9.74527817 193.874901,9.34818779 193.918015,8.92627927 C193.959089,8.50639082 194.126883,8.07842205 194.385273,7.73962546 C194.643954,7.39996313 194.968472,7.14745289 195.297358,6.95843095 C195.961249,6.5829843 196.64524,6.41445176 197.31117,6.29872993 C197.978266,6.1965715 198.634291,6.12933163 199.328478,6.15790136 C200.690052,6.21936957 201.952872,6.54460275 203.170248,6.91052615 C204.387041,7.28337554 205.558973,7.72000181 206.711679,8.16759423 C209.01476,9.06681925 211.242975,10.0090431 213.456333,10.8615177 C217.870814,12.5785873 222.23956,13.9412768 226.483626,14.5449927 C227.542821,14.6999618 228.592404,14.802986 229.626547,14.8644542 C230.144784,14.8961983 230.657486,14.9109161 231.156497,14.9201507 C231.414304,14.9204393 231.670947,14.9207279 231.926424,14.9210165 C232.179571,14.9155334 232.431261,14.9106275 232.682368,14.9051444 C234.688606,14.841079 236.623182,14.622333 238.429001,14.2480406 C240.232197,13.8720168 241.916831,13.3407353 243.35764,12.6080228 C244.797284,11.8807933 245.98116,10.9333749 246.677386,9.8353161 C246.852462,9.56231647 246.99899,9.28152509 247.11697,8.99611638 C247.17494,8.85297915 247.225919,8.70897617 247.272237,8.56439603 L247.334286,8.34680435 L247.381478,8.15027925 C247.506157,7.50500738 247.567041,6.88686233 247.555097,6.31027325 C247.544027,5.73397275 247.459839,5.20153689 247.311272,4.7346094 C247.161831,4.26739332 246.940437,3.87290019 246.68263,3.54824418 C246.167597,2.89402623 245.473993,2.55292098 244.82525,2.39246877 C244.171846,2.23201655 243.560391,2.2533717 243.075363,2.32118873 C242.591209,2.38958293 242.205517,2.50790202 241.996358,2.57802771 C241.877796,2.61669785 241.750494,2.67037431 241.682911,2.6946153 C241.609793,2.72231928 241.572505,2.73645985 241.572505,2.73645985 L240.751017,0.576126586 Z" id="Fill-5"></path>
                    <path d="M238.926752,3.59405941 C238.926752,4.91700604 240.001705,5.99009901 241.328162,5.99009901 C242.654346,5.99009901 243.729299,4.91700604 243.729299,3.59405941 C243.729299,2.27111277 242.654346,1.1980198 241.328162,1.1980198 C240.001705,1.1980198 238.926752,2.27111277 238.926752,3.59405941" id="Fill-6"></path>
                </g>
                <g id="Page-1-Copy" transform="translate(188.500000, 8.386139) scale(1, -1) translate(-188.500000, -8.386139) " fill="#A4A4A4">
                    <path d="M124.964274,5.98090041 C124.964274,4.74362553 125.353504,3.59760366 126.016649,2.65697347 C126.061672,2.59295152 126.055572,2.50575421 126.001835,2.44868487 C125.948098,2.39103614 125.861247,2.37944846 125.794148,2.42029504 L121.122798,5.25667021 L0,5.25667021 L0,6.70513062 L121.122798,6.70513062 L125.826391,9.56120485 C125.890585,9.60002358 125.973369,9.58872559 126.024492,9.53397379 C126.075614,9.47922199 126.081133,9.39579067 126.037563,9.33495533 C125.361928,8.38882099 124.964274,7.23121144 124.964274,5.98090041" id="Fill-1"></path>
                    <path d="M135.427204,2.73648541 C135.427204,2.73648541 135.390207,2.72234487 135.317089,2.69435235 C135.249506,2.6704 135.121913,2.61672363 135.00335,2.57805357 C134.794191,2.50792799 134.4085,2.38960913 133.924054,2.32121505 C133.439609,2.25310956 132.828154,2.23204303 132.174459,2.39249496 C131.526007,2.55294688 130.832403,2.89405151 130.317079,3.54826826 C130.059563,3.87292368 129.837877,4.26741609 129.688728,4.7349199 C129.539869,5.20155796 129.455681,5.73399286 129.444612,6.31029231 C129.432668,6.88716892 129.493551,7.50502426 129.618231,8.15029495 L129.665714,8.34653112 L129.727763,8.56441098 C129.77379,8.70870228 129.82506,8.85270499 129.88303,8.99584196 C130.00101,9.28153873 130.147246,9.5623296 130.322614,9.83532874 C131.018549,10.9330969 132.202716,11.8808022 133.642068,12.6080303 C135.082878,13.3407416 136.767803,13.8720221 138.570999,14.2480452 C140.376818,14.6223369 142.311103,14.8407939 144.317632,14.9051478 C144.568448,14.9106309 144.820429,14.9155368 145.073285,14.9210199 C145.329053,14.9207313 145.585696,14.9204427 145.843212,14.9201541 C146.342514,14.9109195 146.855216,14.8962018 147.373453,14.8641691 C148.407596,14.8029896 149.457179,14.6999656 150.516083,14.5449967 C154.76044,13.9412819 159.129186,12.5783063 163.543667,10.8612399 C165.757025,10.0087669 167.98524,9.06683328 170.28803,8.16732132 C171.440735,7.7200183 172.612959,7.28339283 173.829752,6.91054411 C175.046837,6.54433279 176.309948,6.2191002 177.671522,6.15763211 C178.365709,6.12935102 179.021734,6.19630218 179.68883,6.298749 C180.35476,6.41447062 181.038751,6.58300286 181.702642,6.95844882 C182.031528,7.14718184 182.356046,7.39998019 182.614727,7.73964191 C182.873117,8.07843788 183.040911,8.50669446 183.081694,8.92600497 C183.125099,9.34820131 183.064507,9.74529097 182.946527,10.1086165 C182.940118,10.1368976 182.909822,10.2087546 182.886809,10.2632967 C182.862048,10.3204361 182.836704,10.3801727 182.809321,10.433849 C182.750185,10.5290813 182.700372,10.6303738 182.627545,10.7169486 C182.494999,10.9004871 182.327497,11.0511272 182.154752,11.1807008 C181.803143,11.4352307 181.422403,11.5685558 181.059725,11.6562849 C180.695007,11.7414168 180.339612,11.7763353 179.99179,11.7890329 C179.296438,11.8121195 178.63109,11.7428597 177.977395,11.645896 C176.672044,11.4456196 175.417672,11.114904 174.181944,10.7449411 C171.713982,9.99462633 169.326713,9.06510178 166.977897,8.08940402 C166.393242,7.84295448 165.808878,7.59679353 165.22568,7.35063257 C164.639859,7.09696847 164.090452,6.87937719 163.49298,6.67881228 C162.3126,6.27421948 161.116198,5.90858533 159.917757,5.57556101 C157.520875,4.91441828 155.105058,4.36726567 152.697689,4.08734055 C151.496043,3.95545831 150.291193,3.88504415 149.124796,3.98777956 C148.54218,4.03828151 147.971217,4.13784251 147.439871,4.31272356 C146.915516,4.49366485 146.424954,4.75223486 146.090241,5.13576113 C145.750576,5.51293859 145.568508,6.003529 145.544912,6.53163516 C145.502673,7.06118422 145.631722,7.54629157 145.961774,7.90875131 C146.287165,8.27409688 146.78268,8.50958028 147.302665,8.65935465 C147.826437,8.80970619 148.383126,8.882429 148.940107,8.91850183 C150.057856,8.98487582 151.18347,8.9089786 152.287236,8.78373375 C153.392167,8.65618024 154.479911,8.47206455 155.547263,8.25966775 C157.682259,7.83169976 159.737729,7.29407038 161.70464,6.70969062 C162.687805,6.41591354 163.649412,6.1097274 164.583054,5.78478339 C165.048564,5.62086848 165.512035,5.45522207 165.950454,5.27024062 C166.154078,5.18020285 166.394699,5.06217257 166.616093,4.97415488 C166.840982,4.8809427 167.065872,4.79292501 167.289888,4.70721597 C170.884337,3.37136713 174.320606,2.55467838 177.410801,2.16768911 C180.498375,1.78676008 183.264053,1.89671005 185.422353,2.50244493 C186.501941,2.79708776 187.41927,3.21351245 188.153657,3.67264736 C188.886005,4.13639959 189.44153,4.62814434 189.839748,5.06967572 C190.244083,5.5077441 190.491112,5.89300187 190.662984,6.14580022 C190.82029,6.40898755 190.901274,6.54462137 190.901274,6.54462137 C190.901274,6.54462137 190.818251,6.41014188 190.657449,6.1495518 C190.48179,5.89935069 190.229518,5.51813307 189.82023,5.08727926 C189.417351,4.65267386 188.857457,4.17160667 188.123361,3.72141782 C187.387226,3.27555771 186.471062,2.87529364 185.395844,2.59854293 C183.246574,2.02801513 180.500996,1.95760098 177.438767,2.37979732 C174.376246,2.80689957 170.965321,3.66976153 167.423307,5.04370328 C167.203078,5.13172098 166.982558,5.22147016 166.763786,5.31583667 C166.538313,5.4099146 166.34605,5.50889843 166.106595,5.61971415 C165.650698,5.81999047 165.189849,5.99140853 164.721134,6.16398093 C163.784288,6.50537414 162.822389,6.82656657 161.837768,7.13592712 C159.867652,7.75176238 157.808687,8.3220016 155.658252,8.78517666 C154.582743,9.015177 153.483929,9.2174734 152.35948,9.36349619 C151.235031,9.50663316 150.083782,9.60301975 148.904276,9.54992055 C148.315251,9.51990796 147.717487,9.45266821 147.122054,9.29163912 C146.533903,9.12830137 145.918661,8.86886562 145.450237,8.36528898 C144.971618,7.86834975 144.782851,7.12900114 144.832082,6.49556233 C144.848395,5.85404322 145.07882,5.16837097 145.532386,4.65498252 C145.979835,4.13351377 146.586338,3.81434142 147.188763,3.59675014 C147.797888,3.38666201 148.423618,3.27151755 149.0476,3.20802938 C150.297893,3.08076445 151.546439,3.13876955 152.78712,3.25651125 C155.268482,3.50988677 157.726247,4.03135553 160.167699,4.66710299 C161.388571,4.98800684 162.603908,5.34007761 163.81604,5.7365901 C164.417883,5.92849753 165.046525,6.16686675 165.624189,6.40812181 C166.209135,6.64504812 166.794956,6.88197443 167.381067,7.11947791 C169.724931,8.05448553 172.099674,8.93899119 174.514326,9.635341 C175.720632,9.97875429 176.940048,10.2788802 178.153637,10.4471238 C178.758392,10.5287927 179.365186,10.5798718 179.940811,10.5513022 C180.509153,10.5259069 181.070795,10.4084538 181.395312,10.1625814 C181.472508,10.1005361 181.543588,10.0382023 181.592819,9.96317083 C181.62428,9.930561 181.63768,9.88496495 181.664772,9.84889212 L181.683707,9.80387324 C181.690698,9.7862697 181.69769,9.78857836 181.710216,9.7398079 C181.785082,9.50692174 181.810717,9.26768677 181.785665,9.06596753 C181.760321,8.86136247 181.687494,8.68648142 181.56427,8.52574091 C181.438425,8.36644332 181.259271,8.22099769 181.041081,8.10037016 C180.602954,7.85651786 180.043934,7.71107224 179.472388,7.62305454 C178.896472,7.54167425 178.29463,7.49001797 177.73561,7.52320496 C176.587274,7.58871321 175.411263,7.89836234 174.261471,8.26457366 C173.108765,8.63569088 171.970333,9.07751084 170.841224,9.53433709 C168.583878,10.4528955 166.358868,11.4309019 164.132983,12.325508 C159.689663,14.126552 155.212842,15.6017862 150.786417,16.2961159 C149.682068,16.4741714 148.582089,16.5976848 147.494345,16.6781993 C146.951639,16.719178 146.409515,16.7425532 145.862147,16.7604453 C145.596183,16.7641969 145.331384,16.7682371 145.06775,16.7722772 C144.801494,16.7705457 144.536404,16.7688142 144.272479,16.7670827 C142.161079,16.7289898 140.122214,16.5295793 138.182103,16.156442 C136.244031,15.7795531 134.396847,15.2358635 132.722992,14.4165775 C131.887812,14.0065016 131.09691,13.5254344 130.383789,12.9549066 C129.671541,12.3855332 129.040567,11.7186188 128.5468,10.9732099 C128.300354,10.601227 128.088573,10.2101975 127.91641,9.80964489 C127.831057,9.60850282 127.755608,9.40591783 127.687733,9.2024671 L127.595389,8.89628097 C127.567714,8.78604241 127.540331,8.67609244 127.512948,8.56700822 C127.353894,7.80370725 127.263297,7.03752045 127.267667,6.28345412 C127.271454,5.53025354 127.37079,4.78628761 127.583445,4.08647481 C127.795226,3.38695059 128.134017,2.73792833 128.558161,2.19048714 C128.981432,1.64102587 129.49326,1.19978308 130.024023,0.879456395 C130.554204,0.556532468 131.097202,0.345578589 131.608739,0.211676263 C132.121441,0.077485355 132.604721,0.0177487573 133.042265,0.00505112296 C133.480975,-0.0111095025 133.875989,0.0128428531 134.22381,0.0578617384 C134.923532,0.148476674 135.419921,0.29132506 135.795126,0.413684082 C136.094299,0.520748225 136.248692,0.576156084 136.248692,0.576156084 L135.427204,2.73648541 Z" id="Fill-2"></path>
                    <path d="M138.073248,3.59405941 C138.073248,4.91700604 136.998234,5.99009901 135.671702,5.99009901 C134.345715,5.99009901 133.270701,4.91700604 133.270701,3.59405941 C133.270701,2.27111277 134.345715,1.1980198 135.671702,1.1980198 C136.998234,1.1980198 138.073248,2.27111277 138.073248,3.59405941" id="Fill-3"></path>
                    <path d="M252.035834,5.98090041 C252.035834,4.74362553 251.646607,3.59760366 250.983469,2.65697347 C250.938447,2.59295152 250.944546,2.50575421 250.998283,2.44868487 C251.052019,2.39103614 251.138869,2.37944846 251.205967,2.42029504 L255.87727,5.25667021 L377,5.25667021 L377,6.70513062 L255.87727,6.70513062 L251.173725,9.56120485 C251.109532,9.60002358 251.026749,9.58872559 250.975626,9.53397379 C250.924504,9.47922199 250.918695,9.39579067 250.962555,9.33495533 C251.638183,8.38882099 252.035834,7.23121144 252.035834,5.98090041" id="Fill-4"></path>
                    <path d="M240.751017,0.576126586 C240.751017,0.576126586 240.90541,0.52100721 241.204874,0.413942871 C241.580079,0.291583627 242.076468,0.14873498 242.775898,0.0578312966 C243.124011,0.0131009124 243.518734,-0.01114007 243.957444,0.00502058496 C244.394988,0.0177182424 244.878268,0.0771663658 245.39097,0.211646101 C245.902798,0.345548671 246.445505,0.556502934 246.975686,0.879716032 C247.506449,1.19975472 248.018568,1.64099831 248.441547,2.19046058 C248.865692,2.73761418 249.204774,3.38663763 249.416555,4.08616312 C249.62921,4.78597719 249.728255,5.52994448 249.732333,6.28343502 C249.736703,7.03779131 249.646106,7.80369091 249.487052,8.56670469 C249.459669,8.6760777 249.431994,8.78573928 249.40432,8.89597804 L249.312267,9.2027419 C249.244101,9.406193 249.168652,9.60877835 249.08359,9.80934362 C248.911427,10.2101856 248.699646,10.6009271 248.452908,10.9731994 C247.959433,11.7186096 247.328459,12.3855252 246.616211,12.9548997 C245.90309,13.5254285 245.11248,14.0064966 244.277008,14.4165732 C242.602861,15.2358607 240.755969,15.7798399 238.817897,16.1564408 C236.877494,16.5295788 234.838921,16.7292783 232.727521,16.7670827 C232.463596,16.7688142 232.198506,16.7705457 231.93225,16.7722772 C231.668325,16.7682371 231.403817,16.7644855 231.137853,16.7604453 C230.590485,16.7428417 230.048653,16.7191779 229.505655,16.6781991 C228.417911,16.597973 227.318223,16.4741709 226.213874,16.2964037 C221.786867,15.6017841 217.310337,14.1265472 212.867017,12.3254999 C210.641132,11.4311808 208.416122,10.4531726 206.158485,9.53432391 C205.029667,9.07749682 203.891235,8.63596464 202.738529,8.26484675 C201.588445,7.89834618 200.412435,7.58898507 199.26439,7.52318812 C198.70537,7.49000106 198.103528,7.54194602 197.527321,7.62303788 C196.956066,7.71134432 196.397046,7.85679021 195.958919,8.10035437 C195.740729,8.22098211 195.561575,8.36642801 195.43573,8.52572589 C195.312506,8.68646669 195.239971,8.86134806 195.214627,9.06566491 C195.189283,9.2676731 195.214918,9.50690851 195.289784,9.73979509 C195.302019,9.78856564 195.309302,9.78625697 195.316293,9.80414913 L195.335228,9.84887951 C195.362029,9.88524098 195.375429,9.93054854 195.407181,9.96315843 C195.456412,10.03819 195.527492,10.100524 195.604397,10.1628579 C195.929205,10.4084422 196.490556,10.5261841 197.059189,10.5512908 C197.634522,10.5798606 198.241317,10.5287814 198.846072,10.4471123 C200.059661,10.2788684 201.279076,9.97874192 202.485674,9.63561658 C204.900617,8.93897692 207.275069,8.05446965 209.618933,7.11974891 C210.205336,6.882245 210.790573,6.64502967 211.37552,6.40810293 C211.953475,6.16684744 212.582117,5.92847778 213.183668,5.73685858 C214.395801,5.34034537 215.611138,4.98798538 216.832301,4.66736953 C219.273462,4.03162091 221.731518,3.50986262 224.21288,3.25648664 C225.453269,3.13874472 226.701815,3.0810281 227.952109,3.20800467 C228.576382,3.27149296 229.20182,3.38663763 229.811237,3.59701472 C230.413662,3.8146064 231.020165,4.13349075 231.467614,4.65524904 C231.920889,5.16834983 232.151605,5.85402333 232.167918,6.4958322 C232.217149,7.12898357 232.028382,7.86862212 231.549471,8.36527367 C231.081339,8.86885122 230.466097,9.12857604 229.877946,9.2916255 C229.282513,9.45294347 228.684749,9.51989475 228.095724,9.55019598 C226.916218,9.60300669 225.764969,9.50661993 224.64052,9.3634827 C223.51578,9.21745964 222.416966,9.01516287 221.341748,8.78516212 C219.191022,8.32227479 217.132057,7.75174595 215.162232,7.13590957 C214.177611,6.82654846 213.215712,6.50535544 212.278866,6.16396161 C211.810151,5.9913889 211.349011,5.81968194 210.893405,5.61998242 C210.65395,5.5091665 210.461395,5.40989391 210.236214,5.31610439 C210.017442,5.22173771 209.796922,5.13169977 209.576693,5.04368192 C206.034679,3.67002625 202.623754,2.80687413 199.561233,2.37977111 C196.499295,1.957574 193.753135,2.02798828 191.603864,2.5988057 C190.529229,2.87555691 189.612774,3.27553312 188.876639,3.72139405 C188.142834,4.17158372 187.582649,4.65265179 187.179479,5.08725797 C186.770191,5.51811258 186.51821,5.89933088 186.342551,6.14953245 C186.181749,6.41041159 186.098726,6.54489133 186.098726,6.54489133 C186.098726,6.54489133 186.17971,6.40896868 186.337016,6.14606945 C186.508888,5.89327064 186.755917,5.50772358 187.160252,5.0696544 C187.558179,4.62812222 188.113995,4.13637658 188.846343,3.6726235 C189.58073,3.21377634 190.498059,2.79706231 191.577647,2.50270752 C193.735947,1.89668296 196.501917,1.78673279 199.589199,2.1679511 C202.679394,2.55465248 206.115663,3.3716313 209.709821,4.70690542 C209.934128,4.7926146 210.158726,4.88063246 210.383907,4.97384481 C210.605593,5.06186266 210.845922,5.18018174 211.049546,5.27050826 C211.487965,5.45520146 211.951436,5.62084817 212.416654,5.78476338 C213.350297,6.10970798 214.312195,6.41589467 215.29536,6.70967229 C217.262271,7.29405312 219.317741,7.83168348 221.452445,8.25965225 C222.520089,8.47204943 223.607542,8.65616546 224.712764,8.7837192 C225.81653,8.90896428 226.942144,8.98515022 228.059893,8.91848752 C228.617165,8.88241463 229.173563,8.80969168 229.697335,8.65962846 C230.21732,8.50956524 230.712835,8.27436999 231.038226,7.90873517 C231.368278,7.54627477 231.497327,7.06145512 231.455088,6.53190509 C231.431492,6.00379797 231.249424,5.51291808 230.909759,5.13602852 C230.574755,4.75250155 230.084775,4.49364249 229.559838,4.31270087 C229.028783,4.13810808 228.457528,4.03825832 227.875204,3.98775627 C226.708515,3.88530926 225.503957,3.95543496 224.302311,4.08731745 C221.894942,4.36753166 219.479125,4.91439668 217.081952,5.57554062 C215.884093,5.90885413 214.687109,6.27420036 213.507312,6.6787939 C212.909548,6.87964775 212.360141,7.09723943 211.77432,7.35090399 C211.19083,7.59677682 210.606758,7.8432268 210.022103,8.08938821 C207.672995,9.06508775 205.286018,9.99490257 202.818056,10.7449301 C201.582328,11.1151823 200.327664,11.4456099 199.022605,11.6458866 C198.36891,11.7428506 197.703562,11.8123991 197.007919,11.7890239 C196.660388,11.7766148 196.304993,11.7414076 195.940275,11.6565642 C195.577597,11.5688349 195.196857,11.4352209 194.845248,11.1806906 C194.672211,11.0511168 194.504709,10.9004764 194.372455,10.7172261 C194.299628,10.6306512 194.249523,10.5290699 194.190679,10.4338375 C194.163296,10.3804496 194.137661,10.3207129 194.113191,10.2632849 C194.090178,10.2087427 194.059882,10.1368855 194.053473,10.1086043 C193.935493,9.74527817 193.874901,9.34818779 193.918015,8.92627927 C193.959089,8.50639082 194.126883,8.07842205 194.385273,7.73962546 C194.643954,7.39996313 194.968472,7.14745289 195.297358,6.95843095 C195.961249,6.5829843 196.64524,6.41445176 197.31117,6.29872993 C197.978266,6.1965715 198.634291,6.12933163 199.328478,6.15790136 C200.690052,6.21936957 201.952872,6.54460275 203.170248,6.91052615 C204.387041,7.28337554 205.558973,7.72000181 206.711679,8.16759423 C209.01476,9.06681925 211.242975,10.0090431 213.456333,10.8615177 C217.870814,12.5785873 222.23956,13.9412768 226.483626,14.5449927 C227.542821,14.6999618 228.592404,14.802986 229.626547,14.8644542 C230.144784,14.8961983 230.657486,14.9109161 231.156497,14.9201507 C231.414304,14.9204393 231.670947,14.9207279 231.926424,14.9210165 C232.179571,14.9155334 232.431261,14.9106275 232.682368,14.9051444 C234.688606,14.841079 236.623182,14.622333 238.429001,14.2480406 C240.232197,13.8720168 241.916831,13.3407353 243.35764,12.6080228 C244.797284,11.8807933 245.98116,10.9333749 246.677386,9.8353161 C246.852462,9.56231647 246.99899,9.28152509 247.11697,8.99611638 C247.17494,8.85297915 247.225919,8.70897617 247.272237,8.56439603 L247.334286,8.34680435 L247.381478,8.15027925 C247.506157,7.50500738 247.567041,6.88686233 247.555097,6.31027325 C247.544027,5.73397275 247.459839,5.20153689 247.311272,4.7346094 C247.161831,4.26739332 246.940437,3.87290019 246.68263,3.54824418 C246.167597,2.89402623 245.473993,2.55292098 244.82525,2.39246877 C244.171846,2.23201655 243.560391,2.2533717 243.075363,2.32118873 C242.591209,2.38958293 242.205517,2.50790202 241.996358,2.57802771 C241.877796,2.61669785 241.750494,2.67037431 241.682911,2.6946153 C241.609793,2.72231928 241.572505,2.73645985 241.572505,2.73645985 L240.751017,0.576126586 Z" id="Fill-5"></path>
                    <path d="M238.926752,3.59405941 C238.926752,4.91700604 240.001705,5.99009901 241.328162,5.99009901 C242.654346,5.99009901 243.729299,4.91700604 243.729299,3.59405941 C243.729299,2.27111277 242.654346,1.1980198 241.328162,1.1980198 C240.001705,1.1980198 238.926752,2.27111277 238.926752,3.59405941" id="Fill-6"></path>
                </g>
            </g>
        </g>
    </g>
</svg>