<?xml version="1.0" standalone="no"?>
<!DOCTYPE svg PUBLIC "-//W3C//DTD SVG 20010904//EN"
 "http://www.w3.org/TR/2001/REC-SVG-20010904/DTD/svg10.dtd">
<svg version="1.0" xmlns="http://www.w3.org/2000/svg"
 width="984.000000pt" height="984.000000pt" viewBox="0 0 984.000000 984.000000"
 preserveAspectRatio="xMidYMid meet">
<metadata>
Created by potrace 1.11, written by Peter Selinger 2001-2013
</metadata>
<g transform="translate(0.000000,984.000000) scale(0.100000,-0.100000)"
fill="#000000" stroke="none">
<path d="M1892 7730 c0 -115 3 -211 7 -211 3 -1 1363 -3 3021 -4 2107 -1 3017
2 3022 9 4 6 7 102 7 213 l0 203 -3028 0 -3029 0 0 -210z"/>
<path d="M2405 7132 c-2 -2 -34 -5 -72 -7 -89 -5 -163 -14 -255 -31 -18 -3
-46 -7 -63 -10 -30 -4 -176 -37 -215 -49 -3 -1 -25 -7 -50 -14 -137 -37 -294
-99 -434 -171 -107 -55 -136 -71 -154 -87 -7 -7 -18 -13 -23 -13 -12 0 -183
-124 -256 -185 -126 -107 -280 -272 -372 -400 -28 -38 -54 -74 -58 -80 -34
-44 -186 -315 -178 -315 3 0 -1 -10 -9 -22 -17 -26 -97 -221 -95 -231 0 -1 -8
-24 -19 -52 -11 -27 -21 -54 -22 -60 -1 -5 -4 -14 -6 -20 -1 -5 -7 -26 -13
-45 -36 -121 -77 -341 -98 -525 -9 -82 -9 -469 0 -570 8 -88 16 -153 23 -185
4 -14 8 -38 11 -55 8 -55 11 -70 28 -140 9 -38 18 -78 20 -88 32 -151 160
-467 263 -647 48 -84 176 -274 202 -300 3 -3 30 -34 60 -70 80 -95 197 -208
295 -285 28 -22 52 -43 55 -46 8 -9 181 -123 230 -151 137 -78 267 -137 405
-183 61 -20 117 -39 125 -43 8 -3 20 -6 25 -7 6 0 17 -4 25 -7 18 -7 144 -38
180 -44 14 -2 34 -6 46 -9 11 -2 45 -7 75 -11 30 -3 57 -8 61 -10 4 -3 35 -7
70 -10 35 -3 74 -8 88 -11 14 -3 554 -8 1201 -10 1113 -3 1177 -2 1181 15 3
14 2 5145 -1 5177 -1 7 -295 10 -893 10 l-893 0 -1 -195 c-1 -107 0 -202 2
-211 4 -13 77 -15 680 -15 399 1 678 -3 682 -8 7 -12 7 -4331 -1 -4343 -6 -10
-1825 -10 -1912 1 -27 3 -75 8 -105 11 -30 3 -62 8 -70 10 -8 2 -31 6 -50 9
-51 7 -181 35 -189 41 -4 2 -21 6 -37 9 -38 7 -175 51 -219 71 -19 8 -52 22
-72 31 -222 98 -393 214 -570 388 -75 75 -208 236 -226 274 -6 12 -14 22 -19
22 -4 0 -8 4 -8 10 0 5 -17 36 -37 67 -54 84 -173 341 -178 383 0 3 -3 10 -7
15 -13 21 -64 207 -83 300 -2 11 -6 29 -8 40 -7 33 -17 97 -22 145 -3 25 -8
68 -12 95 -14 112 -7 499 12 585 3 14 7 43 10 65 6 57 13 88 36 185 12 47 22
92 24 100 5 23 52 161 66 195 7 17 13 36 15 44 7 38 140 288 202 381 74 112
91 134 162 213 102 115 254 249 341 302 9 6 50 30 90 55 91 55 282 148 319
155 8 2 16 4 18 5 1 2 5 3 10 4 4 1 21 6 37 12 80 30 140 46 254 69 184 38
278 49 531 59 l35 1 0 210 0 210 -93 0 c-52 0 -95 -1 -97 -3z"/>
<path d="M5158 7120 c-2 -8 -3 -1178 -3 -2600 l1 -2585 1135 0 c1106 0 1265 3
1419 30 199 34 183 30 275 53 107 26 381 118 395 132 3 3 12 6 19 8 57 13 373
194 461 265 8 7 44 35 79 62 77 61 232 212 286 280 22 28 48 57 57 66 10 9 18
21 18 28 0 6 4 11 8 11 4 0 15 12 24 28 9 15 24 36 33 47 62 78 191 314 253
461 79 188 147 419 177 604 4 25 9 53 11 64 2 10 5 37 8 60 3 22 8 73 13 111
4 39 8 167 8 285 0 241 -6 323 -41 514 -9 50 -18 100 -20 111 -12 68 -86 327
-109 380 -7 17 -18 46 -25 65 -23 61 -94 215 -102 218 -5 2 -8 10 -8 18 0 21
-165 294 -190 314 -3 3 -17 21 -30 40 -94 137 -335 374 -490 480 -19 13 -37
27 -40 30 -3 3 -14 10 -25 17 -11 6 -57 34 -102 62 -87 53 -225 121 -338 166
-77 31 -279 95 -345 109 -118 26 -175 37 -215 42 -16 2 -43 6 -60 8 -105 17
-202 24 -350 28 l-100 3 -1 -211 -1 -210 86 -3 c199 -5 424 -35 576 -76 107
-29 131 -36 145 -42 8 -4 18 -7 23 -8 4 -2 9 -4 12 -5 3 -1 10 -4 15 -5 6 -1
12 -4 15 -5 3 -1 8 -3 13 -4 4 -1 24 -10 46 -19 21 -9 40 -17 43 -17 14 0 212
-105 275 -145 304 -196 522 -447 688 -790 111 -230 168 -420 215 -720 29 -189
24 -619 -10 -761 -2 -12 -7 -36 -10 -55 -3 -19 -12 -63 -20 -99 -71 -316 -206
-607 -393 -850 -124 -161 -330 -345 -496 -445 -33 -20 -68 -40 -76 -45 -65
-40 -324 -147 -400 -165 -3 -1 -23 -6 -45 -13 -22 -6 -51 -13 -65 -16 -14 -2
-45 -9 -70 -15 -42 -9 -154 -29 -210 -36 -116 -15 -301 -18 -1102 -20 -822 -1
-918 1 -919 15 -1 17 0 4307 0 4330 1 13 83 15 681 14 374 0 681 2 681 5 1 3
3 97 4 209 1 136 -2 202 -9 203 -6 1 -408 2 -893 3 -780 1 -882 0 -885 -14z"/>
<path d="M2527 6283 c-1 -1 -40 -4 -87 -8 -47 -3 -96 -7 -110 -9 -50 -8 -106
-18 -150 -28 -25 -5 -52 -11 -60 -13 -8 -1 -35 -9 -60 -16 -25 -7 -49 -13 -55
-15 -9 -2 -83 -30 -130 -49 -11 -5 -22 -9 -25 -9 -3 -1 -16 -8 -30 -16 -14 -8
-30 -15 -35 -16 -19 -3 -162 -91 -220 -135 -32 -24 -66 -50 -77 -58 -33 -24
-121 -114 -179 -183 -196 -231 -333 -546 -385 -888 -3 -25 -8 -54 -11 -65 -9
-40 -11 -412 -3 -480 40 -325 130 -582 284 -812 62 -93 85 -122 160 -203 230
-249 583 -423 961 -475 28 -4 64 -9 80 -12 17 -2 346 -6 733 -7 l702 -3 1 21
c0 27 0 3399 0 3446 l-1 35 -651 0 c-358 0 -651 -1 -652 -2z m879 -1752 l-1
-1326 -420 1 c-430 0 -566 6 -675 27 -273 54 -474 160 -647 342 -40 41 -73 79
-73 83 0 5 -8 17 -18 28 -80 87 -175 317 -218 529 -19 95 -26 442 -11 539 54
336 178 591 380 781 76 72 88 81 152 122 175 109 358 170 570 189 39 4 71 7
73 9 1 1 202 2 446 2 l444 1 -2 -1327z"/>
<path d="M6059 6275 c-1 -5 -2 -793 -3 -1751 l-1 -1741 705 3 c388 1 721 5
740 8 19 3 53 8 76 11 55 8 90 14 144 26 25 6 52 12 61 14 48 10 237 79 305
111 288 136 537 376 692 665 70 130 154 379 176 519 3 19 8 46 10 59 26 126
27 557 1 634 -2 7 -6 28 -9 47 -6 40 -13 72 -23 115 -4 17 -7 35 -8 40 -1 6
-3 13 -5 18 -1 4 -4 12 -5 17 -1 6 -3 11 -4 13 -2 1 -4 13 -7 27 -2 14 -7 32
-11 40 -3 8 -7 17 -8 20 -40 155 -199 443 -315 570 -74 82 -114 121 -155 155
-27 22 -55 48 -64 58 -8 9 -19 17 -24 17 -5 0 -24 12 -43 26 -63 48 -233 137
-331 174 -68 25 -258 74 -324 84 -25 4 -57 9 -70 11 -81 14 -255 18 -841 19
-437 1 -658 -2 -659 -9z m1421 -429 c13 -3 42 -8 65 -12 144 -21 321 -83 428
-151 23 -14 43 -26 45 -24 5 3 146 -113 185 -153 52 -55 147 -180 147 -194 0
-7 4 -12 8 -12 6 0 74 -134 103 -205 15 -37 42 -120 49 -155 5 -19 11 -46 15
-60 10 -40 24 -130 31 -200 8 -80 11 -280 4 -280 -3 0 -5 -19 -6 -43 -1 -71
-19 -173 -47 -272 -97 -337 -280 -577 -557 -727 -57 -31 -200 -88 -220 -88 -9
0 -21 -5 -28 -12 -7 -7 -12 -9 -12 -6 0 3 -17 2 -37 -3 -60 -15 -66 -16 -113
-23 -124 -16 -198 -19 -600 -21 -239 -1 -440 0 -445 2 -7 2 -10 436 -9 1326 1
727 2 1323 3 1324 3 5 969 -5 991 -11z"/>
</g>
</svg>
